  0
SECTION
  2
HEADER
  9
$ACADVER
  1
AC1009
  9
$INSBASE
 10
0.0
 20
0.0
 30
0.0
  9
$EXTMIN
 10
0.0
 20
0.0
 30
0.0
  9
$EXTMAX
 10
0.0
 20
0.0
 30
0.0
  0
ENDSEC
  0
SECTION
  2
TABLES
  0
TABLE
  2
VPORT
 70
0
  0
ENDTAB
  0
TABLE
  2
LTYPE
 70
1
  0
LTYPE
  2
CONTINUOUS
 70
0
  3
Solid line
 72
65
 73
0
 40
0.0
  0
ENDTAB
  0
TABLE
  2
LAYER
 70
1
  0
LAYER
  2
0
 70
64
 62
7
  6
continuous
  0
ENDTAB
  0
TABLE
  2
STYLE
 70
1
  0
STYLE
  2
STANDARD
 70
0
 40
0
 41
1.0
 50
0.0
 71
0
 42
1
 3
ARIAL.TTF
 4

  0
ENDTAB
  0
TABLE
  2
VIEW
 70
0
  0
ENDTAB
  0
ENDSEC
  0
SECTION
  2
BLOCKS
  0
BLOCK
  8
0
  2
SHAPESTRING
 70
0
 10
0.0
 20
0.0
 30
0.0
  3
SHAPESTRING
  0
POLYLINE
  8
0
 62
0
 70
1
 66
1
 10
0.0
 20
0.0
 30
0.0
  0
VERTEX
  8
0
 10
78.4241747573
 20
337.61
 30
0.0
  0
VERTEX
  8
0
 10
73.7639805825
 20
337.61
 30
0.0
  0
VERTEX
  8
0
 10
73.7639805825
 20
349.567928803
 30
0.0
  0
VERTEX
  8
0
 10
70.5924595469
 20
341.752394822
 30
0.0
  0
VERTEX
  8
0
 10
67.6151132686
 20
341.752394822
 30
0.0
  0
VERTEX
  8
0
 10
64.443592233
 20
349.567928803
 30
0.0
  0
VERTEX
  8
0
 10
64.443592233
 20
337.61
 30
0.0
  0
VERTEX
  8
0
 10
60.301197411
 20
337.61
 30
0.0
  0
VERTEX
  8
0
 10
60.301197411
 20
355.732977346
 30
0.0
  0
VERTEX
  8
0
 10
65.3659223301
 20
355.732977346
 30
0.0
  0
VERTEX
  8
0
 10
69.2251456311
 20
346.711941748
 30
0.0
  0
VERTEX
  8
0
 10
73.0762783172
 20
355.732977346
 30
0.0
  0
VERTEX
  8
0
 10
78.4241747573
 20
355.732977346
 30
0.0
  0
SEQEND
  8
0
  0
POLYLINE
  8
0
 62
0
 70
1
 66
1
 10
0.0
 20
0.0
 30
0.0
  0
VERTEX
  8
0
 10
98.1005501618
 20
337.61
 30
0.0
  0
VERTEX
  8
0
 10
93.1005501618
 20
337.61
 30
0.0
  0
VERTEX
  8
0
 10
88.1329126214
 20
345.190906149
 30
0.0
  0
VERTEX
  8
0
 10
87.226763754
 20
343.831682848
 30
0.0
  0
VERTEX
  8
0
 10
87.226763754
 20
337.61
 30
0.0
  0
VERTEX
  8
0
 10
82.5665695793
 20
337.61
 30
0.0
  0
VERTEX
  8
0
 10
82.5665695793
 20
355.732977346
 30
0.0
  0
VERTEX
  8
0
 10
87.226763754
 20
355.732977346
 30
0.0
  0
VERTEX
  8
0
 10
87.226763754
 20
347.909352751
 30
0.0
  0
VERTEX
  8
0
 10
92.4775728155
 20
355.732977346
 30
0.0
  0
VERTEX
  8
0
 10
97.5827508091
 20
355.732977346
 30
0.0
  0
VERTEX
  8
0
 10
91.5309708738
 20
347.318737864
 30
0.0
  0
SEQEND
  8
0
  0
POLYLINE
  8
0
 62
0
 70
1
 66
1
 10
0.0
 20
0.0
 30
0.0
  0
VERTEX
  8
0
 10
113.116731392
 20
337.61
 30
0.0
  0
VERTEX
  8
0
 10
99.6539482201
 20
337.61
 30
0.0
  0
VERTEX
  8
0
 10
99.6539482201
 20
340.296084142
 30
0.0
  0
VERTEX
  8
0
 10
102.631294498
 20
342.885080906
 30
0.0
  0
VERTEX
  8
0
 10
104.953300971
 20
345.207087379
 30
0.0
  0
VERTEX
  8
0
 10
106.830323625
 20
347.715177994
 30
0.0
  0
VERTEX
  8
0
 10
107.420938511
 20
349.948187702
 30
0.0
  0
VERTEX
  8
0
 10
106.684692557
 20
351.93038835
 30
0.0
  0
VERTEX
  8
0
 10
104.65394822
 20
352.62618123
 30
0.0
  0
VERTEX
  8
0
 10
103.383721683
 20
352.464368932
 30
0.0
  0
VERTEX
  8
0
 10
102.178220065
 20
352.043656958
 30
0.0
  0
VERTEX
  8
0
 10
101.142621359
 20
351.493495146
 30
0.0
  0
VERTEX
  8
0
 10
100.511553398
 20
351.072783172
 30
0.0
  0
VERTEX
  8
0
 10
100.171747573
 20
351.072783172
 30
0.0
  0
VERTEX
  8
0
 10
100.171747573
 20
355.101909385
 30
0.0
  0
VERTEX
  8
0
 10
102.53420712
 20
355.862427184
 30
0.0
  0
VERTEX
  8
0
 10
105.624822006
 20
356.250776699
 30
0.0
  0
VERTEX
  8
0
 10
108.418106796
 20
355.880631068
 30
0.0
  0
VERTEX
  8
0
 10
110.438737864
 20
354.770194175
 30
0.0
  0
VERTEX
  8
0
 10
112.081132686
 20
350.603527508
 30
0.0
  0
VERTEX
  8
0
 10
111.328705502
 20
347.351100324
 30
0.0
  0
VERTEX
  8
0
 10
108.844886731
 20
343.944951456
 30
0.0
  0
VERTEX
  8
0
 10
106.733236246
 20
341.954660194
 30
0.0
  0
VERTEX
  8
0
 10
105.244563107
 20
340.716796117
 30
0.0
  0
VERTEX
  8
0
 10
113.116731392
 20
340.716796117
 30
0.0
  0
SEQEND
  8
0
  0
POLYLINE
  8
0
 62
0
 70
1
 66
1
 10
0.0
 20
0.0
 30
0.0
  0
VERTEX
  8
0
 10
130.487281553
 20
337.092200647
 30
0.0
  0
VERTEX
  8
0
 10
126.953705502
 20
337.719223301
 30
0.0
  0
VERTEX
  8
0
 10
124.233236246
 20
339.600291262
 30
0.0
  0
VERTEX
  8
0
 10
122.497799353
 20
342.618090615
 30
0.0
  0
VERTEX
  8
0
 10
121.919320388
 20
346.655307443
 30
0.0
  0
VERTEX
  8
0
 10
122.499822006
 20
350.595436893
 30
0.0
  0
VERTEX
  8
0
 10
124.241326861
 20
353.645598706
 30
0.0
  0
VERTEX
  8
0
 10
126.965841424
 20
355.599482201
 30
0.0
  0
VERTEX
  8
0
 10
130.495372168
 20
356.250776699
 30
0.0
  0
VERTEX
  8
0
 10
132.372394822
 20
356.129417476
 30
0.0
  0
VERTEX
  8
0
 10
133.97433657
 20
355.797702265
 30
0.0
  0
VERTEX
  8
0
 10
135.276925566
 20
355.312265372
 30
0.0
  0
VERTEX
  8
0
 10
136.417702265
 20
354.77828479
 30
0.0
  0
VERTEX
  8
0
 10
136.417702265
 20
350.554983819
 30
0.0
  0
VERTEX
  8
0
 10
135.980809061
 20
350.554983819
 30
0.0
  0
VERTEX
  8
0
 10
135.187928803
 20
351.145598706
 30
0.0
  0
VERTEX
  8
0
 10
134.111877023
 20
351.825210356
 30
0.0
  0
VERTEX
  8
0
 10
132.776925566
 20
352.391553398
 30
0.0
  0
VERTEX
  8
0
 10
131.263980583
 20
352.62618123
 30
0.0
  0
VERTEX
  8
0
 10
129.540679612
 20
352.318737864
 30
0.0
  0
VERTEX
  8
0
 10
128.052006472
 20
351.250776699
 30
0.0
  0
VERTEX
  8
0
 10
126.992135922
 20
349.39802589
 30
0.0
  0
VERTEX
  8
0
 10
126.579514563
 20
346.639126214
 30
0.0
  0
VERTEX
  8
0
 10
127.008317152
 20
343.823592233
 30
0.0
  0
VERTEX
  8
0
 10
128.132912621
 20
341.995113269
 30
0.0
  0
VERTEX
  8
0
 10
129.629676375
 20
341.016148867
 30
0.0
  0
VERTEX
  8
0
 10
131.288252427
 20
340.716796117
 30
0.0
  0
VERTEX
  8
0
 10
132.922556634
 20
340.967605178
 30
0.0
  0
VERTEX
  8
0
 10
134.233236246
 20
341.542038835
 30
0.0
  0
VERTEX
  8
0
 10
135.252653722
 20
342.197378641
 30
0.0
  0
VERTEX
  8
0
 10
136.021262136
 20
342.787993528
 30
0.0
  0
VERTEX
  8
0
 10
136.417702265
 20
342.787993528
 30
0.0
  0
VERTEX
  8
0
 10
136.417702265
 20
338.621326861
 30
0.0
  0
VERTEX
  8
0
 10
135.301197411
 20
338.095436893
 30
0.0
  0
VERTEX
  8
0
 10
133.998608414
 20
337.601909385
 30
0.0
  0
VERTEX
  8
0
 10
132.453300971
 20
337.221650485
 30
0.0
  0
SEQEND
  8
0
  0
POLYLINE
  8
0
 62
0
 70
1
 66
1
 10
0.0
 20
0.0
 30
0.0
  0
VERTEX
  8
0
 10
143.666893204
 20
337.61
 30
0.0
  0
VERTEX
  8
0
 10
139.006699029
 20
337.61
 30
0.0
  0
VERTEX
  8
0
 10
139.006699029
 20
356.250776699
 30
0.0
  0
VERTEX
  8
0
 10
143.666893204
 20
356.250776699
 30
0.0
  0
SEQEND
  8
0
  0
POLYLINE
  8
0
 62
0
 70
1
 66
1
 10
0.0
 20
0.0
 30
0.0
  0
VERTEX
  8
0
 10
159.718673139
 20
344.333300971
 30
0.0
  0
VERTEX
  8
0
 10
159.245372168
 20
341.323592233
 30
0.0
  0
VERTEX
  8
0
 10
157.825469256
 20
339.025857605
 30
0.0
  0
VERTEX
  8
0
 10
155.53987055
 20
337.575614887
 30
0.0
  0
VERTEX
  8
0
 10
152.469482201
 20
337.092200647
 30
0.0
  0
VERTEX
  8
0
 10
149.413252427
 20
337.575614887
 30
0.0
  0
VERTEX
  8
0
 10
147.121585761
 20
339.025857605
 30
0.0
  0
VERTEX
  8
0
 10
145.695614887
 20
341.323592233
 30
0.0
  0
VERTEX
  8
0
 10
145.220291262
 20
344.333300971
 30
0.0
  0
VERTEX
  8
0
 10
145.695614887
 20
347.369304207
 30
0.0
  0
VERTEX
  8
0
 10
147.121585761
 20
349.665016181
 30
0.0
  0
VERTEX
  8
0
 10
149.413252427
 20
351.109190939
 30
0.0
  0
VERTEX
  8
0
 10
152.469482201
 20
351.590582524
 30
0.0
  0
VERTEX
  8
0
 10
155.529757282
 20
351.105145631
 30
0.0
  0
VERTEX
  8
0
 10
157.817378641
 20
349.648834951
 30
0.0
  0
VERTEX
  8
0
 10
159.243349515
 20
347.353122977
 30
0.0
  0
SEQEND
  8
0
  0
POLYLINE
  8
0
 62
0
 70
1
 66
1
 10
0.0
 20
0.0
 30
0.0
  0
VERTEX
  8
0
 10
155.058478964
 20
344.309029126
 30
0.0
  0
VERTEX
  8
0
 10
154.864304207
 20
346.307411003
 30
0.0
  0
VERTEX
  8
0
 10
154.330323625
 20
347.585728155
 30
0.0
  0
VERTEX
  8
0
 10
153.505080906
 20
348.281521036
 30
0.0
  0
VERTEX
  8
0
 10
152.469482201
 20
348.483786408
 30
0.0
  0
VERTEX
  8
0
 10
151.47433657
 20
348.30579288
 30
0.0
  0
VERTEX
  8
0
 10
150.657184466
 20
347.64236246
 30
0.0
  0
VERTEX
  8
0
 10
150.090841424
 20
346.355954693
 30
0.0
  0
VERTEX
  8
0
 10
149.880485437
 20
344.309029126
 30
0.0
  0
VERTEX
  8
0
 10
150.074660194
 20
342.310647249
 30
0.0
  0
VERTEX
  8
0
 10
150.592459547
 20
341.097055016
 30
0.0
  0
VERTEX
  8
0
 10
151.40961165
 20
340.409352751
 30
0.0
  0
VERTEX
  8
0
 10
152.50184466
 20
340.198996764
 30
0.0
  0
VERTEX
  8
0
 10
153.505080906
 20
340.409352751
 30
0.0
  0
VERTEX
  8
0
 10
154.32223301
 20
341.064692557
 30
0.0
  0
VERTEX
  8
0
 10
154.872394822
 20
342.302556634
 30
0.0
  0
SEQEND
  8
0
  0
POLYLINE
  8
0
 62
0
 70
1
 66
1
 10
0.0
 20
0.0
 30
0.0
  0
VERTEX
  8
0
 10
174.734854369
 20
337.61
 30
0.0
  0
VERTEX
  8
0
 10
170.074660194
 20
337.61
 30
0.0
  0
VERTEX
  8
0
 10
170.074660194
 20
344.292847896
 30
0.0
  0
VERTEX
  8
0
 10
170.01802589
 20
345.919061489
 30
0.0
  0
VERTEX
  8
0
 10
169.807669903
 20
347.116472492
 30
0.0
  0
VERTEX
  8
0
 10
169.265598706
 20
347.763721683
 30
0.0
  0
VERTEX
  8
0
 10
168.327087379
 20
347.965987055
 30
0.0
  0
VERTEX
  8
0
 10
167.420938511
 20
347.771812298
 30
0.0
  0
VERTEX
  8
0
 10
166.450064725
 20
347.165016181
 30
0.0
  0
VERTEX
  8
0
 10
166.450064725
 20
337.61
 30
0.0
  0
VERTEX
  8
0
 10
161.78987055
 20
337.61
 30
0.0
  0
VERTEX
  8
0
 10
161.78987055
 20
351.072783172
 30
0.0
  0
VERTEX
  8
0
 10
166.450064725
 20
351.072783172
 30
0.0
  0
VERTEX
  8
0
 10
166.450064725
 20
349.713559871
 30
0.0
  0
VERTEX
  8
0
 10
168.424174757
 20
351.088964401
 30
0.0
  0
VERTEX
  8
0
 10
170.560097087
 20
351.590582524
 30
0.0
  0
VERTEX
  8
0
 10
173.658802589
 20
350.271812298
 30
0.0
  0
VERTEX
  8
0
 10
174.734854369
 20
346.469223301
 30
0.0
  0
SEQEND
  8
0
  0
POLYLINE
  8
0
 62
0
 70
1
 66
1
 10
0.0
 20
0.0
 30
0.0
  0
VERTEX
  8
0
 10
185.171747573
 20
337.092200647
 30
0.0
  0
VERTEX
  8
0
 10
181.597718447
 20
337.55538835
 30
0.0
  0
VERTEX
  8
0
 10
178.966245955
 20
338.944951456
 30
0.0
  0
VERTEX
  8
0
 10
177.346100324
 20
341.196165049
 30
0.0
  0
VERTEX
  8
0
 10
176.80605178
 20
344.228122977
 30
0.0
  0
VERTEX
  8
0
 10
177.299579288
 20
347.24592233
 30
0.0
  0
VERTEX
  8
0
 10
178.780161812
 20
349.584110032
 30
0.0
  0
VERTEX
  8
0
 10
181.14868932
 20
351.088964401
 30
0.0
  0
VERTEX
  8
0
 10
184.30605178
 20
351.590582524
 30
0.0
  0
VERTEX
  8
0
 10
187.133721683
 20
351.155711974
 30
0.0
  0
VERTEX
  8
0
 10
189.160420712
 20
349.851100324
 30
0.0
  0
VERTEX
  8
0
 10
190.380080906
 20
347.743495146
 30
0.0
  0
VERTEX
  8
0
 10
190.786634304
 20
344.883462783
 30
0.0
  0
VERTEX
  8
0
 10
190.786634304
 20
343.30579288
 30
0.0
  0
VERTEX
  8
0
 10
181.466245955
 20
343.30579288
 30
0.0
  0
VERTEX
  8
0
 10
181.878867314
 20
341.817119741
 30
0.0
  0
VERTEX
  8
0
 10
182.801197411
 20
340.862427184
 30
0.0
  0
VERTEX
  8
0
 10
184.103786408
 20
340.352718447
 30
0.0
  0
VERTEX
  8
0
 10
185.74618123
 20
340.198996764
 30
0.0
  0
VERTEX
  8
0
 10
187.242944984
 20
340.360809061
 30
0.0
  0
VERTEX
  8
0
 10
188.59407767
 20
340.78961165
 30
0.0
  0
VERTEX
  8
0
 10
189.581132686
 20
341.283139159
 30
0.0
  0
VERTEX
  8
0
 10
190.325469256
 20
341.752394822
 30
0.0
  0
VERTEX
  8
0
 10
190.786634304
 20
341.752394822
 30
0.0
  0
VERTEX
  8
0
 10
190.786634304
 20
338.224886731
 30
0.0
  0
VERTEX
  8
0
 10
189.783398058
 20
337.844627832
 30
0.0
  0
VERTEX
  8
0
 10
188.545533981
 20
337.480550162
 30
0.0
  0
VERTEX
  8
0
 10
187.048770227
 20
337.197378641
 30
0.0
  0
SEQEND
  8
0
  0
POLYLINE
  8
0
 62
0
 70
1
 66
1
 10
0.0
 20
0.0
 30
0.0
  0
VERTEX
  8
0
 10
186.126440129
 20
345.894789644
 30
0.0
  0
VERTEX
  8
0
 10
185.552006472
 20
348.208705502
 30
0.0
  0
VERTEX
  8
0
 10
183.917702265
 20
349.001585761
 30
0.0
  0
VERTEX
  8
0
 10
182.145857605
 20
348.168252427
 30
0.0
  0
VERTEX
  8
0
 10
181.450064725
 20
345.894789644
 30
0.0
  0
SEQEND
  8
0
  0
ENDBLK
  0
ENDSEC
  0
SECTION
  2
ENTITIES
  0
LINE
  8
Outside
 62
0
 10
5.0
 20
0.0
 30
0.0
 11
0.0
 21
4.808252
 31
0.0
  0
LINE
  8
Outside
 62
0
 10
0.0
 20
4.808252
 30
0.0
 11
0.0
 21
365.0
 31
0.0
  0
LINE
  8
Outside
 62
0
 10
0.0
 20
365.0
 30
0.0
 11
5.0
 21
370.0
 31
0.0
  0
LINE
  8
Outside
 62
0
 10
5.0
 20
370.0
 30
0.0
 11
365.0
 21
370.0
 31
0.0
  0
LINE
  8
Outside
 62
0
 10
365.0
 20
370.0
 30
0.0
 11
370.0
 21
365.0
 31
0.0
  0
LINE
  8
Outside
 62
0
 10
370.0
 20
365.0
 30
0.0
 11
370.0
 21
5.0
 31
0.0
  0
LINE
  8
Outside
 62
0
 10
370.0
 20
5.0
 30
0.0
 11
365.0
 21
0.0
 31
0.0
  0
LINE
  8
Outside
 62
0
 10
365.0
 20
0.0
 30
0.0
 11
345.0
 21
0.0
 31
0.0
  0
LINE
  8
Outside
 62
0
 10
345.0
 20
0.0
 30
0.0
 11
343.0
 21
2.0
 31
0.0
  0
LINE
  8
Outside
 62
0
 10
329.0
 20
2.0
 30
0.0
 11
41.0
 21
2.0
 31
0.0
  0
LINE
  8
Outside
 62
0
 10
27.0
 20
2.0
 30
0.0
 11
25.0
 21
0.0
 31
0.0
  0
LINE
  8
Outside
 62
0
 10
25.0
 20
0.0
 30
0.0
 11
5.0
 21
0.0
 31
0.0
  0
LINE
  8
Inside
 62
0
 10
95.0
 20
20.0
 30
0.0
 11
95.0
 21
35.0
 31
0.0
  0
LINE
  8
Inside
 62
0
 10
95.0
 20
35.0
 30
0.0
 11
80.0
 21
50.0
 31
0.0
  0
LINE
  8
Inside
 62
0
 10
80.0
 20
50.0
 30
0.0
 11
60.0
 21
50.0
 31
0.0
  0
LINE
  8
Inside
 62
0
 10
60.0
 20
50.0
 30
0.0
 11
55.0
 21
55.0
 31
0.0
  0
LINE
  8
Inside
 62
0
 10
55.0
 20
55.0
 30
0.0
 11
55.0
 21
325.0
 31
0.0
  0
LINE
  8
Inside
 62
0
 10
55.0
 20
325.0
 30
0.0
 11
60.0
 21
330.0
 31
0.0
  0
LINE
  8
Inside
 62
0
 10
60.0
 20
330.0
 30
0.0
 11
310.0
 21
330.0
 31
0.0
  0
LINE
  8
Inside
 62
0
 10
310.0
 20
330.0
 30
0.0
 11
315.0
 21
325.0
 31
0.0
  0
LINE
  8
Inside
 62
0
 10
315.0
 20
325.0
 30
0.0
 11
315.0
 21
55.0
 31
0.0
  0
LINE
  8
Inside
 62
0
 10
315.0
 20
55.0
 30
0.0
 11
310.0
 21
50.0
 31
0.0
  0
LINE
  8
Inside
 62
0
 10
105.0
 20
20.0
 30
0.0
 11
105.0
 21
35.0
 31
0.0
  0
LINE
  8
Inside
 62
0
 10
105.0
 20
35.0
 30
0.0
 11
110.0
 21
40.0
 31
0.0
  0
LINE
  8
Inside
 62
0
 10
310.0
 20
50.0
 30
0.0
 11
290.0
 21
50.0
 31
0.0
  0
LINE
  8
Inside
 62
0
 10
291.0
 20
51.0
 30
0.0
 11
275.0
 21
35.0
 31
0.0
  0
LINE
  8
Inside
 62
0
 10
275.0
 20
35.0
 30
0.0
 11
275.0
 21
20.0
 31
0.0
  0
LINE
  8
Inside
 62
0
 10
265.0
 20
20.0
 30
0.0
 11
265.0
 21
35.0
 31
0.0
  0
LINE
  8
Inside
 62
0
 10
265.0
 20
35.0
 30
0.0
 11
260.0
 21
40.0
 31
0.0
  0
LINE
  8
Inside
 62
0
 10
180.0
 20
15.0
 30
0.0
 11
190.0
 21
15.0
 31
0.0
  0
LINE
  8
Inside
 62
0
 10
190.0
 20
15.0
 30
0.0
 11
215.0
 21
40.0
 31
0.0
  0
LINE
  8
Inside
 62
0
 10
180.0
 20
15.0
 30
0.0
 11
155.0
 21
40.0
 31
0.0
  0
LINE
  8
Inside
 62
0
 10
110.0
 20
40.0
 30
0.0
 11
155.0
 21
40.0
 31
0.0
  0
LINE
  8
Inside
 62
0
 10
215.0
 20
40.0
 30
0.0
 11
260.0
 21
40.0
 31
0.0
  0
LINE
  8
bed-new
 62
0
 10
65.0
 20
325.0
 30
0.0
 11
63.0
 21
325.0
 31
0.0
  0
LINE
  8
bed-new
 62
0
 10
63.0
 20
325.0
 30
0.0
 11
60.0
 21
322.0
 31
0.0
  0
LINE
  8
bed-new
 62
0
 10
60.0
 20
322.0
 30
0.0
 11
60.0
 21
320.0
 31
0.0
  0
LINE
  8
bed-new
 62
0
 10
60.0
 20
320.0
 30
0.0
 11
60.0
 21
318.0
 31
0.0
  0
LINE
  8
bed-new
 62
0
 10
60.0
 20
318.0
 30
0.0
 11
80.0
 21
298.0
 31
0.0
  0
LINE
  8
bed-new
 62
0
 10
80.0
 20
298.0
 30
0.0
 11
80.0
 21
278.0
 31
0.0
  0
LINE
  8
bed-new
 62
0
 10
80.0
 20
278.0
 30
0.0
 11
70.0
 21
268.0
 31
0.0
  0
LINE
  8
bed-new
 62
0
 10
70.0
 20
162.0
 30
0.0
 11
80.0
 21
152.0
 31
0.0
  0
LINE
  8
bed-new
 62
0
 10
60.0
 20
112.0
 30
0.0
 11
80.0
 21
132.0
 31
0.0
  0
LINE
  8
bed-new
 62
0
 10
80.0
 20
132.0
 30
0.0
 11
80.0
 21
152.0
 31
0.0
  0
LINE
  8
bed-new
 62
0
 10
60.0
 20
112.0
 30
0.0
 11
60.0
 21
108.0
 31
0.0
  0
LINE
  8
bed-new
 62
0
 10
60.0
 20
108.0
 30
0.0
 11
63.0
 21
105.0
 31
0.0
  0
LINE
  8
bed-new
 62
0
 10
63.0
 20
105.0
 30
0.0
 11
65.0
 21
105.0
 31
0.0
  0
LINE
  8
bed-new
 62
0
 10
275.0
 20
105.0
 30
0.0
 11
277.0
 21
105.0
 31
0.0
  0
LINE
  8
bed-new
 62
0
 10
277.0
 20
105.0
 30
0.0
 11
280.0
 21
108.0
 31
0.0
  0
LINE
  8
bed-new
 62
0
 10
280.0
 20
321.0
 30
0.0
 11
280.0
 21
322.0
 31
0.0
  0
LINE
  8
bed-new
 62
0
 10
280.0
 20
322.0
 30
0.0
 11
277.0
 21
325.0
 31
0.0
  0
LINE
  8
bed-new
 62
0
 10
280.0
 20
318.0
 30
0.0
 11
240.0
 21
278.0
 31
0.0
  0
LINE
  8
bed-new
 62
0
 10
270.0
 20
228.0
 30
0.0
 11
260.0
 21
238.0
 31
0.0
  0
LINE
  8
bed-new
 62
0
 10
260.0
 20
238.0
 30
0.0
 11
240.0
 21
258.0
 31
0.0
  0
LINE
  8
bed-new
 62
0
 10
240.0
 20
258.0
 30
0.0
 11
240.0
 21
278.0
 31
0.0
  0
LINE
  8
bed-new
 62
0
 10
270.0
 20
202.0
 30
0.0
 11
260.0
 21
192.0
 31
0.0
  0
LINE
  8
bed-new
 62
0
 10
260.0
 20
192.0
 30
0.0
 11
240.0
 21
172.0
 31
0.0
  0
LINE
  8
bed-new
 62
0
 10
280.0
 20
112.0
 30
0.0
 11
260.0
 21
132.0
 31
0.0
  0
LINE
  8
bed-new
 62
0
 10
260.0
 20
132.0
 30
0.0
 11
240.0
 21
152.0
 31
0.0
  0
LINE
  8
bed-new
 62
0
 10
240.0
 20
152.0
 30
0.0
 11
240.0
 21
172.0
 31
0.0
  0
LINE
  8
bed-new
 62
0
 10
273.0
 20
325.0
 30
0.0
 11
250.0
 21
302.0
 31
0.0
  0
LINE
  8
bed-new
 62
0
 10
210.0
 20
262.0
 30
0.0
 11
208.0
 21
260.0
 31
0.0
  0
LINE
  8
bed-new
 62
0
 10
208.0
 20
260.0
 30
0.0
 11
198.0
 21
250.0
 31
0.0
  0
LINE
  8
bed-new
 62
0
 10
198.0
 20
250.0
 30
0.0
 11
142.0
 21
250.0
 31
0.0
  0
LINE
  8
bed-new
 62
0
 10
273.0
 20
105.0
 30
0.0
 11
248.0
 21
130.0
 31
0.0
  0
LINE
  8
bed-new
 62
0
 10
198.0
 20
180.0
 30
0.0
 11
142.0
 21
180.0
 31
0.0
  0
LINE
  8
bed-new
 62
0
 10
92.0
 20
300.0
 30
0.0
 11
248.0
 21
300.0
 31
0.0
  0
LINE
  8
bed-new
 62
0
 10
92.0
 20
130.0
 30
0.0
 11
248.0
 21
130.0
 31
0.0
  0
LINE
  8
bed-new
 62
0
 10
70.0
 20
230.0
 30
0.0
 11
80.0
 21
220.0
 31
0.0
  0
LINE
  8
bed-new
 62
0
 10
80.0
 20
220.0
 30
0.0
 11
80.0
 21
210.0
 31
0.0
  0
LINE
  8
bed-new
 62
0
 10
80.0
 20
210.0
 30
0.0
 11
70.0
 21
200.0
 31
0.0
  0
LINE
  8
bed-new
 62
0
 10
90.0
 20
220.0
 30
0.0
 11
110.0
 21
240.0
 31
0.0
  0
LINE
  8
bed-new
 62
0
 10
110.0
 20
240.0
 30
0.0
 11
130.0
 21
240.0
 31
0.0
  0
LINE
  8
bed-new
 62
0
 10
130.0
 20
240.0
 30
0.0
 11
150.0
 21
220.0
 31
0.0
  0
LINE
  8
bed-new
 62
0
 10
150.0
 20
220.0
 30
0.0
 11
150.0
 21
210.0
 31
0.0
  0
LINE
  8
bed-new
 62
0
 10
150.0
 20
210.0
 30
0.0
 11
130.0
 21
190.0
 31
0.0
  0
LINE
  8
bed-new
 62
0
 10
130.0
 20
190.0
 30
0.0
 11
110.0
 21
190.0
 31
0.0
  0
LINE
  8
bed-new
 62
0
 10
110.0
 20
190.0
 30
0.0
 11
90.0
 21
210.0
 31
0.0
  0
LINE
  8
bed-new
 62
0
 10
90.0
 20
210.0
 30
0.0
 11
90.0
 21
220.0
 31
0.0
  0
LINE
  8
bed-new
 62
0
 10
220.0
 20
240.0
 30
0.0
 11
240.0
 21
220.0
 31
0.0
  0
LINE
  8
bed-new
 62
0
 10
240.0
 20
220.0
 30
0.0
 11
240.0
 21
210.0
 31
0.0
  0
LINE
  8
bed-new
 62
0
 10
240.0
 20
210.0
 30
0.0
 11
220.0
 21
190.0
 31
0.0
  0
LINE
  8
bed-new
 62
0
 10
220.0
 20
190.0
 30
0.0
 11
210.0
 21
190.0
 31
0.0
  0
LINE
  8
bed-new
 62
0
 10
210.0
 20
190.0
 30
0.0
 11
190.0
 21
210.0
 31
0.0
  0
LINE
  8
bed-new
 62
0
 10
190.0
 20
210.0
 30
0.0
 11
190.0
 21
220.0
 31
0.0
  0
LINE
  8
bed-new
 62
0
 10
190.0
 20
220.0
 30
0.0
 11
210.0
 21
240.0
 31
0.0
  0
LINE
  8
bed-new
 62
0
 10
210.0
 20
240.0
 30
0.0
 11
220.0
 21
240.0
 31
0.0
  0
LINE
  8
bed-new
 62
0
 10
65.0
 20
325.0
 30
0.0
 11
67.0
 21
325.0
 31
0.0
  0
LINE
  8
bed-new
 62
0
 10
277.0
 20
325.0
 30
0.0
 11
273.0
 21
325.0
 31
0.0
  0
LINE
  8
bed-new
 62
0
 10
280.0
 20
321.0
 30
0.0
 11
280.0
 21
318.0
 31
0.0
  0
LINE
  8
bed-new
 62
0
 10
280.0
 20
112.0
 30
0.0
 11
280.0
 21
108.0
 31
0.0
  0
LINE
  8
bed-new
 62
0
 10
273.0
 20
105.0
 30
0.0
 11
275.0
 21
105.0
 31
0.0
  0
LINE
  8
bed-new
 62
0
 10
67.0
 20
105.0
 30
0.0
 11
65.0
 21
105.0
 31
0.0
  0
LINE
  8
bed-new
 62
0
 10
102.0
 20
290.0
 30
0.0
 11
238.0
 21
290.0
 31
0.0
  0
LINE
  8
bed-new
 62
0
 10
250.0
 20
302.0
 30
0.0
 11
248.0
 21
300.0
 31
0.0
  0
LINE
  8
bed-new
 62
0
 10
238.0
 20
290.0
 30
0.0
 11
210.0
 21
262.0
 31
0.0
  0
LINE
  8
bed-new
 62
0
 10
67.0
 20
325.0
 30
0.0
 11
92.0
 21
300.0
 31
0.0
  0
LINE
  8
bed-new
 62
0
 10
102.0
 20
290.0
 30
0.0
 11
142.0
 21
250.0
 31
0.0
  0
LINE
  8
bed-new
 62
0
 10
238.0
 20
140.0
 30
0.0
 11
102.0
 21
140.0
 31
0.0
  0
LINE
  8
bed-new
 62
0
 10
67.0
 20
105.0
 30
0.0
 11
92.0
 21
130.0
 31
0.0
  0
LINE
  8
bed-new
 62
0
 10
142.0
 20
180.0
 30
0.0
 11
102.0
 21
140.0
 31
0.0
  0
LINE
  8
bed-new
 62
0
 10
198.0
 20
180.0
 30
0.0
 11
238.0
 21
140.0
 31
0.0
  0
LINE
  8
bed-new
 62
0
 10
70.0
 20
268.0
 30
0.0
 11
70.0
 21
230.0
 31
0.0
  0
LINE
  8
bed-new
 62
0
 10
70.0
 20
200.0
 30
0.0
 11
70.0
 21
162.0
 31
0.0
  0
LINE
  8
bed-new
 62
0
 10
270.0
 20
228.0
 30
0.0
 11
270.0
 21
202.0
 31
0.0
  0
LINE
  8
Outside
 62
0
 10
343.0
 20
2.0
 30
0.0
 11
339.0
 21
6.0
 31
0.0
  0
LINE
  8
Outside
 62
0
 10
339.0
 20
6.0
 30
0.0
 11
333.0
 21
6.0
 31
0.0
  0
LINE
  8
Outside
 62
0
 10
333.0
 20
6.0
 30
0.0
 11
329.0
 21
2.0
 31
0.0
  0
LINE
  8
Outside
 62
0
 10
27.0
 20
2.0
 30
0.0
 11
31.0
 21
6.0
 31
0.0
  0
LINE
  8
Outside
 62
0
 10
31.0
 20
6.0
 30
0.0
 11
37.0
 21
6.0
 31
0.0
  0
LINE
  8
Outside
 62
0
 10
37.0
 20
6.0
 30
0.0
 11
41.0
 21
2.0
 31
0.0
  0
LINE
  8
bed-new
 62
0
 10
80.0
 20
169.0
 30
0.0
 11
80.0
 21
192.0
 31
0.0
  0
LINE
  8
bed-new
 62
0
 10
84.0
 20
196.0
 30
0.0
 11
86.0
 21
196.0
 31
0.0
  0
LINE
  8
bed-new
 62
0
 10
90.0
 20
192.0
 30
0.0
 11
90.0
 21
169.0
 31
0.0
  0
LINE
  8
bed-new
 62
0
 10
86.0
 20
165.0
 30
0.0
 11
84.0
 21
165.0
 31
0.0
  0
LINE
  8
bed-new
 62
0
 10
80.0
 20
239.007037
 30
0.0
 11
80.0
 21
262.007037
 31
0.0
  0
LINE
  8
bed-new
 62
0
 10
84.0
 20
266.007037
 30
0.0
 11
86.0
 21
266.007037
 31
0.0
  0
LINE
  8
bed-new
 62
0
 10
90.0
 20
262.007037
 30
0.0
 11
90.0
 21
239.007037
 31
0.0
  0
LINE
  8
bed-new
 62
0
 10
86.0
 20
235.007037
 30
0.0
 11
84.0
 21
235.007037
 31
0.0
  0
LINE
  8
bed-new
 62
0
 10
250.0
 20
202.862876
 30
0.0
 11
250.0
 21
225.862876
 31
0.0
  0
LINE
  8
bed-new
 62
0
 10
254.0
 20
229.862876
 30
0.0
 11
256.0
 21
229.862876
 31
0.0
  0
LINE
  8
bed-new
 62
0
 10
260.0
 20
225.862876
 30
0.0
 11
260.0
 21
202.862876
 31
0.0
  0
LINE
  8
bed-new
 62
0
 10
256.0
 20
198.862876
 30
0.0
 11
254.0
 21
198.862876
 31
0.0
  0
ARC
  8
Inside
 62
0
 10
100.0
 20
20.0
 30
0.0
 40
5.0
 50
-180.0
 51
-0.0
  0
ARC
  8
Inside
 62
0
 10
270.0
 20
20.0
 30
0.0
 40
5.0
 50
-180.0
 51
-0.0
  0
ARC
  8
bed-new
 62
0
 10
84.0
 20
192.0
 30
0.0
 40
4.0
 50
90.0
 51
-180.0
  0
ARC
  8
bed-new
 62
0
 10
86.0
 20
192.0
 30
0.0
 40
4.0
 50
-0.0
 51
90.0
  0
ARC
  8
bed-new
 62
0
 10
84.0
 20
169.0
 30
0.0
 40
4.0
 50
-180.0
 51
-90.0
  0
ARC
  8
bed-new
 62
0
 10
86.0
 20
169.0
 30
0.0
 40
4.0
 50
-90.0
 51
-0.0
  0
ARC
  8
bed-new
 62
0
 10
86.0
 20
239.007037
 30
0.0
 40
4.0
 50
-90.0
 51
-0.0
  0
ARC
  8
bed-new
 62
0
 10
84.0
 20
262.007037
 30
0.0
 40
4.0
 50
90.0
 51
-180.0
  0
ARC
  8
bed-new
 62
0
 10
86.0
 20
262.007037
 30
0.0
 40
4.0
 50
-0.0
 51
90.0
  0
ARC
  8
bed-new
 62
0
 10
84.0
 20
239.007037
 30
0.0
 40
4.0
 50
-180.0
 51
-90.0
  0
ARC
  8
bed-new
 62
0
 10
256.0
 20
202.862876
 30
0.0
 40
4.0
 50
-90.0
 51
-0.0
  0
ARC
  8
bed-new
 62
0
 10
254.0
 20
225.862876
 30
0.0
 40
4.0
 50
90.0
 51
-180.0
  0
ARC
  8
bed-new
 62
0
 10
256.0
 20
225.862876
 30
0.0
 40
4.0
 50
-0.0
 51
90.0
  0
ARC
  8
bed-new
 62
0
 10
254.0
 20
202.862876
 30
0.0
 40
4.0
 50
-180.0
 51
-90.0
  0
CIRCLE
  8
M3 zavit
 62
0
 10
3.74
 20
181.28
 30
0.0
 40
1.5
  0
CIRCLE
  8
M3 zavit
 62
0
 10
52.0
 20
174.93
 30
0.0
 40
1.5
  0
CIRCLE
  8
M3 zavit
 62
0
 10
52.0
 20
100.0
 30
0.0
 40
1.5
  0
CIRCLE
  8
M3 zavit
 62
0
 10
3.74
 20
100.0
 30
0.0
 40
1.5
  0
CIRCLE
  8
M3 díry
 62
0
 10
75.0
 20
250.0
 30
0.0
 40
1.5
  0
CIRCLE
  8
M3 díry
 62
0
 10
95.0
 20
250.0
 30
0.0
 40
1.5
  0
CIRCLE
  8
M3 díry
 62
0
 10
75.0
 20
180.0
 30
0.0
 40
1.5
  0
CIRCLE
  8
M3 díry
 62
0
 10
95.0
 20
180.0
 30
0.0
 40
1.5
  0
CIRCLE
  8
M3 díry
 62
0
 10
265.0
 20
215.0
 30
0.0
 40
1.5
  0
CIRCLE
  8
M3 díry
 62
0
 10
245.0
 20
215.0
 30
0.0
 40
1.5
  0
CIRCLE
  8
M3 díry
 62
0
 10
65.5
 20
319.5
 30
0.0
 40
1.5
  0
CIRCLE
  8
M3 díry
 62
0
 10
274.5
 20
110.5
 30
0.0
 40
1.5
  0
CIRCLE
  8
M3 díry
 62
0
 10
274.5
 20
319.5
 30
0.0
 40
1.5
  0
CIRCLE
  8
M3 díry
 62
0
 10
65.5
 20
110.5
 30
0.0
 40
1.5
  0
CIRCLE
  8
M3 díry
 62
0
 10
50.0
 20
6.0
 30
0.0
 40
1.5
  0
CIRCLE
  8
M3 díry
 62
0
 10
320.0
 20
6.0
 30
0.0
 40
1.5
  0
CIRCLE
  8
M3 díry
 62
0
 10
230.0
 20
6.0
 30
0.0
 40
1.5
  0
CIRCLE
  8
M3 díry
 62
0
 10
140.0
 20
6.0
 30
0.0
 40
1.5
  0
CIRCLE
  8
M3 zavit
 62
0
 10
10.0
 20
40.0
 30
0.0
 40
1.5
  0
CIRCLE
  8
M3 zavit
 62
0
 10
30.0
 20
40.0
 30
0.0
 40
1.5
  0
CIRCLE
  8
M3 zavit
 62
0
 10
20.0
 20
20.0
 30
0.0
 40
1.5
  0
CIRCLE
  8
M3 zavit
 62
0
 10
350.0
 20
20.0
 30
0.0
 40
1.5
  0
CIRCLE
  8
M3 zavit
 62
0
 10
340.0
 20
40.0
 30
0.0
 40
1.5
  0
CIRCLE
  8
M3 zavit
 62
0
 10
360.0
 20
40.0
 30
0.0
 40
1.5
  0
CIRCLE
  8
M3 zavit
 62
0
 10
360.0
 20
360.0
 30
0.0
 40
1.5
  0
CIRCLE
  8
M3 zavit
 62
0
 10
340.0
 20
360.0
 30
0.0
 40
1.5
  0
CIRCLE
  8
M3 zavit
 62
0
 10
10.0
 20
360.0
 30
0.0
 40
1.5
  0
CIRCLE
  8
M3 zavit
 62
0
 10
30.0
 20
360.0
 30
0.0
 40
1.5
  0
CIRCLE
  8
M3 zavit
 62
0
 10
170.0
 20
194.0
 30
0.0
 40
1.5
  0
CIRCLE
  8
M3 zavit
 62
0
 10
170.0
 20
235.0
 30
0.0
 40
1.5
  0
CIRCLE
  8
M3 zavit
 62
0
 10
47.951544
 20
67.965333
 30
0.0
 40
1.5
  0
CIRCLE
  8
M3 zavit
 62
0
 10
4.951544
 20
161.965333
 30
0.0
 40
1.5
  0
CIRCLE
  8
M3 zavit
 62
0
 10
47.951544
 20
161.965333
 30
0.0
 40
1.5
  0
CIRCLE
  8
M3 zavit
 62
0
 10
4.951544
 20
269.465333
 30
0.0
 40
1.5
  0
CIRCLE
  8
M3 zavit
 62
0
 10
47.951544
 20
269.465333
 30
0.0
 40
1.5
  0
CIRCLE
  8
M3 zavit
 62
0
 10
4.916778
 20
67.991555
 30
0.0
 40
1.5
  0
CIRCLE
  8
M3 zavit
 62
0
 10
4.916778
 20
269.491555
 30
0.0
 40
1.5
  0
CIRCLE
  8
M3 zavit
 62
0
 10
47.916778
 20
269.491555
 30
0.0
 40
1.5
  0
INSERT
  2
SHAPESTRING
  8
0
 62
0
 10
0.0
 20
0.0
 30
0.0
  0
ENDSEC
  0
EOF
