  0
SECTION
  2
HEADER
  9
$ACADVER
  1
AC1009
  9
$INSBASE
 10
0.0
 20
0.0
 30
0.0
  9
$EXTMIN
 10
0.0
 20
0.0
 30
0.0
  9
$EXTMAX
 10
0.0
 20
0.0
 30
0.0
  0
ENDSEC
  0
SECTION
  2
TABLES
  0
TABLE
  2
VPORT
 70
0
  0
ENDTAB
  0
TABLE
  2
LTYPE
 70
1
  0
LTYPE
  2
CONTINUOUS
 70
0
  3
Solid line
 72
65
 73
0
 40
0.0
  0
ENDTAB
  0
TABLE
  2
LAYER
 70
1
  0
LAYER
  2
0
 70
64
 62
7
  6
continuous
  0
ENDTAB
  0
TABLE
  2
STYLE
 70
1
  0
STYLE
  2
STANDARD
 70
0
 40
0
 41
1.0
 50
0.0
 71
0
 42
1
 3
ARIAL.TTF
 4

  0
ENDTAB
  0
TABLE
  2
VIEW
 70
0
  0
ENDTAB
  0
ENDSEC
  0
SECTION
  2
BLOCKS
  0
ENDSEC
  0
SECTION
  2
ENTITIES
  0
POLYLINE
  8
0
 62
0
 70
1
 66
1
 10
0.0
 20
0.0
 30
0.0
  0
VERTEX
  8
0
 10
8.445472
 20
360.913257
 30
0.0
  0
VERTEX
  8
0
 10
8.265725
 20
360.479114
 30
0.0
  0
VERTEX
  8
0
 10
8.204454
 20
360.013222
 30
0.0
  0
VERTEX
  8
0
 10
8.265866
 20
359.547358
 30
0.0
  0
VERTEX
  8
0
 10
8.445754
 20
359.113243
 30
0.0
  0
VERTEX
  8
0
 10
8.731843
 20
358.740513
 30
0.0
  0
VERTEX
  8
0
 10
9.104687
 20
358.454509
 30
0.0
  0
VERTEX
  8
0
 10
9.538829
 20
358.274761
 30
0.0
  0
VERTEX
  8
0
 10
10.004722
 20
358.213491
 30
0.0
  0
VERTEX
  8
0
 10
10.470586
 20
358.274874
 30
0.0
  0
VERTEX
  8
0
 10
10.904672
 20
358.454763
 30
0.0
  0
VERTEX
  8
0
 10
11.277431
 20
358.740879
 30
0.0
  0
VERTEX
  8
0
 10
11.563435
 20
359.113695
 30
0.0
  0
VERTEX
  8
0
 10
11.743182
 20
359.547866
 30
0.0
  0
VERTEX
  8
0
 10
11.804453
 20
360.01373
 30
0.0
  0
VERTEX
  8
0
 10
11.743069
 20
360.479594
 30
0.0
  0
VERTEX
  8
0
 10
11.563181
 20
360.913708
 30
0.0
  0
VERTEX
  8
0
 10
11.277064
 20
361.286467
 30
0.0
  0
VERTEX
  8
0
 10
10.90422
 20
361.572443
 30
0.0
  0
VERTEX
  8
0
 10
10.470078
 20
361.752219
 30
0.0
  0
VERTEX
  8
0
 10
10.004214
 20
361.813489
 30
0.0
  0
VERTEX
  8
0
 10
9.538321
 20
361.752078
 30
0.0
  0
VERTEX
  8
0
 10
9.104235
 20
361.572189
 30
0.0
  0
VERTEX
  8
0
 10
8.731476
 20
361.286101
 30
0.0
  0
SEQEND
  8
0
  0
POLYLINE
  8
0
 62
0
 70
1
 66
1
 10
0.0
 20
0.0
 30
0.0
  0
VERTEX
  8
0
 10
44.607932
 20
26.810293
 30
0.0
  0
VERTEX
  8
0
 10
44.142068
 20
26.748909
 30
0.0
  0
VERTEX
  8
0
 10
43.707953
 20
26.569021
 30
0.0
  0
VERTEX
  8
0
 10
43.335194
 20
26.282904
 30
0.0
  0
VERTEX
  8
0
 10
43.049219
 20
25.910089
 30
0.0
  0
VERTEX
  8
0
 10
42.869443
 20
25.475918
 30
0.0
  0
VERTEX
  8
0
 10
42.808173
 20
25.010054
 30
0.0
  0
VERTEX
  8
0
 10
42.869584
 20
24.544189
 30
0.0
  0
VERTEX
  8
0
 10
43.049473
 20
24.110075
 30
0.0
  0
VERTEX
  8
0
 10
43.335561
 20
23.737344
 30
0.0
  0
VERTEX
  8
0
 10
43.708405
 20
23.45134
 30
0.0
  0
VERTEX
  8
0
 10
44.142547
 20
23.271565
 30
0.0
  0
VERTEX
  8
0
 10
44.60844
 20
23.210294
 30
0.0
  0
VERTEX
  8
0
 10
45.074304
 20
23.271706
 30
0.0
  0
VERTEX
  8
0
 10
45.508418
 20
23.451594
 30
0.0
  0
VERTEX
  8
0
 10
45.881149
 20
23.737683
 30
0.0
  0
VERTEX
  8
0
 10
46.167153
 20
24.110527
 30
0.0
  0
VERTEX
  8
0
 10
46.346929
 20
24.544669
 30
0.0
  0
VERTEX
  8
0
 10
46.408171
 20
25.010562
 30
0.0
  0
VERTEX
  8
0
 10
46.346788
 20
25.476426
 30
0.0
  0
VERTEX
  8
0
 10
46.166899
 20
25.91054
 30
0.0
  0
VERTEX
  8
0
 10
45.880782
 20
26.283271
 30
0.0
  0
VERTEX
  8
0
 10
45.507967
 20
26.569275
 30
0.0
  0
VERTEX
  8
0
 10
45.073796
 20
26.749051
 30
0.0
  0
SEQEND
  8
0
  0
POLYLINE
  8
0
 62
0
 70
1
 66
1
 10
0.0
 20
0.0
 30
0.0
  0
VERTEX
  8
0
 10
324.149972
 20
4.441162
 30
0.0
  0
VERTEX
  8
0
 10
324.522764
 20
4.727222
 30
0.0
  0
VERTEX
  8
0
 10
324.808819
 20
5.10001
 30
0.0
  0
VERTEX
  8
0
 10
324.98864
 20
5.534124
 30
0.0
  0
VERTEX
  8
0
 10
325.049973
 20
6.000016
 30
0.0
  0
VERTEX
  8
0
 10
324.98864
 20
6.465881
 30
0.0
  0
VERTEX
  8
0
 10
324.808819
 20
6.899995
 30
0.0
  0
VERTEX
  8
0
 10
324.522764
 20
7.27281
 30
0.0
  0
VERTEX
  8
0
 10
324.149972
 20
7.558843
 30
0.0
  0
VERTEX
  8
0
 10
323.715846
 20
7.738675
 30
0.0
  0
VERTEX
  8
0
 10
323.249973
 20
7.800001
 30
0.0
  0
VERTEX
  8
0
 10
322.784098
 20
7.738675
 30
0.0
  0
VERTEX
  8
0
 10
322.349972
 20
7.558843
 30
0.0
  0
VERTEX
  8
0
 10
321.977179
 20
7.27281
 30
0.0
  0
VERTEX
  8
0
 10
321.691127
 20
6.899995
 30
0.0
  0
VERTEX
  8
0
 10
321.511307
 20
6.465881
 30
0.0
  0
VERTEX
  8
0
 10
321.449971
 20
6.000016
 30
0.0
  0
VERTEX
  8
0
 10
321.511307
 20
5.534124
 30
0.0
  0
VERTEX
  8
0
 10
321.691127
 20
5.10001
 30
0.0
  0
VERTEX
  8
0
 10
321.977179
 20
4.727222
 30
0.0
  0
VERTEX
  8
0
 10
322.349972
 20
4.441162
 30
0.0
  0
VERTEX
  8
0
 10
322.784098
 20
4.26133
 30
0.0
  0
VERTEX
  8
0
 10
323.249973
 20
4.200003
 30
0.0
  0
VERTEX
  8
0
 10
323.715846
 20
4.26133
 30
0.0
  0
SEQEND
  8
0
  0
POLYLINE
  8
0
 62
0
 70
1
 66
1
 10
0.0
 20
0.0
 30
0.0
  0
VERTEX
  8
0
 10
234.149977
 20
4.441162
 30
0.0
  0
VERTEX
  8
0
 10
234.52277
 20
4.727222
 30
0.0
  0
VERTEX
  8
0
 10
234.808824
 20
5.10001
 30
0.0
  0
VERTEX
  8
0
 10
234.988645
 20
5.534124
 30
0.0
  0
VERTEX
  8
0
 10
235.049978
 20
6.000016
 30
0.0
  0
VERTEX
  8
0
 10
234.988645
 20
6.465881
 30
0.0
  0
VERTEX
  8
0
 10
234.808824
 20
6.899995
 30
0.0
  0
VERTEX
  8
0
 10
234.52277
 20
7.27281
 30
0.0
  0
VERTEX
  8
0
 10
234.149977
 20
7.558843
 30
0.0
  0
VERTEX
  8
0
 10
233.715851
 20
7.738675
 30
0.0
  0
VERTEX
  8
0
 10
233.249978
 20
7.800001
 30
0.0
  0
VERTEX
  8
0
 10
232.784103
 20
7.738675
 30
0.0
  0
VERTEX
  8
0
 10
232.349977
 20
7.558843
 30
0.0
  0
VERTEX
  8
0
 10
231.977187
 20
7.27281
 30
0.0
  0
VERTEX
  8
0
 10
231.691132
 20
6.899995
 30
0.0
  0
VERTEX
  8
0
 10
231.511312
 20
6.465881
 30
0.0
  0
VERTEX
  8
0
 10
231.449979
 20
6.000016
 30
0.0
  0
VERTEX
  8
0
 10
231.511312
 20
5.534124
 30
0.0
  0
VERTEX
  8
0
 10
231.691132
 20
5.10001
 30
0.0
  0
VERTEX
  8
0
 10
231.977187
 20
4.727222
 30
0.0
  0
VERTEX
  8
0
 10
232.349977
 20
4.441162
 30
0.0
  0
VERTEX
  8
0
 10
232.784103
 20
4.26133
 30
0.0
  0
VERTEX
  8
0
 10
233.249978
 20
4.200003
 30
0.0
  0
VERTEX
  8
0
 10
233.715851
 20
4.26133
 30
0.0
  0
SEQEND
  8
0
  0
POLYLINE
  8
0
 62
0
 70
1
 66
1
 10
0.0
 20
0.0
 30
0.0
  0
VERTEX
  8
0
 10
141.511319
 20
6.465881
 30
0.0
  0
VERTEX
  8
0
 10
141.449984
 20
6.000016
 30
0.0
  0
VERTEX
  8
0
 10
141.511319
 20
5.534124
 30
0.0
  0
VERTEX
  8
0
 10
141.69114
 20
5.10001
 30
0.0
  0
VERTEX
  8
0
 10
141.977192
 20
4.727222
 30
0.0
  0
VERTEX
  8
0
 10
142.349985
 20
4.441162
 30
0.0
  0
VERTEX
  8
0
 10
142.784111
 20
4.26133
 30
0.0
  0
VERTEX
  8
0
 10
143.249986
 20
4.200003
 30
0.0
  0
VERTEX
  8
0
 10
143.715859
 20
4.26133
 30
0.0
  0
VERTEX
  8
0
 10
144.149984
 20
4.441162
 30
0.0
  0
VERTEX
  8
0
 10
144.522777
 20
4.727222
 30
0.0
  0
VERTEX
  8
0
 10
144.808829
 20
5.10001
 30
0.0
  0
VERTEX
  8
0
 10
144.98865
 20
5.534124
 30
0.0
  0
VERTEX
  8
0
 10
145.049985
 20
6.000016
 30
0.0
  0
VERTEX
  8
0
 10
144.98865
 20
6.465881
 30
0.0
  0
VERTEX
  8
0
 10
144.808829
 20
6.899995
 30
0.0
  0
VERTEX
  8
0
 10
144.522777
 20
7.27281
 30
0.0
  0
VERTEX
  8
0
 10
144.149984
 20
7.558843
 30
0.0
  0
VERTEX
  8
0
 10
143.715859
 20
7.738675
 30
0.0
  0
VERTEX
  8
0
 10
143.249986
 20
7.800001
 30
0.0
  0
VERTEX
  8
0
 10
142.784111
 20
7.738675
 30
0.0
  0
VERTEX
  8
0
 10
142.349985
 20
7.558843
 30
0.0
  0
VERTEX
  8
0
 10
141.977192
 20
7.27281
 30
0.0
  0
VERTEX
  8
0
 10
141.69114
 20
6.899995
 30
0.0
  0
SEQEND
  8
0
  0
POLYLINE
  8
0
 62
0
 70
1
 66
1
 10
0.0
 20
0.0
 30
0.0
  0
VERTEX
  8
0
 10
46.450222
 20
184.997118
 30
0.0
  0
VERTEX
  8
0
 10
46.388839
 20
185.462983
 30
0.0
  0
VERTEX
  8
0
 10
46.20895
 20
185.897097
 30
0.0
  0
VERTEX
  8
0
 10
45.922833
 20
186.269828
 30
0.0
  0
VERTEX
  8
0
 10
45.550018
 20
186.555832
 30
0.0
  0
VERTEX
  8
0
 10
45.115847
 20
186.735607
 30
0.0
  0
VERTEX
  8
0
 10
44.649983
 20
186.796849
 30
0.0
  0
VERTEX
  8
0
 10
44.184119
 20
186.735466
 30
0.0
  0
VERTEX
  8
0
 10
43.750005
 20
186.555578
 30
0.0
  0
VERTEX
  8
0
 10
43.377245
 20
186.269461
 30
0.0
  0
VERTEX
  8
0
 10
43.09127
 20
185.896645
 30
0.0
  0
VERTEX
  8
0
 10
42.911494
 20
185.462475
 30
0.0
  0
VERTEX
  8
0
 10
42.850224
 20
184.99661
 30
0.0
  0
VERTEX
  8
0
 10
42.911635
 20
184.530746
 30
0.0
  0
VERTEX
  8
0
 10
43.091524
 20
184.096632
 30
0.0
  0
VERTEX
  8
0
 10
43.377612
 20
183.723901
 30
0.0
  0
VERTEX
  8
0
 10
43.750456
 20
183.437897
 30
0.0
  0
VERTEX
  8
0
 10
44.184599
 20
183.258121
 30
0.0
  0
VERTEX
  8
0
 10
44.650491
 20
183.196851
 30
0.0
  0
VERTEX
  8
0
 10
45.116355
 20
183.258263
 30
0.0
  0
VERTEX
  8
0
 10
45.550441
 20
183.438151
 30
0.0
  0
VERTEX
  8
0
 10
45.9232
 20
183.72424
 30
0.0
  0
VERTEX
  8
0
 10
46.209204
 20
184.097083
 30
0.0
  0
VERTEX
  8
0
 10
46.388952
 20
184.531226
 30
0.0
  0
SEQEND
  8
0
  0
POLYLINE
  8
0
 62
0
 70
1
 66
1
 10
0.0
 20
0.0
 30
0.0
  0
VERTEX
  8
0
 10
51.977206
 20
4.727222
 30
0.0
  0
VERTEX
  8
0
 10
52.349993
 20
4.441162
 30
0.0
  0
VERTEX
  8
0
 10
52.784107
 20
4.26133
 30
0.0
  0
VERTEX
  8
0
 10
53.25
 20
4.200003
 30
0.0
  0
VERTEX
  8
0
 10
53.715864
 20
4.26133
 30
0.0
  0
VERTEX
  8
0
 10
54.149978
 20
4.441162
 30
0.0
  0
VERTEX
  8
0
 10
54.522794
 20
4.727222
 30
0.0
  0
VERTEX
  8
0
 10
54.808826
 20
5.10001
 30
0.0
  0
VERTEX
  8
0
 10
54.988658
 20
5.534124
 30
0.0
  0
VERTEX
  8
0
 10
55.049985
 20
6.000016
 30
0.0
  0
VERTEX
  8
0
 10
54.988658
 20
6.465881
 30
0.0
  0
VERTEX
  8
0
 10
54.808826
 20
6.899995
 30
0.0
  0
VERTEX
  8
0
 10
54.522794
 20
7.27281
 30
0.0
  0
VERTEX
  8
0
 10
54.149978
 20
7.558843
 30
0.0
  0
VERTEX
  8
0
 10
53.715864
 20
7.738675
 30
0.0
  0
VERTEX
  8
0
 10
53.25
 20
7.800001
 30
0.0
  0
VERTEX
  8
0
 10
52.784107
 20
7.738675
 30
0.0
  0
VERTEX
  8
0
 10
52.349993
 20
7.558843
 30
0.0
  0
VERTEX
  8
0
 10
51.977206
 20
7.27281
 30
0.0
  0
VERTEX
  8
0
 10
51.691145
 20
6.899995
 30
0.0
  0
VERTEX
  8
0
 10
51.511313
 20
6.465881
 30
0.0
  0
VERTEX
  8
0
 10
51.449986
 20
6.000016
 30
0.0
  0
VERTEX
  8
0
 10
51.511313
 20
5.534124
 30
0.0
  0
VERTEX
  8
0
 10
51.691145
 20
5.10001
 30
0.0
  0
SEQEND
  8
0
  0
POLYLINE
  8
0
 62
0
 70
1
 66
1
 10
0.0
 20
0.0
 30
0.0
  0
VERTEX
  8
0
 10
14.026473
 20
13.500919
 30
0.0
  0
VERTEX
  8
0
 10
13.198038
 20
12.865241
 30
0.0
  0
VERTEX
  8
0
 10
12.562389
 20
12.036834
 30
0.0
  0
VERTEX
  8
0
 10
12.162762
 20
11.072114
 30
0.0
  0
VERTEX
  8
0
 10
12.026477
 20
10.036838
 30
0.0
  0
VERTEX
  8
0
 10
12.162762
 20
9.001563
 30
0.0
  0
VERTEX
  8
0
 10
12.562389
 20
8.036814
 30
0.0
  0
VERTEX
  8
0
 10
13.198038
 20
7.208407
 30
0.0
  0
VERTEX
  8
0
 10
14.026473
 20
6.57273
 30
0.0
  0
VERTEX
  8
0
 10
14.991193
 20
6.173131
 30
0.0
  0
VERTEX
  8
0
 10
16.026469
 20
6.036818
 30
0.0
  0
VERTEX
  8
0
 10
24.089304
 20
6.036818
 30
0.0
  0
VERTEX
  8
0
 10
25.057721
 20
6.173131
 30
0.0
  0
VERTEX
  8
0
 10
26.022441
 20
6.57273
 30
0.0
  0
VERTEX
  8
0
 10
26.850877
 20
7.208407
 30
0.0
  0
VERTEX
  8
0
 10
27.486554
 20
8.036814
 30
0.0
  0
VERTEX
  8
0
 10
27.886152
 20
9.001563
 30
0.0
  0
VERTEX
  8
0
 10
28.022437
 20
10.036838
 30
0.0
  0
VERTEX
  8
0
 10
27.886152
 20
11.072114
 30
0.0
  0
VERTEX
  8
0
 10
27.486554
 20
12.036834
 30
0.0
  0
VERTEX
  8
0
 10
26.850877
 20
12.865241
 30
0.0
  0
VERTEX
  8
0
 10
26.022441
 20
13.500919
 30
0.0
  0
VERTEX
  8
0
 10
25.057721
 20
13.900517
 30
0.0
  0
VERTEX
  8
0
 10
24.022445
 20
14.03683
 30
0.0
  0
VERTEX
  8
0
 10
16.026469
 20
14.03683
 30
0.0
  0
VERTEX
  8
0
 10
14.991193
 20
13.900517
 30
0.0
  0
SEQEND
  8
0
  0
POLYLINE
  8
0
 62
0
 70
1
 66
1
 10
0.0
 20
0.0
 30
0.0
  0
VERTEX
  8
0
 10
268.249976
 20
35.000015
 30
0.0
  0
VERTEX
  8
0
 10
268.249976
 20
22.88831
 30
0.0
 42
0.672257817733
  0
VERTEX
  8
0
 10
278.249973
 20
23.035359
 30
0.0
  0
VERTEX
  8
0
 10
278.249973
 20
35.000015
 30
0.0
  0
VERTEX
  8
0
 10
283.249977
 20
40.000005
 30
0.0
  0
VERTEX
  8
0
 10
313.249974
 20
40.000005
 30
0.0
  0
VERTEX
  8
0
 10
318.249972
 20
44.999995
 30
0.0
  0
VERTEX
  8
0
 10
318.249972
 20
324.999999
 30
0.0
  0
VERTEX
  8
0
 10
313.249974
 20
330.000017
 30
0.0
  0
VERTEX
  8
0
 10
63.24998
 20
330.000017
 30
0.0
  0
VERTEX
  8
0
 10
58.24999
 20
324.999999
 30
0.0
  0
VERTEX
  8
0
 10
58.24999
 20
44.999995
 30
0.0
  0
VERTEX
  8
0
 10
63.24998
 20
40.000005
 30
0.0
  0
VERTEX
  8
0
 10
93.249976
 20
40.000005
 30
0.0
  0
VERTEX
  8
0
 10
98.249994
 20
35.000015
 30
0.0
  0
VERTEX
  8
0
 10
98.249994
 20
22.948187
 30
0.0
 42
0.672079118204
  0
VERTEX
  8
0
 10
108.249974
 20
22.972617
 30
0.0
  0
VERTEX
  8
0
 10
108.249974
 20
35.000015
 30
0.0
  0
VERTEX
  8
0
 10
113.249993
 20
40.000005
 30
0.0
  0
VERTEX
  8
0
 10
158.249984
 20
40.000005
 30
0.0
  0
VERTEX
  8
0
 10
183.249982
 20
14.999998
 30
0.0
  0
VERTEX
  8
0
 10
193.249982
 20
14.999998
 30
0.0
  0
VERTEX
  8
0
 10
218.24998
 20
40.000005
 30
0.0
  0
VERTEX
  8
0
 10
263.249975
 20
40.000005
 30
0.0
  0
SEQEND
  8
0
  0
POLYLINE
  8
0
 62
0
 70
1
 66
1
 10
0.0
 20
0.0
 30
0.0
  0
VERTEX
  8
0
 10
351.028683
 20
6.173131
 30
0.0
  0
VERTEX
  8
0
 10
352.063959
 20
6.036818
 30
0.0
  0
VERTEX
  8
0
 10
360.126788
 20
6.036818
 30
0.0
  0
VERTEX
  8
0
 10
361.095206
 20
6.173131
 30
0.0
  0
VERTEX
  8
0
 10
362.059929
 20
6.57273
 30
0.0
  0
VERTEX
  8
0
 10
362.888355
 20
7.208407
 30
0.0
  0
VERTEX
  8
0
 10
363.52403
 20
8.036814
 30
0.0
  0
VERTEX
  8
0
 10
363.923631
 20
9.001563
 30
0.0
  0
VERTEX
  8
0
 10
364.059928
 20
10.036838
 30
0.0
  0
VERTEX
  8
0
 10
363.923631
 20
11.072114
 30
0.0
  0
VERTEX
  8
0
 10
363.52403
 20
12.036834
 30
0.0
  0
VERTEX
  8
0
 10
362.888355
 20
12.865241
 30
0.0
  0
VERTEX
  8
0
 10
362.059929
 20
13.500919
 30
0.0
  0
VERTEX
  8
0
 10
361.095206
 20
13.900517
 30
0.0
  0
VERTEX
  8
0
 10
360.059927
 20
14.03683
 30
0.0
  0
VERTEX
  8
0
 10
352.063959
 20
14.03683
 30
0.0
  0
VERTEX
  8
0
 10
351.028683
 20
13.900517
 30
0.0
  0
VERTEX
  8
0
 10
350.06396
 20
13.500919
 30
0.0
  0
VERTEX
  8
0
 10
349.235534
 20
12.865241
 30
0.0
  0
VERTEX
  8
0
 10
348.599859
 20
12.036834
 30
0.0
  0
VERTEX
  8
0
 10
348.200258
 20
11.072114
 30
0.0
  0
VERTEX
  8
0
 10
348.063959
 20
10.036838
 30
0.0
  0
VERTEX
  8
0
 10
348.200258
 20
9.001563
 30
0.0
  0
VERTEX
  8
0
 10
348.599859
 20
8.036814
 30
0.0
  0
VERTEX
  8
0
 10
349.235534
 20
7.208407
 30
0.0
  0
VERTEX
  8
0
 10
350.06396
 20
6.57273
 30
0.0
  0
SEQEND
  8
0
  0
POLYLINE
  8
0
 62
0
 70
1
 66
1
 10
0.0
 20
0.0
 30
0.0
  0
VERTEX
  8
0
 10
330.135515
 20
185.465353
 30
0.0
  0
VERTEX
  8
0
 10
330.074248
 20
184.999461
 30
0.0
  0
VERTEX
  8
0
 10
330.135648
 20
184.533597
 30
0.0
  0
VERTEX
  8
0
 10
330.315531
 20
184.099511
 30
0.0
  0
VERTEX
  8
0
 10
330.601639
 20
183.726751
 30
0.0
  0
VERTEX
  8
0
 10
330.974472
 20
183.440747
 30
0.0
  0
VERTEX
  8
0
 10
331.408623
 20
183.261
 30
0.0
  0
VERTEX
  8
0
 10
331.874507
 20
183.19973
 30
0.0
  0
VERTEX
  8
0
 10
332.340371
 20
183.261113
 30
0.0
  0
VERTEX
  8
0
 10
332.774471
 20
183.441001
 30
0.0
  0
VERTEX
  8
0
 10
333.147222
 20
183.727118
 30
0.0
  0
VERTEX
  8
0
 10
333.433223
 20
184.099934
 30
0.0
  0
VERTEX
  8
0
 10
333.612981
 20
184.534105
 30
0.0
  0
VERTEX
  8
0
 10
333.674249
 20
184.999969
 30
0.0
  0
VERTEX
  8
0
 10
333.612849
 20
185.465861
 30
0.0
  0
VERTEX
  8
0
 10
333.432966
 20
185.899947
 30
0.0
  0
VERTEX
  8
0
 10
333.146858
 20
186.272706
 30
0.0
  0
VERTEX
  8
0
 10
332.774025
 20
186.55871
 30
0.0
  0
VERTEX
  8
0
 10
332.339874
 20
186.738458
 30
0.0
  0
VERTEX
  8
0
 10
331.87399
 20
186.799728
 30
0.0
  0
VERTEX
  8
0
 10
331.408126
 20
186.738317
 30
0.0
  0
VERTEX
  8
0
 10
330.974026
 20
186.558428
 30
0.0
  0
VERTEX
  8
0
 10
330.601275
 20
186.272339
 30
0.0
  0
VERTEX
  8
0
 10
330.315274
 20
185.899496
 30
0.0
  0
SEQEND
  8
0
  0
POLYLINE
  8
0
 62
0
 70
1
 66
1
 10
0.0
 20
0.0
 30
0.0
  0
VERTEX
  8
0
 10
346.502982
 20
361.790347
 30
0.0
  0
VERTEX
  8
0
 10
346.037115
 20
361.728964
 30
0.0
  0
VERTEX
  8
0
 10
345.603015
 20
361.549075
 30
0.0
  0
VERTEX
  8
0
 10
345.230264
 20
361.262958
 30
0.0
  0
VERTEX
  8
0
 10
344.944266
 20
360.890143
 30
0.0
  0
VERTEX
  8
0
 10
344.764507
 20
360.455972
 30
0.0
  0
VERTEX
  8
0
 10
344.703239
 20
359.990108
 30
0.0
  0
VERTEX
  8
0
 10
344.76464
 20
359.524244
 30
0.0
  0
VERTEX
  8
0
 10
344.944523
 20
359.090129
 30
0.0
  0
VERTEX
  8
0
 10
345.230628
 20
358.717399
 30
0.0
  0
VERTEX
  8
0
 10
345.603461
 20
358.431395
 30
0.0
  0
VERTEX
  8
0
 10
346.037614
 20
358.251619
 30
0.0
  0
VERTEX
  8
0
 10
346.503496
 20
358.190349
 30
0.0
  0
VERTEX
  8
0
 10
346.969363
 20
358.25176
 30
0.0
  0
VERTEX
  8
0
 10
347.403463
 20
358.431649
 30
0.0
  0
VERTEX
  8
0
 10
347.776213
 20
358.717737
 30
0.0
  0
VERTEX
  8
0
 10
348.062214
 20
359.090581
 30
0.0
  0
VERTEX
  8
0
 10
348.241973
 20
359.524723
 30
0.0
  0
VERTEX
  8
0
 10
348.303238
 20
359.990616
 30
0.0
  0
VERTEX
  8
0
 10
348.241838
 20
360.45648
 30
0.0
  0
VERTEX
  8
0
 10
348.061955
 20
360.890594
 30
0.0
  0
VERTEX
  8
0
 10
347.775849
 20
361.263325
 30
0.0
  0
VERTEX
  8
0
 10
347.403017
 20
361.549329
 30
0.0
  0
VERTEX
  8
0
 10
346.968863
 20
361.729105
 30
0.0
  0
SEQEND
  8
0
  0
POLYLINE
  8
0
 62
0
 70
1
 66
1
 10
0.0
 20
0.0
 30
0.0
  0
VERTEX
  8
0
 10
331.898682
 20
338.188469
 30
0.0
  0
VERTEX
  8
0
 10
332.364148
 20
338.252816
 30
0.0
  0
VERTEX
  8
0
 10
332.7971
 20
338.435442
 30
0.0
  0
VERTEX
  8
0
 10
333.16803
 20
338.723901
 30
0.0
  0
VERTEX
  8
0
 10
333.45166
 20
339.098551
 30
0.0
  0
VERTEX
  8
0
 10
333.628664
 20
339.533823
 30
0.0
  0
VERTEX
  8
0
 10
333.686977
 20
340.000082
 30
0.0
  0
VERTEX
  8
0
 10
333.622625
 20
340.465551
 30
0.0
  0
VERTEX
  8
0
 10
333.439996
 20
340.898508
 30
0.0
  0
VERTEX
  8
0
 10
333.151531
 20
341.269433
 30
0.0
  0
VERTEX
  8
0
 10
332.776892
 20
341.553066
 30
0.0
  0
VERTEX
  8
0
 10
332.34161
 20
341.730076
 30
0.0
  0
VERTEX
  8
0
 10
331.87535
 20
341.788383
 30
0.0
  0
VERTEX
  8
0
 10
331.409881
 20
341.724037
 30
0.0
  0
VERTEX
  8
0
 10
330.97693
 20
341.541411
 30
0.0
  0
VERTEX
  8
0
 10
330.606
 20
341.252923
 30
0.0
  0
VERTEX
  8
0
 10
330.322369
 20
340.878301
 30
0.0
  0
VERTEX
  8
0
 10
330.145365
 20
340.443002
 30
0.0
  0
VERTEX
  8
0
 10
330.087052
 20
339.976742
 30
0.0
  0
VERTEX
  8
0
 10
330.151404
 20
339.511273
 30
0.0
  0
VERTEX
  8
0
 10
330.334036
 20
339.078344
 30
0.0
  0
VERTEX
  8
0
 10
330.622498
 20
338.707391
 30
0.0
  0
VERTEX
  8
0
 10
330.997137
 20
338.423786
 30
0.0
  0
VERTEX
  8
0
 10
331.43242
 20
338.246777
 30
0.0
  0
SEQEND
  8
0
  0
POLYLINE
  8
0
 62
0
 70
1
 66
1
 10
0.0
 20
0.0
 30
0.0
  0
VERTEX
  8
0
 10
368.216166
 20
360.4895
 30
0.0
  0
VERTEX
  8
0
 10
368.036283
 20
360.923586
 30
0.0
  0
VERTEX
  8
0
 10
367.750175
 20
361.296345
 30
0.0
  0
VERTEX
  8
0
 10
367.377343
 20
361.582349
 30
0.0
  0
VERTEX
  8
0
 10
366.943192
 20
361.762097
 30
0.0
  0
VERTEX
  8
0
 10
366.477308
 20
361.823367
 30
0.0
  0
VERTEX
  8
0
 10
366.011443
 20
361.761984
 30
0.0
  0
VERTEX
  8
0
 10
365.577343
 20
361.582095
 30
0.0
  0
VERTEX
  8
0
 10
365.204593
 20
361.295978
 30
0.0
  0
VERTEX
  8
0
 10
364.918591
 20
360.923163
 30
0.0
  0
VERTEX
  8
0
 10
364.738833
 20
360.488992
 30
0.0
  0
VERTEX
  8
0
 10
364.677565
 20
360.023128
 30
0.0
  0
VERTEX
  8
0
 10
364.738965
 20
359.557264
 30
0.0
  0
VERTEX
  8
0
 10
364.918848
 20
359.123149
 30
0.0
  0
VERTEX
  8
0
 10
365.204957
 20
358.75039
 30
0.0
  0
VERTEX
  8
0
 10
365.577789
 20
358.464415
 30
0.0
  0
VERTEX
  8
0
 10
366.01194
 20
358.284639
 30
0.0
  0
VERTEX
  8
0
 10
366.477824
 20
358.223369
 30
0.0
  0
VERTEX
  8
0
 10
366.943688
 20
358.28478
 30
0.0
  0
VERTEX
  8
0
 10
367.377788
 20
358.464669
 30
0.0
  0
VERTEX
  8
0
 10
367.750542
 20
358.750757
 30
0.0
  0
VERTEX
  8
0
 10
368.03654
 20
359.123601
 30
0.0
  0
VERTEX
  8
0
 10
368.216299
 20
359.557743
 30
0.0
  0
VERTEX
  8
0
 10
368.277566
 20
360.023636
 30
0.0
  0
SEQEND
  8
0
  0
POLYLINE
  8
0
 62
0
 70
1
 66
1
 10
0.0
 20
0.0
 30
0.0
  0
VERTEX
  8
0
 10
346.513915
 20
41.791043
 30
0.0
  0
VERTEX
  8
0
 10
346.048048
 20
41.729632
 30
0.0
  0
VERTEX
  8
0
 10
345.613948
 20
41.549743
 30
0.0
  0
VERTEX
  8
0
 10
345.241197
 20
41.263655
 30
0.0
  0
VERTEX
  8
0
 10
344.955196
 20
40.890811
 30
0.0
  0
VERTEX
  8
0
 10
344.775438
 20
40.456669
 30
0.0
  0
VERTEX
  8
0
 10
344.714173
 20
39.990776
 30
0.0
  0
VERTEX
  8
0
 10
344.775573
 20
39.524912
 30
0.0
  0
VERTEX
  8
0
 10
344.955456
 20
39.090826
 30
0.0
  0
VERTEX
  8
0
 10
345.241561
 20
38.718067
 30
0.0
  0
VERTEX
  8
0
 10
345.614394
 20
38.432063
 30
0.0
  0
VERTEX
  8
0
 10
346.048548
 20
38.252315
 30
0.0
  0
VERTEX
  8
0
 10
346.514429
 20
38.191045
 30
0.0
  0
VERTEX
  8
0
 10
346.980296
 20
38.252428
 30
0.0
  0
VERTEX
  8
0
 10
347.414396
 20
38.432317
 30
0.0
  0
VERTEX
  8
0
 10
347.787147
 20
38.718434
 30
0.0
  0
VERTEX
  8
0
 10
348.073145
 20
39.091249
 30
0.0
  0
VERTEX
  8
0
 10
348.252904
 20
39.52542
 30
0.0
  0
VERTEX
  8
0
 10
348.314171
 20
39.991284
 30
0.0
  0
VERTEX
  8
0
 10
348.252771
 20
40.457148
 30
0.0
  0
VERTEX
  8
0
 10
348.072888
 20
40.891263
 30
0.0
  0
VERTEX
  8
0
 10
347.786783
 20
41.264022
 30
0.0
  0
VERTEX
  8
0
 10
347.41395
 20
41.549997
 30
0.0
  0
VERTEX
  8
0
 10
346.979796
 20
41.729773
 30
0.0
  0
SEQEND
  8
0
  0
POLYLINE
  8
0
 62
0
 70
1
 66
1
 10
0.0
 20
0.0
 30
0.0
  0
VERTEX
  8
0
 10
365.220041
 20
41.218838
 30
0.0
  0
VERTEX
  8
0
 10
364.93404
 20
40.846022
 30
0.0
  0
VERTEX
  8
0
 10
364.754282
 20
40.41188
 30
0.0
  0
VERTEX
  8
0
 10
364.693017
 20
39.945987
 30
0.0
  0
VERTEX
  8
0
 10
364.754417
 20
39.480123
 30
0.0
  0
VERTEX
  8
0
 10
364.9343
 20
39.046009
 30
0.0
  0
VERTEX
  8
0
 10
365.220406
 20
38.673278
 30
0.0
  0
VERTEX
  8
0
 10
365.593238
 20
38.387274
 30
0.0
  0
VERTEX
  8
0
 10
366.027389
 20
38.207499
 30
0.0
  0
VERTEX
  8
0
 10
366.493273
 20
38.146228
 30
0.0
  0
VERTEX
  8
0
 10
366.95914
 20
38.20764
 30
0.0
  0
VERTEX
  8
0
 10
367.393237
 20
38.387528
 30
0.0
  0
VERTEX
  8
0
 10
367.765991
 20
38.673645
 30
0.0
  0
VERTEX
  8
0
 10
368.051989
 20
39.046461
 30
0.0
  0
VERTEX
  8
0
 10
368.231748
 20
39.480603
 30
0.0
  0
VERTEX
  8
0
 10
368.293015
 20
39.946495
 30
0.0
  0
VERTEX
  8
0
 10
368.231615
 20
40.41236
 30
0.0
  0
VERTEX
  8
0
 10
368.051732
 20
40.846474
 30
0.0
  0
VERTEX
  8
0
 10
367.765627
 20
41.219205
 30
0.0
  0
VERTEX
  8
0
 10
367.392791
 20
41.505209
 30
0.0
  0
VERTEX
  8
0
 10
366.95864
 20
41.684984
 30
0.0
  0
VERTEX
  8
0
 10
366.492759
 20
41.746255
 30
0.0
  0
VERTEX
  8
0
 10
366.026892
 20
41.684843
 30
0.0
  0
VERTEX
  8
0
 10
365.592792
 20
41.504955
 30
0.0
  0
SEQEND
  8
0
  0
POLYLINE
  8
0
 62
0
 70
1
 66
1
 10
0.0
 20
0.0
 30
0.0
  0
VERTEX
  8
0
 10
355.603816
 20
18.408424
 30
0.0
  0
VERTEX
  8
0
 10
356.037967
 20
18.228677
 30
0.0
  0
VERTEX
  8
0
 10
356.503851
 20
18.167407
 30
0.0
  0
VERTEX
  8
0
 10
356.969718
 20
18.22879
 30
0.0
  0
VERTEX
  8
0
 10
357.403818
 20
18.408678
 30
0.0
  0
VERTEX
  8
0
 10
357.776569
 20
18.694795
 30
0.0
  0
VERTEX
  8
0
 10
358.062567
 20
19.067611
 30
0.0
  0
VERTEX
  8
0
 10
358.242326
 20
19.501781
 30
0.0
  0
VERTEX
  8
0
 10
358.303593
 20
19.967646
 30
0.0
  0
VERTEX
  8
0
 10
358.242193
 20
20.43351
 30
0.0
  0
VERTEX
  8
0
 10
358.06231
 20
20.867624
 30
0.0
  0
VERTEX
  8
0
 10
357.776205
 20
21.240383
 30
0.0
  0
VERTEX
  8
0
 10
357.403369
 20
21.526359
 30
0.0
  0
VERTEX
  8
0
 10
356.969218
 20
21.706135
 30
0.0
  0
VERTEX
  8
0
 10
356.503337
 20
21.767405
 30
0.0
  0
VERTEX
  8
0
 10
356.03747
 20
21.705993
 30
0.0
  0
VERTEX
  8
0
 10
355.60337
 20
21.526105
 30
0.0
  0
VERTEX
  8
0
 10
355.230619
 20
21.240016
 30
0.0
  0
VERTEX
  8
0
 10
354.944618
 20
20.867173
 30
0.0
  0
VERTEX
  8
0
 10
354.76486
 20
20.43303
 30
0.0
  0
VERTEX
  8
0
 10
354.703595
 20
19.967138
 30
0.0
  0
VERTEX
  8
0
 10
354.764995
 20
19.501273
 30
0.0
  0
VERTEX
  8
0
 10
354.944878
 20
19.067187
 30
0.0
  0
VERTEX
  8
0
 10
355.230983
 20
18.694428
 30
0.0
  0
SEQEND
  8
0
  0
POLYLINE
  8
0
 62
0
 70
1
 66
1
 10
0.0
 20
0.0
 30
0.0
  0
VERTEX
  8
0
 10
336.949972
 20
36.478898
 30
0.0
  0
VERTEX
  8
0
 10
336.949972
 20
45.8773
 30
0.0
  0
VERTEX
  8
0
 10
326.799973
 20
45.8773
 30
0.0
  0
VERTEX
  8
0
 10
326.799973
 20
36.478898
 30
0.0
  0
SEQEND
  8
0
  0
POLYLINE
  8
0
 62
0
 70
1
 66
1
 10
0.0
 20
0.0
 30
0.0
  0
VERTEX
  8
0
 10
336.949972
 20
173.55452
 30
0.0
  0
VERTEX
  8
0
 10
326.799973
 20
173.55452
 30
0.0
  0
VERTEX
  8
0
 10
326.799973
 20
164.156203
 30
0.0
  0
VERTEX
  8
0
 10
336.949972
 20
164.14987
 30
0.0
  0
SEQEND
  8
0
  0
POLYLINE
  8
0
 62
0
 70
1
 66
1
 10
0.0
 20
0.0
 30
0.0
  0
VERTEX
  8
0
 10
39.550013
 20
351.515437
 30
0.0
  0
VERTEX
  8
0
 10
49.700012
 20
351.515437
 30
0.0
  0
VERTEX
  8
0
 10
49.700012
 20
360.913839
 30
0.0
  0
VERTEX
  8
0
 10
39.550013
 20
360.913839
 30
0.0
  0
SEQEND
  8
0
  0
POLYLINE
  8
0
 62
0
 70
1
 66
1
 10
0.0
 20
0.0
 30
0.0
  0
VERTEX
  8
0
 10
49.700012
 20
164.14987
 30
0.0
  0
VERTEX
  8
0
 10
49.700012
 20
173.55452
 30
0.0
  0
VERTEX
  8
0
 10
39.550013
 20
173.55452
 30
0.0
  0
VERTEX
  8
0
 10
39.550013
 20
164.156203
 30
0.0
  0
SEQEND
  8
0
  0
POLYLINE
  8
0
 62
0
 70
1
 66
1
 10
0.0
 20
0.0
 30
0.0
  0
VERTEX
  8
0
 10
49.700012
 20
319.2212
 30
0.0
  0
VERTEX
  8
0
 10
49.700012
 20
328.619601
 30
0.0
  0
VERTEX
  8
0
 10
39.550013
 20
328.619601
 30
0.0
  0
VERTEX
  8
0
 10
39.550013
 20
319.2212
 30
0.0
  0
SEQEND
  8
0
  0
POLYLINE
  8
0
 62
0
 70
1
 66
1
 10
0.0
 20
0.0
 30
0.0
  0
VERTEX
  8
0
 10
49.700012
 20
196.450017
 30
0.0
  0
VERTEX
  8
0
 10
49.700012
 20
205.848733
 30
0.0
  0
VERTEX
  8
0
 10
39.550013
 20
205.850024
 30
0.0
  0
VERTEX
  8
0
 10
39.550013
 20
196.450017
 30
0.0
  0
SEQEND
  8
0
  0
POLYLINE
  8
0
 62
0
 70
1
 66
1
 10
0.0
 20
0.0
 30
0.0
  0
VERTEX
  8
0
 10
336.949972
 20
351.515437
 30
0.0
  0
VERTEX
  8
0
 10
336.949972
 20
360.913839
 30
0.0
  0
VERTEX
  8
0
 10
326.799973
 20
360.913839
 30
0.0
  0
VERTEX
  8
0
 10
326.799973
 20
351.515437
 30
0.0
  0
SEQEND
  8
0
  0
POLYLINE
  8
0
 62
0
 70
1
 66
1
 10
0.0
 20
0.0
 30
0.0
  0
VERTEX
  8
0
 10
39.550013
 20
45.8773
 30
0.0
  0
VERTEX
  8
0
 10
39.550013
 20
36.478898
 30
0.0
  0
VERTEX
  8
0
 10
49.700012
 20
36.478898
 30
0.0
  0
VERTEX
  8
0
 10
49.700012
 20
45.8773
 30
0.0
  0
SEQEND
  8
0
  0
POLYLINE
  8
0
 62
0
 70
1
 66
1
 10
0.0
 20
0.0
 30
0.0
  0
VERTEX
  8
0
 10
326.799973
 20
328.619601
 30
0.0
  0
VERTEX
  8
0
 10
326.799973
 20
319.2212
 30
0.0
  0
VERTEX
  8
0
 10
336.949972
 20
319.2212
 30
0.0
  0
VERTEX
  8
0
 10
336.949972
 20
328.619601
 30
0.0
  0
SEQEND
  8
0
  0
POLYLINE
  8
0
 62
0
 70
1
 66
1
 10
0.0
 20
0.0
 30
0.0
  0
VERTEX
  8
0
 10
326.799973
 20
205.850024
 30
0.0
  0
VERTEX
  8
0
 10
326.799973
 20
196.450017
 30
0.0
  0
VERTEX
  8
0
 10
336.949972
 20
196.450017
 30
0.0
  0
VERTEX
  8
0
 10
336.949972
 20
205.848733
 30
0.0
  0
SEQEND
  8
0
  0
POLYLINE
  8
0
 62
0
 70
1
 66
1
 10
0.0
 20
0.0
 30
0.0
  0
VERTEX
  8
0
 10
29.122681
 20
361.572189
 30
0.0
  0
VERTEX
  8
0
 10
28.749922
 20
361.286101
 30
0.0
  0
VERTEX
  8
0
 10
28.463918
 20
360.913257
 30
0.0
  0
VERTEX
  8
0
 10
28.28417
 20
360.479114
 30
0.0
  0
VERTEX
  8
0
 10
28.2229
 20
360.013222
 30
0.0
  0
VERTEX
  8
0
 10
28.284311
 20
359.547358
 30
0.0
  0
VERTEX
  8
0
 10
28.464172
 20
359.113243
 30
0.0
  0
VERTEX
  8
0
 10
28.750289
 20
358.740513
 30
0.0
  0
VERTEX
  8
0
 10
29.123132
 20
358.454509
 30
0.0
  0
VERTEX
  8
0
 10
29.557275
 20
358.274761
 30
0.0
  0
VERTEX
  8
0
 10
30.023167
 20
358.213491
 30
0.0
  0
VERTEX
  8
0
 10
30.489031
 20
358.274874
 30
0.0
  0
VERTEX
  8
0
 10
30.923117
 20
358.454763
 30
0.0
  0
VERTEX
  8
0
 10
31.295877
 20
358.740879
 30
0.0
  0
VERTEX
  8
0
 10
31.581881
 20
359.113695
 30
0.0
  0
VERTEX
  8
0
 10
31.761628
 20
359.547866
 30
0.0
  0
VERTEX
  8
0
 10
31.822898
 20
360.01373
 30
0.0
  0
VERTEX
  8
0
 10
31.761487
 20
360.479594
 30
0.0
  0
VERTEX
  8
0
 10
31.581627
 20
360.913708
 30
0.0
  0
VERTEX
  8
0
 10
31.29551
 20
361.286467
 30
0.0
  0
VERTEX
  8
0
 10
30.922666
 20
361.572443
 30
0.0
  0
VERTEX
  8
0
 10
30.488523
 20
361.752219
 30
0.0
  0
VERTEX
  8
0
 10
30.022631
 20
361.813489
 30
0.0
  0
VERTEX
  8
0
 10
29.556767
 20
361.752078
 30
0.0
  0
SEQEND
  8
0
  0
POLYLINE
  8
0
 62
0
 70
1
 66
1
 10
0.0
 20
0.0
 30
0.0
  0
VERTEX
  8
0
 10
44.649983
 20
341.795044
 30
0.0
  0
VERTEX
  8
0
 10
44.184119
 20
341.733632
 30
0.0
  0
VERTEX
  8
0
 10
43.750005
 20
341.553744
 30
0.0
  0
VERTEX
  8
0
 10
43.377245
 20
341.267655
 30
0.0
  0
VERTEX
  8
0
 10
43.09127
 20
340.894811
 30
0.0
  0
VERTEX
  8
0
 10
42.911494
 20
340.460669
 30
0.0
  0
VERTEX
  8
0
 10
42.850224
 20
339.994776
 30
0.0
  0
VERTEX
  8
0
 10
42.911635
 20
339.528912
 30
0.0
  0
VERTEX
  8
0
 10
43.091524
 20
339.094798
 30
0.0
  0
VERTEX
  8
0
 10
43.377612
 20
338.722067
 30
0.0
  0
VERTEX
  8
0
 10
43.750456
 20
338.436063
 30
0.0
  0
VERTEX
  8
0
 10
44.184599
 20
338.256287
 30
0.0
  0
VERTEX
  8
0
 10
44.650491
 20
338.195045
 30
0.0
  0
VERTEX
  8
0
 10
45.116355
 20
338.256429
 30
0.0
  0
VERTEX
  8
0
 10
45.550441
 20
338.436317
 30
0.0
  0
VERTEX
  8
0
 10
45.9232
 20
338.722434
 30
0.0
  0
VERTEX
  8
0
 10
46.209204
 20
339.095249
 30
0.0
  0
VERTEX
  8
0
 10
46.388952
 20
339.52942
 30
0.0
  0
VERTEX
  8
0
 10
46.450222
 20
339.995284
 30
0.0
  0
VERTEX
  8
0
 10
46.388839
 20
340.461149
 30
0.0
  0
VERTEX
  8
0
 10
46.20895
 20
340.895263
 30
0.0
  0
VERTEX
  8
0
 10
45.922833
 20
341.267994
 30
0.0
  0
VERTEX
  8
0
 10
45.550018
 20
341.553998
 30
0.0
  0
VERTEX
  8
0
 10
45.115847
 20
341.733773
 30
0.0
  0
SEQEND
  8
0
  0
POLYLINE
  8
0
 62
0
 70
1
 66
1
 10
0.0
 20
0.0
 30
0.0
  0
VERTEX
  8
0
 10
31.721468
 20
39.555053
 30
0.0
  0
VERTEX
  8
0
 10
31.782738
 20
40.020946
 30
0.0
  0
VERTEX
  8
0
 10
31.721327
 20
40.48681
 30
0.0
  0
VERTEX
  8
0
 10
31.541466
 20
40.920924
 30
0.0
  0
VERTEX
  8
0
 10
31.255349
 20
41.293655
 30
0.0
  0
VERTEX
  8
0
 10
30.882506
 20
41.579659
 30
0.0
  0
VERTEX
  8
0
 10
30.448363
 20
41.759435
 30
0.0
  0
VERTEX
  8
0
 10
29.982471
 20
41.820677
 30
0.0
  0
VERTEX
  8
0
 10
29.516607
 20
41.759293
 30
0.0
  0
VERTEX
  8
0
 10
29.082521
 20
41.579405
 30
0.0
  0
VERTEX
  8
0
 10
28.709761
 20
41.293288
 30
0.0
  0
VERTEX
  8
0
 10
28.423757
 20
40.920473
 30
0.0
  0
VERTEX
  8
0
 10
28.24401
 20
40.486302
 30
0.0
  0
VERTEX
  8
0
 10
28.18274
 20
40.020438
 30
0.0
  0
VERTEX
  8
0
 10
28.244151
 20
39.554573
 30
0.0
  0
VERTEX
  8
0
 10
28.424011
 20
39.120459
 30
0.0
  0
VERTEX
  8
0
 10
28.710128
 20
38.747728
 30
0.0
  0
VERTEX
  8
0
 10
29.082972
 20
38.461724
 30
0.0
  0
VERTEX
  8
0
 10
29.517115
 20
38.281949
 30
0.0
  0
VERTEX
  8
0
 10
29.983007
 20
38.220678
 30
0.0
  0
VERTEX
  8
0
 10
30.448871
 20
38.28209
 30
0.0
  0
VERTEX
  8
0
 10
30.882957
 20
38.461978
 30
0.0
  0
VERTEX
  8
0
 10
31.255716
 20
38.748067
 30
0.0
  0
VERTEX
  8
0
 10
31.54172
 20
39.120911
 30
0.0
  0
SEQEND
  8
0
  0
POLYLINE
  8
0
 62
0
 70
1
 66
1
 10
0.0
 20
0.0
 30
0.0
  0
VERTEX
  8
0
 10
18.702839
 20
21.279443
 30
0.0
  0
VERTEX
  8
0
 10
18.416863
 20
20.906627
 30
0.0
  0
VERTEX
  8
0
 10
18.237087
 20
20.472485
 30
0.0
  0
VERTEX
  8
0
 10
18.175817
 20
20.006592
 30
0.0
  0
VERTEX
  8
0
 10
18.237229
 20
19.540728
 30
0.0
  0
VERTEX
  8
0
 10
18.417117
 20
19.106614
 30
0.0
  0
VERTEX
  8
0
 10
18.703206
 20
18.733883
 30
0.0
  0
VERTEX
  8
0
 10
19.076049
 20
18.447879
 30
0.0
  0
VERTEX
  8
0
 10
19.510192
 20
18.268103
 30
0.0
  0
VERTEX
  8
0
 10
19.976084
 20
18.206833
 30
0.0
  0
VERTEX
  8
0
 10
20.441949
 20
18.268245
 30
0.0
  0
VERTEX
  8
0
 10
20.876035
 20
18.448133
 30
0.0
  0
VERTEX
  8
0
 10
21.248794
 20
18.734222
 30
0.0
  0
VERTEX
  8
0
 10
21.534798
 20
19.107065
 30
0.0
  0
VERTEX
  8
0
 10
21.714545
 20
19.541208
 30
0.0
  0
VERTEX
  8
0
 10
21.775815
 20
20.0071
 30
0.0
  0
VERTEX
  8
0
 10
21.714432
 20
20.472965
 30
0.0
  0
VERTEX
  8
0
 10
21.534544
 20
20.907079
 30
0.0
  0
VERTEX
  8
0
 10
21.248427
 20
21.27981
 30
0.0
  0
VERTEX
  8
0
 10
20.875611
 20
21.565814
 30
0.0
  0
VERTEX
  8
0
 10
20.441441
 20
21.745589
 30
0.0
  0
VERTEX
  8
0
 10
19.975576
 20
21.806831
 30
0.0
  0
VERTEX
  8
0
 10
19.509712
 20
21.745448
 30
0.0
  0
VERTEX
  8
0
 10
19.075598
 20
21.56556
 30
0.0
  0
SEQEND
  8
0
  0
POLYLINE
  8
0
 62
0
 70
1
 66
1
 10
0.0
 20
0.0
 30
0.0
  0
VERTEX
  8
0
 10
330.075693
 20
25.000007
 30
0.0
  0
VERTEX
  8
0
 10
330.137003
 20
24.534312
 30
0.0
  0
VERTEX
  8
0
 10
330.31675
 20
24.100367
 30
0.0
  0
VERTEX
  8
0
 10
330.602689
 20
23.727721
 30
0.0
  0
VERTEX
  8
0
 10
330.975333
 20
23.441773
 30
0.0
  0
VERTEX
  8
0
 10
331.409283
 20
23.262026
 30
0.0
  0
VERTEX
  8
0
 10
331.874972
 20
23.200727
 30
0.0
  0
VERTEX
  8
0
 10
332.340659
 20
23.262026
 30
0.0
  0
VERTEX
  8
0
 10
332.774609
 20
23.441773
 30
0.0
  0
VERTEX
  8
0
 10
333.147253
 20
23.727721
 30
0.0
  0
VERTEX
  8
0
 10
333.433192
 20
24.100367
 30
0.0
  0
VERTEX
  8
0
 10
333.612939
 20
24.534312
 30
0.0
  0
VERTEX
  8
0
 10
333.674249
 20
25.000007
 30
0.0
  0
VERTEX
  8
0
 10
333.612939
 20
25.465701
 30
0.0
  0
VERTEX
  8
0
 10
333.433192
 20
25.899646
 30
0.0
  0
VERTEX
  8
0
 10
333.147253
 20
26.272293
 30
0.0
  0
VERTEX
  8
0
 10
332.774609
 20
26.558212
 30
0.0
  0
VERTEX
  8
0
 10
332.340659
 20
26.737959
 30
0.0
  0
VERTEX
  8
0
 10
331.874972
 20
26.799286
 30
0.0
  0
VERTEX
  8
0
 10
331.409283
 20
26.737959
 30
0.0
  0
VERTEX
  8
0
 10
330.975333
 20
26.558212
 30
0.0
  0
VERTEX
  8
0
 10
330.602689
 20
26.272293
 30
0.0
  0
VERTEX
  8
0
 10
330.31675
 20
25.899646
 30
0.0
  0
VERTEX
  8
0
 10
330.137003
 20
25.465701
 30
0.0
  0
SEQEND
  8
0
  0
POLYLINE
  8
0
 62
0
 70
1
 66
1
 10
0.0
 20
0.0
 30
0.0
  0
VERTEX
  8
0
 10
11.707622
 20
39.555053
 30
0.0
  0
VERTEX
  8
0
 10
11.768893
 20
40.020946
 30
0.0
  0
VERTEX
  8
0
 10
11.707509
 20
40.48681
 30
0.0
  0
VERTEX
  8
0
 10
11.527621
 20
40.920924
 30
0.0
  0
VERTEX
  8
0
 10
11.241504
 20
41.293655
 30
0.0
  0
VERTEX
  8
0
 10
10.868689
 20
41.579659
 30
0.0
  0
VERTEX
  8
0
 10
10.434518
 20
41.759435
 30
0.0
  0
VERTEX
  8
0
 10
9.968654
 20
41.820677
 30
0.0
  0
VERTEX
  8
0
 10
9.502789
 20
41.759293
 30
0.0
  0
VERTEX
  8
0
 10
9.068675
 20
41.579405
 30
0.0
  0
VERTEX
  8
0
 10
8.695916
 20
41.293288
 30
0.0
  0
VERTEX
  8
0
 10
8.40994
 20
40.920473
 30
0.0
  0
VERTEX
  8
0
 10
8.230165
 20
40.486302
 30
0.0
  0
VERTEX
  8
0
 10
8.168894
 20
40.020438
 30
0.0
  0
VERTEX
  8
0
 10
8.230306
 20
39.554573
 30
0.0
  0
VERTEX
  8
0
 10
8.410194
 20
39.120459
 30
0.0
  0
VERTEX
  8
0
 10
8.696283
 20
38.747728
 30
0.0
  0
VERTEX
  8
0
 10
9.069127
 20
38.461724
 30
0.0
  0
VERTEX
  8
0
 10
9.503269
 20
38.281949
 30
0.0
  0
VERTEX
  8
0
 10
9.969162
 20
38.220678
 30
0.0
  0
VERTEX
  8
0
 10
10.435026
 20
38.28209
 30
0.0
  0
VERTEX
  8
0
 10
10.869112
 20
38.461978
 30
0.0
  0
VERTEX
  8
0
 10
11.241871
 20
38.748067
 30
0.0
  0
VERTEX
  8
0
 10
11.527875
 20
39.120911
 30
0.0
  0
SEQEND
  8
0
  0
POLYLINE
  8
0
 62
0
 70
1
 66
1
 10
0.0
 20
0.0
 30
0.0
  0
VERTEX
  8
0
 10
371.534838
 20
369.999994
 30
0.0
  0
VERTEX
  8
0
 10
376.499966
 20
365.000004
 30
0.0
  0
VERTEX
  8
0
 10
376.499966
 20
5.000018
 30
0.0
  0
VERTEX
  8
0
 10
371.499968
 20
0.0
 30
0.0
  0
VERTEX
  8
0
 10
351.499969
 20
0.0
 30
0.0
  0
VERTEX
  8
0
 10
349.49997
 20
1.999996
 30
0.0
  0
VERTEX
  8
0
 10
27.000003
 20
1.999996
 30
0.0
  0
VERTEX
  8
0
 10
25.000007
 20
1.11022302463e-16
 30
0.0
  0
VERTEX
  8
0
 10
5.000019
 20
0.0
 30
0.0
  0
VERTEX
  8
0
 10
0.0
 20
4.808248
 30
0.0
  0
VERTEX
  8
0
 10
0.0
 20
365.000004
 30
0.0
  0
VERTEX
  8
0
 10
4.965475
 20
369.999994
 30
0.0
  0
SEQEND
  8
0
  0
POLYLINE
  8
0018
 62
0
 70
1
 66
1
 10
0.0
 20
0.0
 30
0.0
  0
VERTEX
  8
0018
 10
410.223272
 20
13.863722
 30
0.0
  0
VERTEX
  8
0018
 10
409.258549
 20
13.464123
 30
0.0
  0
VERTEX
  8
0018
 10
408.430122
 20
12.828446
 30
0.0
  0
VERTEX
  8
0018
 10
407.794447
 20
12.000011
 30
0.0
  0
VERTEX
  8
0018
 10
407.394846
 20
11.035291
 30
0.0
  0
VERTEX
  8
0018
 10
407.258547
 20
10.000015
 30
0.0
  0
VERTEX
  8
0018
 10
407.394846
 20
8.964739
 30
0.0
  0
VERTEX
  8
0018
 10
407.794447
 20
8.000019
 30
0.0
  0
VERTEX
  8
0018
 10
408.430122
 20
7.171584
 30
0.0
  0
VERTEX
  8
0018
 10
409.258549
 20
6.535906
 30
0.0
  0
VERTEX
  8
0018
 10
410.223272
 20
6.136308
 30
0.0
  0
VERTEX
  8
0018
 10
411.258547
 20
6.000023
 30
0.0
  0
VERTEX
  8
0018
 10
419.321377
 20
6.000023
 30
0.0
  0
VERTEX
  8
0018
 10
420.289793
 20
6.136308
 30
0.0
  0
VERTEX
  8
0018
 10
421.254516
 20
6.535906
 30
0.0
  0
VERTEX
  8
0018
 10
422.082943
 20
7.171584
 30
0.0
  0
VERTEX
  8
0018
 10
422.718617
 20
8.000019
 30
0.0
  0
VERTEX
  8
0018
 10
423.118218
 20
8.964739
 30
0.0
  0
VERTEX
  8
0018
 10
423.254515
 20
10.000015
 30
0.0
  0
VERTEX
  8
0018
 10
423.118218
 20
11.035291
 30
0.0
  0
VERTEX
  8
0018
 10
422.718617
 20
12.000011
 30
0.0
  0
VERTEX
  8
0018
 10
422.082943
 20
12.828446
 30
0.0
  0
VERTEX
  8
0018
 10
421.254516
 20
13.464123
 30
0.0
  0
VERTEX
  8
0018
 10
420.289793
 20
13.863722
 30
0.0
  0
VERTEX
  8
0018
 10
419.254518
 20
14.000007
 30
0.0
  0
VERTEX
  8
0018
 10
411.258547
 20
14.000007
 30
0.0
  0
SEQEND
  8
0018
  0
CIRCLE
  8
0057
 62
0
 10
280.072792
 20
157.202484
 30
0.0
 40
1.5
  0
CIRCLE
  8
0054
 62
0
 10
90.072825
 20
244.293248
 30
0.0
 40
1.5
  0
CIRCLE
  8
0055
 62
0
 10
90.072825
 20
227.307669
 30
0.0
 40
1.5
  0
CIRCLE
  8
0058
 62
0
 10
260.072804
 20
227.307669
 30
0.0
 40
1.5
  0
CIRCLE
  8
0056
 62
0
 10
90.072825
 20
157.202484
 30
0.0
 40
1.5
  0
CIRCLE
  8
0014
 62
0
 10
574.234961
 20
243.304924
 30
0.0
 40
1.6
  0
CIRCLE
  8
0015
 62
0
 10
516.279787
 20
265.326027
 30
0.0
 40
1.6
  0
CIRCLE
  8
0010
 62
0
 10
459.316443
 20
355.0
 30
0.0
 40
4.4
  0
POLYLINE
  8
0019
 62
0
 70
1
 66
1
 10
0.0
 20
0.0
 30
0.0
  0
VERTEX
  8
0019
 10
569.12164
 20
5.000025
 30
0.0
  0
VERTEX
  8
0019
 10
564.12165
 20
7.00000000005e-06
 30
0.0
  0
VERTEX
  8
0019
 10
544.121637
 20
7e-06
 30
0.0
  0
VERTEX
  8
0019
 10
542.121638
 20
2.000031
 30
0.0
  0
VERTEX
  8
0019
 10
391.32165
 20
2.000031
 30
0.0
  0
VERTEX
  8
0019
 10
391.32165
 20
22.794446
 30
0.0
  0
VERTEX
  8
0019
 10
403.321649
 20
22.794446
 30
0.0
  0
VERTEX
  8
0019
 10
403.321649
 20
20.994461
 30
0.0
  0
VERTEX
  8
0019
 10
408.42165
 20
20.994461
 30
0.0
  0
VERTEX
  8
0019
 10
408.42165
 20
22.794446
 30
0.0
  0
VERTEX
  8
0019
 10
412.42165
 20
22.794446
 30
0.0
  0
VERTEX
  8
0019
 10
412.42165
 20
27.19446
 30
0.0
  0
VERTEX
  8
0019
 10
408.42165
 20
27.19446
 30
0.0
  0
VERTEX
  8
0019
 10
408.42165
 20
28.994445
 30
0.0
  0
VERTEX
  8
0019
 10
403.321649
 20
28.994445
 30
0.0
  0
VERTEX
  8
0019
 10
403.321649
 20
27.19446
 30
0.0
  0
VERTEX
  8
0019
 10
391.32165
 20
27.19446
 30
0.0
  0
VERTEX
  8
0019
 10
391.32165
 20
36.749968
 30
0.0
  0
VERTEX
  8
0019
 10
381.97165
 20
36.749968
 30
0.0
  0
VERTEX
  8
0019
 10
381.97165
 20
45.549968
 30
0.0
  0
VERTEX
  8
0019
 10
391.32165
 20
45.549968
 30
0.0
  0
VERTEX
  8
0019
 10
391.32165
 20
164.449992
 30
0.0
  0
VERTEX
  8
0019
 10
381.97165
 20
164.449992
 30
0.0
  0
VERTEX
  8
0019
 10
381.97165
 20
173.249992
 30
0.0
  0
VERTEX
  8
0019
 10
391.32165
 20
173.249992
 30
0.0
  0
VERTEX
  8
0019
 10
391.32165
 20
182.800025
 30
0.0
  0
VERTEX
  8
0019
 10
403.321649
 20
182.800025
 30
0.0
  0
VERTEX
  8
0019
 10
403.321649
 20
181.00004
 30
0.0
  0
VERTEX
  8
0019
 10
408.42165
 20
181.00004
 30
0.0
  0
VERTEX
  8
0019
 10
408.42165
 20
182.800025
 30
0.0
  0
VERTEX
  8
0019
 10
412.42165
 20
182.800025
 30
0.0
  0
VERTEX
  8
0019
 10
412.42165
 20
187.200039
 30
0.0
  0
VERTEX
  8
0019
 10
408.42165
 20
187.200039
 30
0.0
  0
VERTEX
  8
0019
 10
408.42165
 20
189.000024
 30
0.0
  0
VERTEX
  8
0019
 10
403.321649
 20
189.000024
 30
0.0
  0
VERTEX
  8
0019
 10
403.321649
 20
187.200039
 30
0.0
  0
VERTEX
  8
0019
 10
391.32165
 20
187.200039
 30
0.0
  0
VERTEX
  8
0019
 10
391.32165
 20
196.750015
 30
0.0
  0
VERTEX
  8
0019
 10
381.97165
 20
196.750015
 30
0.0
  0
VERTEX
  8
0019
 10
381.97165
 20
205.550015
 30
0.0
  0
VERTEX
  8
0019
 10
391.32165
 20
205.550015
 30
0.0
  0
VERTEX
  8
0019
 10
391.32165
 20
319.542787
 30
0.0
  0
VERTEX
  8
0019
 10
381.97165
 20
319.542787
 30
0.0
  0
VERTEX
  8
0019
 10
381.97165
 20
328.342787
 30
0.0
  0
VERTEX
  8
0019
 10
391.32165
 20
328.342787
 30
0.0
  0
VERTEX
  8
0019
 10
391.32165
 20
337.884974
 30
0.0
  0
VERTEX
  8
0019
 10
403.321649
 20
337.884974
 30
0.0
  0
VERTEX
  8
0019
 10
403.321649
 20
336.084989
 30
0.0
  0
VERTEX
  8
0019
 10
408.42165
 20
336.084989
 30
0.0
  0
VERTEX
  8
0019
 10
408.42165
 20
337.884974
 30
0.0
  0
VERTEX
  8
0019
 10
412.42165
 20
337.884974
 30
0.0
  0
VERTEX
  8
0019
 10
412.42165
 20
342.284988
 30
0.0
  0
VERTEX
  8
0019
 10
408.42165
 20
342.284988
 30
0.0
  0
VERTEX
  8
0019
 10
408.42165
 20
344.084973
 30
0.0
  0
VERTEX
  8
0019
 10
403.321649
 20
344.084973
 30
0.0
  0
VERTEX
  8
0019
 10
403.321649
 20
342.284988
 30
0.0
  0
VERTEX
  8
0019
 10
391.32165
 20
342.284988
 30
0.0
  0
VERTEX
  8
0019
 10
391.32165
 20
351.842782
 30
0.0
  0
VERTEX
  8
0019
 10
381.97165
 20
351.842782
 30
0.0
  0
VERTEX
  8
0019
 10
381.97165
 20
360.642781
 30
0.0
  0
VERTEX
  8
0019
 10
391.32165
 20
360.642781
 30
0.0
  0
VERTEX
  8
0019
 10
391.32165
 20
370.0
 30
0.0
  0
VERTEX
  8
0019
 10
416.72165
 20
370.0
 30
0.0
  0
VERTEX
  8
0019
 10
569.12164
 20
47.000025
 30
0.0
  0
SEQEND
  8
0019
  0
CIRCLE
  8
0004
 62
0
 10
592.31644
 20
120.0
 30
0.0
 40
1.5
  0
POLYLINE
  8
0003
 62
0
 70
1
 66
1
 10
0.0
 20
0.0
 30
0.0
  0
VERTEX
  8
0003
 10
444.515748
 20
323.000009
 30
0.0
  0
VERTEX
  8
0003
 10
444.515748
 20
364.999982
 30
0.0
  0
VERTEX
  8
0003
 10
449.51575
 20
370.0
 30
0.0
  0
VERTEX
  8
0003
 10
469.515746
 20
370.0
 30
0.0
  0
VERTEX
  8
0003
 10
471.515748
 20
368.000004
 30
0.0
  0
VERTEX
  8
0003
 10
622.315751
 20
368.000004
 30
0.0
  0
VERTEX
  8
0003
 10
622.315751
 20
347.20556
 30
0.0
  0
VERTEX
  8
0003
 10
610.315719
 20
347.20556
 30
0.0
  0
VERTEX
  8
0003
 10
610.315719
 20
349.005545
 30
0.0
  0
VERTEX
  8
0003
 10
605.215737
 20
349.005545
 30
0.0
  0
VERTEX
  8
0003
 10
605.215737
 20
347.20556
 30
0.0
  0
VERTEX
  8
0003
 10
601.215745
 20
347.20556
 30
0.0
  0
VERTEX
  8
0003
 10
601.215745
 20
342.805546
 30
0.0
  0
VERTEX
  8
0003
 10
605.215737
 20
342.805546
 30
0.0
  0
VERTEX
  8
0003
 10
605.215737
 20
341.005561
 30
0.0
  0
VERTEX
  8
0003
 10
610.315719
 20
341.005561
 30
0.0
  0
VERTEX
  8
0003
 10
610.315719
 20
342.805546
 30
0.0
  0
VERTEX
  8
0003
 10
622.315751
 20
342.805546
 30
0.0
  0
VERTEX
  8
0003
 10
622.315751
 20
333.250066
 30
0.0
  0
VERTEX
  8
0003
 10
631.665768
 20
333.250066
 30
0.0
  0
VERTEX
  8
0003
 10
631.665768
 20
324.450067
 30
0.0
  0
VERTEX
  8
0003
 10
622.315751
 20
324.450067
 30
0.0
  0
VERTEX
  8
0003
 10
622.315751
 20
205.550014
 30
0.0
  0
VERTEX
  8
0003
 10
631.665768
 20
205.550014
 30
0.0
  0
VERTEX
  8
0003
 10
631.665768
 20
196.750015
 30
0.0
  0
VERTEX
  8
0003
 10
622.315751
 20
196.750015
 30
0.0
  0
VERTEX
  8
0003
 10
622.315751
 20
187.20001
 30
0.0
  0
VERTEX
  8
0003
 10
610.315719
 20
187.20001
 30
0.0
  0
VERTEX
  8
0003
 10
610.315719
 20
188.999995
 30
0.0
  0
VERTEX
  8
0003
 10
605.215737
 20
188.999995
 30
0.0
  0
VERTEX
  8
0003
 10
605.215737
 20
187.20001
 30
0.0
  0
VERTEX
  8
0003
 10
601.215745
 20
187.20001
 30
0.0
  0
VERTEX
  8
0003
 10
601.215745
 20
182.799996
 30
0.0
  0
VERTEX
  8
0003
 10
605.215737
 20
182.799996
 30
0.0
  0
VERTEX
  8
0003
 10
605.215737
 20
181.000011
 30
0.0
  0
VERTEX
  8
0003
 10
610.315719
 20
181.000011
 30
0.0
  0
VERTEX
  8
0003
 10
610.315719
 20
182.799996
 30
0.0
  0
VERTEX
  8
0003
 10
622.315751
 20
182.799996
 30
0.0
  0
VERTEX
  8
0003
 10
622.315751
 20
173.249991
 30
0.0
  0
VERTEX
  8
0003
 10
631.665768
 20
173.249991
 30
0.0
  0
VERTEX
  8
0003
 10
631.665768
 20
164.449992
 30
0.0
  0
VERTEX
  8
0003
 10
622.315751
 20
164.449992
 30
0.0
  0
VERTEX
  8
0003
 10
622.315751
 20
50.457219
 30
0.0
  0
VERTEX
  8
0003
 10
631.665768
 20
50.457219
 30
0.0
  0
VERTEX
  8
0003
 10
631.665768
 20
41.65722
 30
0.0
  0
VERTEX
  8
0003
 10
622.315751
 20
41.65722
 30
0.0
  0
VERTEX
  8
0003
 10
622.315751
 20
32.115032
 30
0.0
  0
VERTEX
  8
0003
 10
610.315719
 20
32.115032
 30
0.0
  0
VERTEX
  8
0003
 10
610.315719
 20
33.915017
 30
0.0
  0
VERTEX
  8
0003
 10
605.215737
 20
33.915017
 30
0.0
  0
VERTEX
  8
0003
 10
605.215737
 20
32.115032
 30
0.0
  0
VERTEX
  8
0003
 10
601.215745
 20
32.115032
 30
0.0
  0
VERTEX
  8
0003
 10
601.215745
 20
27.715019
 30
0.0
  0
VERTEX
  8
0003
 10
605.215737
 20
27.715019
 30
0.0
  0
VERTEX
  8
0003
 10
605.215737
 20
25.915033
 30
0.0
  0
VERTEX
  8
0003
 10
610.315719
 20
25.915033
 30
0.0
  0
VERTEX
  8
0003
 10
610.315719
 20
27.715019
 30
0.0
  0
VERTEX
  8
0003
 10
622.315751
 20
27.715019
 30
0.0
  0
VERTEX
  8
0003
 10
622.315751
 20
18.157224
 30
0.0
  0
VERTEX
  8
0003
 10
631.665768
 20
18.157224
 30
0.0
  0
VERTEX
  8
0003
 10
631.665768
 20
9.357225
 30
0.0
  0
VERTEX
  8
0003
 10
622.315751
 20
9.357225
 30
0.0
  0
VERTEX
  8
0003
 10
622.315751
 20
6.00000000042e-06
 30
0.0
  0
VERTEX
  8
0003
 10
596.915751
 20
6e-06
 30
0.0
  0
SEQEND
  8
0003
  0
CIRCLE
  8
0008
 62
0
 10
582.833363
 20
183.137256
 30
0.0
 40
1.5875
  0
POLYLINE
  8
0017
 62
0
 70
1
 66
1
 10
0.0
 20
0.0
 30
0.0
  0
VERTEX
  8
0017
 10
447.218131
 20
12.000007
 30
0.0
  0
VERTEX
  8
0017
 10
447.218131
 20
8.000023
 30
0.0
 42
0.414213562373
  0
VERTEX
  8
0017
 10
449.218131
 20
6.000023
 30
0.0
  0
VERTEX
  8
0017
 10
491.307954
 20
6.000023
 30
0.0
 42
0.414213562373
  0
VERTEX
  8
0017
 10
493.307954
 20
8.000023
 30
0.0
  0
VERTEX
  8
0017
 10
493.307954
 20
12.000007
 30
0.0
 42
0.414213562373
  0
VERTEX
  8
0017
 10
491.307954
 20
14.000007
 30
0.0
  0
VERTEX
  8
0017
 10
449.218131
 20
14.000007
 30
0.0
 42
0.414213562373
  0
SEQEND
  8
0017
  0
CIRCLE
  8
0020
 62
0
 10
402.307952
 20
237.500004
 30
0.0
 40
1.5
  0
CIRCLE
  8
0021
 62
0
 10
500.307952
 20
42.5
 30
0.0
 40
1.5
  0
CIRCLE
  8
0053
 62
0
 10
90.072825
 20
174.188064
 30
0.0
 40
1.5
  0
CIRCLE
  8
0013
 62
0
 10
564.556051
 20
341.980521
 30
0.0
 40
1.6
  0
CIRCLE
  8
0011
 62
0
 10
564.543778
 20
267.054676
 30
0.0
 40
1.6
  0
CIRCLE
  8
0016
 62
0
 10
516.301248
 20
348.35789
 30
0.0
 40
1.6
  0
CIRCLE
  8
0012
 62
0
 10
506.265936
 20
243.334012
 30
0.0
 40
1.6
  0
POLYLINE
  8
0002
 62
0
 70
1
 66
1
 10
0.0
 20
0.0
 30
0.0
  0
VERTEX
  8
0002
 10
594.316005
 20
363.999984
 30
0.0
  0
VERTEX
  8
0002
 10
593.347587
 20
363.863699
 30
0.0
  0
VERTEX
  8
0002
 10
592.382867
 20
363.4641
 30
0.0
  0
VERTEX
  8
0002
 10
591.554432
 20
362.828423
 30
0.0
  0
VERTEX
  8
0002
 10
590.918783
 20
361.999988
 30
0.0
  0
VERTEX
  8
0002
 10
590.519156
 20
361.035267
 30
0.0
  0
VERTEX
  8
0002
 10
590.382871
 20
359.999992
 30
0.0
  0
VERTEX
  8
0002
 10
590.519156
 20
358.964716
 30
0.0
  0
VERTEX
  8
0002
 10
590.918783
 20
357.999996
 30
0.0
  0
VERTEX
  8
0002
 10
591.554432
 20
357.171561
 30
0.0
  0
VERTEX
  8
0002
 10
592.382867
 20
356.535883
 30
0.0
  0
VERTEX
  8
0002
 10
593.347587
 20
356.136285
 30
0.0
  0
VERTEX
  8
0002
 10
594.382863
 20
356.0
 30
0.0
  0
VERTEX
  8
0002
 10
602.37884
 20
356.0
 30
0.0
  0
VERTEX
  8
0002
 10
603.414115
 20
356.136285
 30
0.0
  0
VERTEX
  8
0002
 10
604.378864
 20
356.535883
 30
0.0
  0
VERTEX
  8
0002
 10
605.207271
 20
357.171561
 30
0.0
  0
VERTEX
  8
0002
 10
605.842948
 20
357.999996
 30
0.0
  0
VERTEX
  8
0002
 10
606.242547
 20
358.964716
 30
0.0
  0
VERTEX
  8
0002
 10
606.37886
 20
359.999992
 30
0.0
  0
VERTEX
  8
0002
 10
606.242547
 20
361.035267
 30
0.0
  0
VERTEX
  8
0002
 10
605.842948
 20
361.999988
 30
0.0
  0
VERTEX
  8
0002
 10
605.207271
 20
362.828423
 30
0.0
  0
VERTEX
  8
0002
 10
604.378864
 20
363.4641
 30
0.0
  0
VERTEX
  8
0002
 10
603.414115
 20
363.863699
 30
0.0
  0
VERTEX
  8
0002
 10
602.378811
 20
363.999984
 30
0.0
  0
SEQEND
  8
0002
  0
POLYLINE
  8
0001
 62
0
 70
1
 66
1
 10
0.0
 20
0.0
 30
0.0
  0
VERTEX
  8
0001
 10
522.316438
 20
356.0
 30
0.0
  0
VERTEX
  8
0001
 10
564.316439
 20
356.0
 30
0.0
 42
0.414213562373
  0
VERTEX
  8
0001
 10
566.316439
 20
358.0
 30
0.0
  0
VERTEX
  8
0001
 10
566.316439
 20
362.0
 30
0.0
 42
0.414213562373
  0
VERTEX
  8
0001
 10
564.316439
 20
364.0
 30
0.0
  0
VERTEX
  8
0001
 10
522.316438
 20
364.0
 30
0.0
 42
0.414213562373
  0
VERTEX
  8
0001
 10
520.316438
 20
362.0
 30
0.0
  0
VERTEX
  8
0001
 10
520.316438
 20
358.0
 30
0.0
 42
0.414213562373
  0
SEQEND
  8
0001
  0
CIRCLE
  8
0005
 62
0
 10
617.31644
 20
119.999996
 30
0.0
 40
1.5
  0
CIRCLE
  8
0006
 62
0
 10
600.31644
 20
8.999995
 30
0.0
 40
1.75
  0
CIRCLE
  8
0007
 62
0
 10
534.573363
 20
184.407256
 30
0.0
 40
1.5875
  0
CIRCLE
  8
0009
 62
0
 10
459.316443
 20
335.000001
 30
0.0
 40
4.4
  0
CIRCLE
  8
0022
 62
0
 10
554.307948
 20
34.999999
 30
0.0
 40
4.4
  0
CIRCLE
  8
0023
 62
0
 10
554.307948
 20
15.0
 30
0.0
 40
4.4
  0
POLYLINE
  8
0035
 62
0
 70
1
 66
1
 10
0.0
 20
0.0
 30
0.0
  0
VERTEX
  8
0035
 10
81.820901
 20
306.524431
 30
0.0
  0
VERTEX
  8
0035
 10
81.444953
 20
306.806314
 30
0.0
  0
VERTEX
  8
0035
 10
81.008835
 20
306.981264
 30
0.0
  0
VERTEX
  8
0035
 10
80.542294
 20
307.03737
 30
0.0
  0
VERTEX
  8
0035
 10
80.077135
 20
306.97085
 30
0.0
  0
VERTEX
  8
0035
 10
79.645053
 20
306.786192
 30
0.0
  0
VERTEX
  8
0035
 10
79.275483
 20
306.495983
 30
0.0
  0
VERTEX
  8
0035
 10
78.993627
 20
306.120006
 30
0.0
  0
VERTEX
  8
0035
 10
78.818678
 20
305.683888
 30
0.0
  0
VERTEX
  8
0035
 10
78.762544
 20
305.217375
 30
0.0
  0
VERTEX
  8
0035
 10
78.829092
 20
304.752216
 30
0.0
  0
VERTEX
  8
0035
 10
79.01375
 20
304.320106
 30
0.0
  0
VERTEX
  8
0035
 10
79.303959
 20
303.950536
 30
0.0
  0
VERTEX
  8
0035
 10
79.679907
 20
303.668681
 30
0.0
  0
VERTEX
  8
0035
 10
80.116025
 20
303.493731
 30
0.0
  0
VERTEX
  8
0035
 10
80.582567
 20
303.437597
 30
0.0
  0
VERTEX
  8
0035
 10
81.047725
 20
303.504145
 30
0.0
  0
VERTEX
  8
0035
 10
81.479808
 20
303.688803
 30
0.0
  0
VERTEX
  8
0035
 10
81.849378
 20
303.979012
 30
0.0
  0
VERTEX
  8
0035
 10
82.131233
 20
304.354989
 30
0.0
  0
VERTEX
  8
0035
 10
82.306211
 20
304.791107
 30
0.0
  0
VERTEX
  8
0035
 10
82.362316
 20
305.25762
 30
0.0
  0
VERTEX
  8
0035
 10
82.295768
 20
305.722779
 30
0.0
  0
VERTEX
  8
0035
 10
82.11111
 20
306.154861
 30
0.0
  0
SEQEND
  8
0035
  0
CIRCLE
  8
0051
 62
0
 10
260.072804
 20
244.293248
 30
0.0
 40
1.5
  0
POLYLINE
  8
0024
 62
0
 70
1
 66
1
 10
0.0
 20
0.0
 30
0.0
  0
VERTEX
  8
0024
 10
260.822809
 20
234.448855
 30
0.0
  0
VERTEX
  8
0024
 10
261.133479
 20
234.687219
 30
0.0
  0
VERTEX
  8
0024
 10
261.371844
 20
234.99789
 30
0.0
  0
VERTEX
  8
0024
 10
261.521704
 20
235.359642
 30
0.0
  0
VERTEX
  8
0024
 10
261.572815
 20
235.747895
 30
0.0
  0
VERTEX
  8
0024
 10
261.521704
 20
236.13612
 30
0.0
  0
VERTEX
  8
0024
 10
261.371844
 20
236.497873
 30
0.0
  0
VERTEX
  8
0024
 10
261.133479
 20
236.808543
 30
0.0
  0
VERTEX
  8
0024
 10
260.822809
 20
237.046908
 30
0.0
  0
VERTEX
  8
0024
 10
260.461029
 20
237.196768
 30
0.0
  0
VERTEX
  8
0024
 10
260.072804
 20
237.247878
 30
0.0
  0
VERTEX
  8
0024
 10
259.684579
 20
237.196768
 30
0.0
  0
VERTEX
  8
0024
 10
259.322798
 20
237.046908
 30
0.0
  0
VERTEX
  8
0024
 10
259.012156
 20
236.808543
 30
0.0
  0
VERTEX
  8
0024
 10
258.773763
 20
236.497873
 30
0.0
  0
VERTEX
  8
0024
 10
258.623931
 20
236.13612
 30
0.0
  0
VERTEX
  8
0024
 10
258.572793
 20
235.747895
 30
0.0
  0
VERTEX
  8
0024
 10
258.623931
 20
235.359642
 30
0.0
  0
VERTEX
  8
0024
 10
258.773763
 20
234.99789
 30
0.0
  0
VERTEX
  8
0024
 10
259.012156
 20
234.687219
 30
0.0
  0
VERTEX
  8
0024
 10
259.322798
 20
234.448855
 30
0.0
  0
VERTEX
  8
0024
 10
259.684579
 20
234.298995
 30
0.0
  0
VERTEX
  8
0024
 10
260.072804
 20
234.247884
 30
0.0
  0
VERTEX
  8
0024
 10
260.461029
 20
234.298995
 30
0.0
  0
SEQEND
  8
0024
  0
POLYLINE
  8
0033
 62
0
 70
1
 66
1
 10
0.0
 20
0.0
 30
0.0
  0
VERTEX
  8
0033
 10
91.371838
 20
166.497871
 30
0.0
  0
VERTEX
  8
0033
 10
91.133473
 20
166.808513
 30
0.0
  0
VERTEX
  8
0033
 10
90.822802
 20
167.046907
 30
0.0
  0
VERTEX
  8
0033
 10
90.46105
 20
167.196767
 30
0.0
  0
VERTEX
  8
0033
 10
90.072825
 20
167.247877
 30
0.0
  0
VERTEX
  8
0033
 10
89.684572
 20
167.196767
 30
0.0
  0
VERTEX
  8
0033
 10
89.32282
 20
167.046907
 30
0.0
  0
VERTEX
  8
0033
 10
89.012149
 20
166.808513
 30
0.0
  0
VERTEX
  8
0033
 10
88.773784
 20
166.497871
 30
0.0
  0
VERTEX
  8
0033
 10
88.623924
 20
166.136091
 30
0.0
  0
VERTEX
  8
0033
 10
88.572814
 20
165.747866
 30
0.0
  0
VERTEX
  8
0033
 10
88.623924
 20
165.359641
 30
0.0
  0
VERTEX
  8
0033
 10
88.773784
 20
164.99786
 30
0.0
  0
VERTEX
  8
0033
 10
89.012149
 20
164.68719
 30
0.0
  0
VERTEX
  8
0033
 10
89.32282
 20
164.448825
 30
0.0
  0
VERTEX
  8
0033
 10
89.684572
 20
164.298965
 30
0.0
  0
VERTEX
  8
0033
 10
90.072825
 20
164.247855
 30
0.0
  0
VERTEX
  8
0033
 10
90.46105
 20
164.298965
 30
0.0
  0
VERTEX
  8
0033
 10
90.822802
 20
164.448825
 30
0.0
  0
VERTEX
  8
0033
 10
91.133473
 20
164.68719
 30
0.0
  0
VERTEX
  8
0033
 10
91.371838
 20
164.99786
 30
0.0
  0
VERTEX
  8
0033
 10
91.521698
 20
165.359641
 30
0.0
  0
VERTEX
  8
0033
 10
91.572808
 20
165.747866
 30
0.0
  0
VERTEX
  8
0033
 10
91.521698
 20
166.136091
 30
0.0
  0
SEQEND
  8
0033
  0
POLYLINE
  8
0029
 62
0
 70
1
 66
1
 10
0.0
 20
0.0
 30
0.0
  0
VERTEX
  8
0029
 10
281.572803
 20
235.747895
 30
0.0
  0
VERTEX
  8
0029
 10
281.521693
 20
236.13612
 30
0.0
  0
VERTEX
  8
0029
 10
281.371833
 20
236.497873
 30
0.0
  0
VERTEX
  8
0029
 10
281.133468
 20
236.808543
 30
0.0
  0
VERTEX
  8
0029
 10
280.822797
 20
237.046908
 30
0.0
  0
VERTEX
  8
0029
 10
280.461045
 20
237.196768
 30
0.0
  0
VERTEX
  8
0029
 10
280.072792
 20
237.247878
 30
0.0
  0
VERTEX
  8
0029
 10
279.684567
 20
237.196768
 30
0.0
  0
VERTEX
  8
0029
 10
279.322815
 20
237.046908
 30
0.0
  0
VERTEX
  8
0029
 10
279.012144
 20
236.808543
 30
0.0
  0
VERTEX
  8
0029
 10
278.773779
 20
236.497873
 30
0.0
  0
VERTEX
  8
0029
 10
278.623919
 20
236.13612
 30
0.0
  0
VERTEX
  8
0029
 10
278.572809
 20
235.747895
 30
0.0
  0
VERTEX
  8
0029
 10
278.623919
 20
235.359642
 30
0.0
  0
VERTEX
  8
0029
 10
278.773779
 20
234.99789
 30
0.0
  0
VERTEX
  8
0029
 10
279.012144
 20
234.687219
 30
0.0
  0
VERTEX
  8
0029
 10
279.322815
 20
234.448855
 30
0.0
  0
VERTEX
  8
0029
 10
279.684567
 20
234.298995
 30
0.0
  0
VERTEX
  8
0029
 10
280.072792
 20
234.247884
 30
0.0
  0
VERTEX
  8
0029
 10
280.461045
 20
234.298995
 30
0.0
  0
VERTEX
  8
0029
 10
280.822797
 20
234.448855
 30
0.0
  0
VERTEX
  8
0029
 10
281.133468
 20
234.687219
 30
0.0
  0
VERTEX
  8
0029
 10
281.371833
 20
234.99789
 30
0.0
  0
VERTEX
  8
0029
 10
281.521693
 20
235.359642
 30
0.0
  0
SEQEND
  8
0029
  0
CIRCLE
  8
0047
 62
0
 10
110.072813
 20
227.307669
 30
0.0
 40
1.5
  0
POLYLINE
  8
0025
 62
0
 70
1
 66
1
 10
0.0
 20
0.0
 30
0.0
  0
VERTEX
  8
0025
 10
260.072804
 20
164.247855
 30
0.0
  0
VERTEX
  8
0025
 10
260.461029
 20
164.298965
 30
0.0
  0
VERTEX
  8
0025
 10
260.822809
 20
164.448825
 30
0.0
  0
VERTEX
  8
0025
 10
261.133479
 20
164.68719
 30
0.0
  0
VERTEX
  8
0025
 10
261.371844
 20
164.99786
 30
0.0
  0
VERTEX
  8
0025
 10
261.521704
 20
165.359641
 30
0.0
  0
VERTEX
  8
0025
 10
261.572815
 20
165.747866
 30
0.0
  0
VERTEX
  8
0025
 10
261.521704
 20
166.136091
 30
0.0
  0
VERTEX
  8
0025
 10
261.371844
 20
166.497871
 30
0.0
  0
VERTEX
  8
0025
 10
261.133479
 20
166.808513
 30
0.0
  0
VERTEX
  8
0025
 10
260.822809
 20
167.046907
 30
0.0
  0
VERTEX
  8
0025
 10
260.461029
 20
167.196767
 30
0.0
  0
VERTEX
  8
0025
 10
260.072804
 20
167.247877
 30
0.0
  0
VERTEX
  8
0025
 10
259.684579
 20
167.196767
 30
0.0
  0
VERTEX
  8
0025
 10
259.322798
 20
167.046907
 30
0.0
  0
VERTEX
  8
0025
 10
259.012156
 20
166.808513
 30
0.0
  0
VERTEX
  8
0025
 10
258.773763
 20
166.497871
 30
0.0
  0
VERTEX
  8
0025
 10
258.623931
 20
166.136091
 30
0.0
  0
VERTEX
  8
0025
 10
258.572793
 20
165.747866
 30
0.0
  0
VERTEX
  8
0025
 10
258.623931
 20
165.359641
 30
0.0
  0
VERTEX
  8
0025
 10
258.773763
 20
164.99786
 30
0.0
  0
VERTEX
  8
0025
 10
259.012156
 20
164.68719
 30
0.0
  0
VERTEX
  8
0025
 10
259.322798
 20
164.448825
 30
0.0
  0
VERTEX
  8
0025
 10
259.684579
 20
164.298965
 30
0.0
  0
SEQEND
  8
0025
  0
POLYLINE
  8
0026
 62
0
 70
1
 66
1
 10
0.0
 20
0.0
 30
0.0
  0
VERTEX
  8
0026
 10
267.542069
 20
220.052332
 30
0.0
  0
VERTEX
  8
0026
 10
268.037538
 20
219.884156
 30
0.0
  0
VERTEX
  8
0026
 10
268.550703
 20
219.782076
 30
0.0
  0
VERTEX
  8
0026
 10
269.072814
 20
219.747843
 30
0.0
  0
VERTEX
  8
0026
 10
271.07281
 20
219.747843
 30
0.0
  0
VERTEX
  8
0026
 10
271.594921
 20
219.782076
 30
0.0
  0
VERTEX
  8
0026
 10
272.108086
 20
219.884156
 30
0.0
  0
VERTEX
  8
0026
 10
272.603527
 20
220.052332
 30
0.0
  0
VERTEX
  8
0026
 10
273.072806
 20
220.283754
 30
0.0
  0
VERTEX
  8
0026
 10
273.507851
 20
220.574443
 30
0.0
  0
VERTEX
  8
0026
 10
273.901241
 20
220.919432
 30
0.0
  0
VERTEX
  8
0026
 10
274.246229
 20
221.312821
 30
0.0
  0
VERTEX
  8
0026
 10
274.536918
 20
221.747867
 30
0.0
  0
VERTEX
  8
0026
 10
274.768312
 20
222.217118
 30
0.0
  0
VERTEX
  8
0026
 10
274.936517
 20
222.712587
 30
0.0
  0
VERTEX
  8
0026
 10
275.038597
 20
223.225752
 30
0.0
  0
VERTEX
  8
0026
 10
275.072802
 20
223.747863
 30
0.0
  0
VERTEX
  8
0026
 10
275.072802
 20
246.747873
 30
0.0
  0
VERTEX
  8
0026
 10
275.038597
 20
247.269984
 30
0.0
  0
VERTEX
  8
0026
 10
274.936517
 20
247.783149
 30
0.0
  0
VERTEX
  8
0026
 10
274.768312
 20
248.278618
 30
0.0
  0
VERTEX
  8
0026
 10
274.536918
 20
248.747869
 30
0.0
  0
VERTEX
  8
0026
 10
274.246229
 20
249.182915
 30
0.0
  0
VERTEX
  8
0026
 10
273.901241
 20
249.576304
 30
0.0
  0
VERTEX
  8
0026
 10
273.507851
 20
249.921293
 30
0.0
  0
VERTEX
  8
0026
 10
273.072806
 20
250.211982
 30
0.0
  0
VERTEX
  8
0026
 10
272.603527
 20
250.443404
 30
0.0
  0
VERTEX
  8
0026
 10
272.108086
 20
250.61158
 30
0.0
  0
VERTEX
  8
0026
 10
271.594921
 20
250.71366
 30
0.0
  0
VERTEX
  8
0026
 10
271.07281
 20
250.747893
 30
0.0
  0
VERTEX
  8
0026
 10
269.072814
 20
250.747893
 30
0.0
  0
VERTEX
  8
0026
 10
268.550703
 20
250.71366
 30
0.0
  0
VERTEX
  8
0026
 10
268.037538
 20
250.61158
 30
0.0
  0
VERTEX
  8
0026
 10
267.542069
 20
250.443404
 30
0.0
  0
VERTEX
  8
0026
 10
267.072818
 20
250.211982
 30
0.0
  0
VERTEX
  8
0026
 10
266.637772
 20
249.921293
 30
0.0
  0
VERTEX
  8
0026
 10
266.244383
 20
249.576304
 30
0.0
  0
VERTEX
  8
0026
 10
265.899394
 20
249.182915
 30
0.0
  0
VERTEX
  8
0026
 10
265.608705
 20
248.747869
 30
0.0
  0
VERTEX
  8
0026
 10
265.377283
 20
248.278618
 30
0.0
  0
VERTEX
  8
0026
 10
265.209107
 20
247.783149
 30
0.0
  0
VERTEX
  8
0026
 10
265.107027
 20
247.269984
 30
0.0
  0
VERTEX
  8
0026
 10
265.072794
 20
246.747873
 30
0.0
  0
VERTEX
  8
0026
 10
265.072794
 20
223.747863
 30
0.0
  0
VERTEX
  8
0026
 10
265.107027
 20
223.225752
 30
0.0
  0
VERTEX
  8
0026
 10
265.209107
 20
222.712587
 30
0.0
  0
VERTEX
  8
0026
 10
265.377283
 20
222.217118
 30
0.0
  0
VERTEX
  8
0026
 10
265.608705
 20
221.747867
 30
0.0
  0
VERTEX
  8
0026
 10
265.899394
 20
221.312821
 30
0.0
  0
VERTEX
  8
0026
 10
266.244383
 20
220.919432
 30
0.0
  0
VERTEX
  8
0026
 10
266.637772
 20
220.574443
 30
0.0
  0
VERTEX
  8
0026
 10
267.072818
 20
220.283754
 30
0.0
  0
SEQEND
  8
0026
  0
POLYLINE
  8
0027
 62
0
 70
1
 66
1
 10
0.0
 20
0.0
 30
0.0
  0
VERTEX
  8
0027
 10
279.012144
 20
166.808513
 30
0.0
  0
VERTEX
  8
0027
 10
278.773779
 20
166.497871
 30
0.0
  0
VERTEX
  8
0027
 10
278.623919
 20
166.136091
 30
0.0
  0
VERTEX
  8
0027
 10
278.572809
 20
165.747866
 30
0.0
  0
VERTEX
  8
0027
 10
278.623919
 20
165.359641
 30
0.0
  0
VERTEX
  8
0027
 10
278.773779
 20
164.99786
 30
0.0
  0
VERTEX
  8
0027
 10
279.012144
 20
164.68719
 30
0.0
  0
VERTEX
  8
0027
 10
279.322815
 20
164.448825
 30
0.0
  0
VERTEX
  8
0027
 10
279.684567
 20
164.298965
 30
0.0
  0
VERTEX
  8
0027
 10
280.072792
 20
164.247855
 30
0.0
  0
VERTEX
  8
0027
 10
280.461045
 20
164.298965
 30
0.0
  0
VERTEX
  8
0027
 10
280.822797
 20
164.448825
 30
0.0
  0
VERTEX
  8
0027
 10
281.133468
 20
164.68719
 30
0.0
  0
VERTEX
  8
0027
 10
281.371833
 20
164.99786
 30
0.0
  0
VERTEX
  8
0027
 10
281.521693
 20
165.359641
 30
0.0
  0
VERTEX
  8
0027
 10
281.572803
 20
165.747866
 30
0.0
  0
VERTEX
  8
0027
 10
281.521693
 20
166.136091
 30
0.0
  0
VERTEX
  8
0027
 10
281.371833
 20
166.497871
 30
0.0
  0
VERTEX
  8
0027
 10
281.133468
 20
166.808513
 30
0.0
  0
VERTEX
  8
0027
 10
280.822797
 20
167.046907
 30
0.0
  0
VERTEX
  8
0027
 10
280.461045
 20
167.196767
 30
0.0
  0
VERTEX
  8
0027
 10
280.072792
 20
167.247877
 30
0.0
  0
VERTEX
  8
0027
 10
279.684567
 20
167.196767
 30
0.0
  0
VERTEX
  8
0027
 10
279.322815
 20
167.046907
 30
0.0
  0
SEQEND
  8
0027
  0
POLYLINE
  8
0028
 62
0
 70
1
 66
1
 10
0.0
 20
0.0
 30
0.0
  0
VERTEX
  8
0028
 10
271.594921
 20
149.775048
 30
0.0
  0
VERTEX
  8
0028
 10
272.108086
 20
149.877127
 30
0.0
  0
VERTEX
  8
0028
 10
272.603527
 20
150.045304
 30
0.0
  0
VERTEX
  8
0028
 10
273.072806
 20
150.276726
 30
0.0
  0
VERTEX
  8
0028
 10
273.507851
 20
150.567415
 30
0.0
  0
VERTEX
  8
0028
 10
273.901241
 20
150.912403
 30
0.0
  0
VERTEX
  8
0028
 10
274.246229
 20
151.305793
 30
0.0
  0
VERTEX
  8
0028
 10
274.536918
 20
151.740838
 30
0.0
  0
VERTEX
  8
0028
 10
274.768312
 20
152.210089
 30
0.0
  0
VERTEX
  8
0028
 10
274.936517
 20
152.705559
 30
0.0
  0
VERTEX
  8
0028
 10
275.038597
 20
153.218723
 30
0.0
  0
VERTEX
  8
0028
 10
275.072802
 20
153.740834
 30
0.0
  0
VERTEX
  8
0028
 10
275.072802
 20
176.740817
 30
0.0
  0
VERTEX
  8
0028
 10
275.038597
 20
177.262928
 30
0.0
  0
VERTEX
  8
0028
 10
274.936517
 20
177.776092
 30
0.0
  0
VERTEX
  8
0028
 10
274.768312
 20
178.271562
 30
0.0
  0
VERTEX
  8
0028
 10
274.536918
 20
178.740813
 30
0.0
  0
VERTEX
  8
0028
 10
274.246229
 20
179.175886
 30
0.0
  0
VERTEX
  8
0028
 10
273.901241
 20
179.569248
 30
0.0
  0
VERTEX
  8
0028
 10
273.507851
 20
179.914236
 30
0.0
  0
VERTEX
  8
0028
 10
273.072806
 20
180.204925
 30
0.0
  0
VERTEX
  8
0028
 10
272.603527
 20
180.436347
 30
0.0
  0
VERTEX
  8
0028
 10
272.108086
 20
180.604523
 30
0.0
  0
VERTEX
  8
0028
 10
271.594921
 20
180.706603
 30
0.0
  0
VERTEX
  8
0028
 10
271.07281
 20
180.740837
 30
0.0
  0
VERTEX
  8
0028
 10
269.072814
 20
180.740837
 30
0.0
  0
VERTEX
  8
0028
 10
268.550703
 20
180.706603
 30
0.0
  0
VERTEX
  8
0028
 10
268.037538
 20
180.604523
 30
0.0
  0
VERTEX
  8
0028
 10
267.542069
 20
180.436347
 30
0.0
  0
VERTEX
  8
0028
 10
267.072818
 20
180.204925
 30
0.0
  0
VERTEX
  8
0028
 10
266.637772
 20
179.914236
 30
0.0
  0
VERTEX
  8
0028
 10
266.244383
 20
179.569248
 30
0.0
  0
VERTEX
  8
0028
 10
265.899394
 20
179.175886
 30
0.0
  0
VERTEX
  8
0028
 10
265.608705
 20
178.740813
 30
0.0
  0
VERTEX
  8
0028
 10
265.377283
 20
178.271562
 30
0.0
  0
VERTEX
  8
0028
 10
265.209107
 20
177.776092
 30
0.0
  0
VERTEX
  8
0028
 10
265.107027
 20
177.262928
 30
0.0
  0
VERTEX
  8
0028
 10
265.072794
 20
176.740817
 30
0.0
  0
VERTEX
  8
0028
 10
265.072794
 20
153.740834
 30
0.0
  0
VERTEX
  8
0028
 10
265.107027
 20
153.218723
 30
0.0
  0
VERTEX
  8
0028
 10
265.209107
 20
152.705559
 30
0.0
  0
VERTEX
  8
0028
 10
265.377283
 20
152.210089
 30
0.0
  0
VERTEX
  8
0028
 10
265.608705
 20
151.740838
 30
0.0
  0
VERTEX
  8
0028
 10
265.899394
 20
151.305793
 30
0.0
  0
VERTEX
  8
0028
 10
266.244383
 20
150.912403
 30
0.0
  0
VERTEX
  8
0028
 10
266.637772
 20
150.567415
 30
0.0
  0
VERTEX
  8
0028
 10
267.072818
 20
150.276726
 30
0.0
  0
VERTEX
  8
0028
 10
267.542069
 20
150.045304
 30
0.0
  0
VERTEX
  8
0028
 10
268.037538
 20
149.877127
 30
0.0
  0
VERTEX
  8
0028
 10
268.550703
 20
149.775048
 30
0.0
  0
VERTEX
  8
0028
 10
269.072814
 20
149.740842
 30
0.0
  0
VERTEX
  8
0028
 10
271.07281
 20
149.740842
 30
0.0
  0
SEQEND
  8
0028
  0
POLYLINE
  8
0030
 62
0
 70
1
 66
1
 10
0.0
 20
0.0
 30
0.0
  0
VERTEX
  8
0030
 10
183.371089
 20
180.296026
 30
0.0
  0
VERTEX
  8
0030
 10
183.550848
 20
179.861884
 30
0.0
  0
VERTEX
  8
0030
 10
183.836849
 20
179.48904
 30
0.0
  0
VERTEX
  8
0030
 10
184.2096
 20
179.202951
 30
0.0
  0
VERTEX
  8
0030
 10
184.6437
 20
179.023063
 30
0.0
  0
VERTEX
  8
0030
 10
185.072807
 20
178.966449
 30
0.0
  0
VERTEX
  8
0030
 10
185.109564
 20
178.961651
 30
0.0
  0
VERTEX
  8
0030
 10
185.575448
 20
179.022922
 30
0.0
  0
VERTEX
  8
0030
 10
186.009599
 20
179.202697
 30
0.0
  0
VERTEX
  8
0030
 10
186.382431
 20
179.488701
 30
0.0
  0
VERTEX
  8
0030
 10
186.66854
 20
179.861432
 30
0.0
  0
VERTEX
  8
0030
 10
186.848422
 20
180.295547
 30
0.0
  0
VERTEX
  8
0030
 10
186.909823
 20
180.761411
 30
0.0
  0
VERTEX
  8
0030
 10
186.848555
 20
181.227275
 30
0.0
  0
VERTEX
  8
0030
 10
186.668797
 20
181.661446
 30
0.0
  0
VERTEX
  8
0030
 10
186.382795
 20
182.034261
 30
0.0
  0
VERTEX
  8
0030
 10
186.010045
 20
182.320378
 30
0.0
  0
VERTEX
  8
0030
 10
185.575945
 20
182.500267
 30
0.0
  0
VERTEX
  8
0030
 10
185.11008
 20
182.561565
 30
0.0
  0
VERTEX
  8
0030
 10
185.072807
 20
182.556767
 30
0.0
  0
VERTEX
  8
0030
 10
184.644196
 20
182.500408
 30
0.0
  0
VERTEX
  8
0030
 10
184.210045
 20
182.320632
 30
0.0
  0
VERTEX
  8
0030
 10
183.837213
 20
182.034628
 30
0.0
  0
VERTEX
  8
0030
 10
183.551105
 20
181.661897
 30
0.0
  0
VERTEX
  8
0030
 10
183.371222
 20
181.227783
 30
0.0
  0
VERTEX
  8
0030
 10
183.309821
 20
180.761919
 30
0.0
  0
SEQEND
  8
0030
  0
POLYLINE
  8
0031
 62
0
 70
1
 66
1
 10
0.0
 20
0.0
 30
0.0
  0
VERTEX
  8
0031
 10
82.301102
 20
96.703356
 30
0.0
  0
VERTEX
  8
0031
 10
82.12127
 20
97.137499
 30
0.0
  0
VERTEX
  8
0031
 10
81.83521
 20
97.510286
 30
0.0
  0
VERTEX
  8
0031
 10
81.462423
 20
97.796347
 30
0.0
  0
VERTEX
  8
0031
 10
81.028308
 20
97.97615
 30
0.0
  0
VERTEX
  8
0031
 10
80.562444
 20
98.037477
 30
0.0
  0
VERTEX
  8
0031
 10
80.096552
 20
97.97615
 30
0.0
  0
VERTEX
  8
0031
 10
79.662438
 20
97.796347
 30
0.0
  0
VERTEX
  8
0031
 10
79.28965
 20
97.510286
 30
0.0
  0
VERTEX
  8
0031
 10
79.00359
 20
97.137499
 30
0.0
  0
VERTEX
  8
0031
 10
78.823758
 20
96.703356
 30
0.0
  0
VERTEX
  8
0031
 10
78.762431
 20
96.237492
 30
0.0
  0
VERTEX
  8
0031
 10
78.823758
 20
95.7716
 30
0.0
  0
VERTEX
  8
0031
 10
78.920927
 20
95.537045
 30
0.0
  0
VERTEX
  8
0031
 10
79.00359
 20
95.337485
 30
0.0
  0
VERTEX
  8
0031
 10
79.28965
 20
94.964698
 30
0.0
  0
VERTEX
  8
0031
 10
79.662438
 20
94.678638
 30
0.0
  0
VERTEX
  8
0031
 10
80.096552
 20
94.497874
 30
0.0
  0
VERTEX
  8
0031
 10
80.143175
 20
94.497874
 30
0.0
  0
VERTEX
  8
0031
 10
80.562444
 20
94.437479
 30
0.0
  0
VERTEX
  8
0031
 10
81.028308
 20
94.498834
 30
0.0
  0
VERTEX
  8
0031
 10
81.462423
 20
94.678638
 30
0.0
  0
VERTEX
  8
0031
 10
81.83521
 20
94.964698
 30
0.0
  0
VERTEX
  8
0031
 10
82.12127
 20
95.337485
 30
0.0
  0
VERTEX
  8
0031
 10
82.301102
 20
95.7716
 30
0.0
  0
VERTEX
  8
0031
 10
82.362429
 20
96.237492
 30
0.0
  0
SEQEND
  8
0031
  0
POLYLINE
  8
0032
 62
0
 70
1
 66
1
 10
0.0
 20
0.0
 30
0.0
  0
VERTEX
  8
0032
 10
288.024336
 20
97.137499
 30
0.0
  0
VERTEX
  8
0032
 10
287.844515
 20
96.703356
 30
0.0
  0
VERTEX
  8
0032
 10
287.78318
 20
96.237492
 30
0.0
  0
VERTEX
  8
0032
 10
287.844515
 20
95.7716
 30
0.0
  0
VERTEX
  8
0032
 10
288.024336
 20
95.337485
 30
0.0
  0
VERTEX
  8
0032
 10
288.310388
 20
94.964698
 30
0.0
  0
VERTEX
  8
0032
 10
288.683181
 20
94.678638
 30
0.0
  0
VERTEX
  8
0032
 10
289.117306
 20
94.498834
 30
0.0
  0
VERTEX
  8
0032
 10
289.583179
 20
94.437479
 30
0.0
  0
VERTEX
  8
0032
 10
290.049054
 20
94.498834
 30
0.0
  0
VERTEX
  8
0032
 10
290.48318
 20
94.678638
 30
0.0
  0
VERTEX
  8
0032
 10
290.855973
 20
94.964698
 30
0.0
  0
VERTEX
  8
0032
 10
291.142025
 20
95.337485
 30
0.0
  0
VERTEX
  8
0032
 10
291.321845
 20
95.7716
 30
0.0
  0
VERTEX
  8
0032
 10
291.383181
 20
96.237492
 30
0.0
  0
VERTEX
  8
0032
 10
291.321845
 20
96.703356
 30
0.0
  0
VERTEX
  8
0032
 10
291.142025
 20
97.137499
 30
0.0
  0
VERTEX
  8
0032
 10
290.855973
 20
97.510286
 30
0.0
  0
VERTEX
  8
0032
 10
290.48318
 20
97.796347
 30
0.0
  0
VERTEX
  8
0032
 10
290.049054
 20
97.97615
 30
0.0
  0
VERTEX
  8
0032
 10
289.583179
 20
98.037477
 30
0.0
  0
VERTEX
  8
0032
 10
289.117306
 20
97.97615
 30
0.0
  0
VERTEX
  8
0032
 10
288.683181
 20
97.796347
 30
0.0
  0
VERTEX
  8
0032
 10
288.310388
 20
97.510286
 30
0.0
  0
SEQEND
  8
0032
  0
POLYLINE
  8
0034
 62
0
 70
1
 66
1
 10
0.0
 20
0.0
 30
0.0
  0
VERTEX
  8
0034
 10
287.844515
 20
304.792377
 30
0.0
  0
VERTEX
  8
0034
 10
288.024336
 20
304.358262
 30
0.0
  0
VERTEX
  8
0034
 10
288.310388
 20
303.985475
 30
0.0
  0
VERTEX
  8
0034
 10
288.683181
 20
303.699415
 30
0.0
  0
VERTEX
  8
0034
 10
289.117306
 20
303.519583
 30
0.0
  0
VERTEX
  8
0034
 10
289.583179
 20
303.458256
 30
0.0
  0
VERTEX
  8
0034
 10
290.049054
 20
303.519583
 30
0.0
  0
VERTEX
  8
0034
 10
290.48318
 20
303.699415
 30
0.0
  0
VERTEX
  8
0034
 10
290.855973
 20
303.985475
 30
0.0
  0
VERTEX
  8
0034
 10
291.142025
 20
304.358262
 30
0.0
  0
VERTEX
  8
0034
 10
291.321845
 20
304.792377
 30
0.0
  0
VERTEX
  8
0034
 10
291.383181
 20
305.258269
 30
0.0
  0
VERTEX
  8
0034
 10
291.321845
 20
305.724133
 30
0.0
  0
VERTEX
  8
0034
 10
291.142025
 20
306.158247
 30
0.0
  0
VERTEX
  8
0034
 10
290.855973
 20
306.531063
 30
0.0
  0
VERTEX
  8
0034
 10
290.48318
 20
306.817095
 30
0.0
  0
VERTEX
  8
0034
 10
290.049054
 20
306.996927
 30
0.0
  0
VERTEX
  8
0034
 10
289.583179
 20
307.058254
 30
0.0
  0
VERTEX
  8
0034
 10
289.117306
 20
306.996927
 30
0.0
  0
VERTEX
  8
0034
 10
288.683181
 20
306.817095
 30
0.0
  0
VERTEX
  8
0034
 10
288.310388
 20
306.531063
 30
0.0
  0
VERTEX
  8
0034
 10
288.024336
 20
306.158247
 30
0.0
  0
VERTEX
  8
0034
 10
287.844515
 20
305.724133
 30
0.0
  0
VERTEX
  8
0034
 10
287.78318
 20
305.258269
 30
0.0
  0
SEQEND
  8
0034
  0
POLYLINE
  8
0036
 62
0
 70
1
 66
1
 10
0.0
 20
0.0
 30
0.0
  0
VERTEX
  8
0036
 10
108.572802
 20
235.747895
 30
0.0
  0
VERTEX
  8
0036
 10
108.623913
 20
235.359642
 30
0.0
  0
VERTEX
  8
0036
 10
108.773773
 20
234.99789
 30
0.0
  0
VERTEX
  8
0036
 10
109.012138
 20
234.687219
 30
0.0
  0
VERTEX
  8
0036
 10
109.322808
 20
234.448855
 30
0.0
  0
VERTEX
  8
0036
 10
109.684588
 20
234.298995
 30
0.0
  0
VERTEX
  8
0036
 10
110.072813
 20
234.247884
 30
0.0
  0
VERTEX
  8
0036
 10
110.461038
 20
234.298995
 30
0.0
  0
VERTEX
  8
0036
 10
110.822819
 20
234.448855
 30
0.0
  0
VERTEX
  8
0036
 10
111.133461
 20
234.687219
 30
0.0
  0
VERTEX
  8
0036
 10
111.371854
 20
234.99789
 30
0.0
  0
VERTEX
  8
0036
 10
111.521686
 20
235.359642
 30
0.0
  0
VERTEX
  8
0036
 10
111.572824
 20
235.747895
 30
0.0
  0
VERTEX
  8
0036
 10
111.521686
 20
236.13612
 30
0.0
  0
VERTEX
  8
0036
 10
111.371854
 20
236.497873
 30
0.0
  0
VERTEX
  8
0036
 10
111.133461
 20
236.808543
 30
0.0
  0
VERTEX
  8
0036
 10
110.822819
 20
237.046908
 30
0.0
  0
VERTEX
  8
0036
 10
110.461038
 20
237.196768
 30
0.0
  0
VERTEX
  8
0036
 10
110.072813
 20
237.247878
 30
0.0
  0
VERTEX
  8
0036
 10
109.684588
 20
237.196768
 30
0.0
  0
VERTEX
  8
0036
 10
109.322808
 20
237.046908
 30
0.0
  0
VERTEX
  8
0036
 10
109.012138
 20
236.808543
 30
0.0
  0
VERTEX
  8
0036
 10
108.773773
 20
236.497873
 30
0.0
  0
VERTEX
  8
0036
 10
108.623913
 20
236.13612
 30
0.0
  0
SEQEND
  8
0036
  0
POLYLINE
  8
0037
 62
0
 70
1
 66
1
 10
0.0
 20
0.0
 30
0.0
  0
VERTEX
  8
0037
 10
104.768334
 20
222.217118
 30
0.0
  0
VERTEX
  8
0037
 10
104.93651
 20
222.712587
 30
0.0
  0
VERTEX
  8
0037
 10
105.03859
 20
223.225752
 30
0.0
  0
VERTEX
  8
0037
 10
105.072823
 20
223.747863
 30
0.0
  0
VERTEX
  8
0037
 10
105.072823
 20
246.747873
 30
0.0
  0
VERTEX
  8
0037
 10
105.03859
 20
247.269984
 30
0.0
  0
VERTEX
  8
0037
 10
104.93651
 20
247.783149
 30
0.0
  0
VERTEX
  8
0037
 10
104.768334
 20
248.278618
 30
0.0
  0
VERTEX
  8
0037
 10
104.536912
 20
248.747869
 30
0.0
  0
VERTEX
  8
0037
 10
104.246223
 20
249.182915
 30
0.0
  0
VERTEX
  8
0037
 10
103.901234
 20
249.576304
 30
0.0
  0
VERTEX
  8
0037
 10
103.507845
 20
249.921293
 30
0.0
  0
VERTEX
  8
0037
 10
103.072799
 20
250.211982
 30
0.0
  0
VERTEX
  8
0037
 10
102.603548
 20
250.443404
 30
0.0
  0
VERTEX
  8
0037
 10
102.108079
 20
250.61158
 30
0.0
  0
VERTEX
  8
0037
 10
101.594914
 20
250.71366
 30
0.0
  0
VERTEX
  8
0037
 10
101.072803
 20
250.747893
 30
0.0
  0
VERTEX
  8
0037
 10
99.072807
 20
250.747893
 30
0.0
  0
VERTEX
  8
0037
 10
98.550696
 20
250.71366
 30
0.0
  0
VERTEX
  8
0037
 10
98.037531
 20
250.61158
 30
0.0
  0
VERTEX
  8
0037
 10
97.54209
 20
250.443404
 30
0.0
  0
VERTEX
  8
0037
 10
97.072811
 20
250.211982
 30
0.0
  0
VERTEX
  8
0037
 10
96.637766
 20
249.921293
 30
0.0
  0
VERTEX
  8
0037
 10
96.244376
 20
249.576304
 30
0.0
  0
VERTEX
  8
0037
 10
95.899388
 20
249.182915
 30
0.0
  0
VERTEX
  8
0037
 10
95.608699
 20
248.747869
 30
0.0
  0
VERTEX
  8
0037
 10
95.377305
 20
248.278618
 30
0.0
  0
VERTEX
  8
0037
 10
95.2091
 20
247.783149
 30
0.0
  0
VERTEX
  8
0037
 10
95.10702
 20
247.269984
 30
0.0
  0
VERTEX
  8
0037
 10
95.072815
 20
246.747873
 30
0.0
  0
VERTEX
  8
0037
 10
95.072815
 20
223.747863
 30
0.0
  0
VERTEX
  8
0037
 10
95.10702
 20
223.225752
 30
0.0
  0
VERTEX
  8
0037
 10
95.2091
 20
222.712587
 30
0.0
  0
VERTEX
  8
0037
 10
95.377305
 20
222.217118
 30
0.0
  0
VERTEX
  8
0037
 10
95.608699
 20
221.747867
 30
0.0
  0
VERTEX
  8
0037
 10
95.899388
 20
221.312821
 30
0.0
  0
VERTEX
  8
0037
 10
96.244376
 20
220.919432
 30
0.0
  0
VERTEX
  8
0037
 10
96.637766
 20
220.574443
 30
0.0
  0
VERTEX
  8
0037
 10
97.072811
 20
220.283754
 30
0.0
  0
VERTEX
  8
0037
 10
97.54209
 20
220.052332
 30
0.0
  0
VERTEX
  8
0037
 10
98.037531
 20
219.884156
 30
0.0
  0
VERTEX
  8
0037
 10
98.550696
 20
219.782076
 30
0.0
  0
VERTEX
  8
0037
 10
99.072807
 20
219.747843
 30
0.0
  0
VERTEX
  8
0037
 10
101.072803
 20
219.747843
 30
0.0
  0
VERTEX
  8
0037
 10
101.594914
 20
219.782076
 30
0.0
  0
VERTEX
  8
0037
 10
102.108079
 20
219.884156
 30
0.0
  0
VERTEX
  8
0037
 10
102.603548
 20
220.052332
 30
0.0
  0
VERTEX
  8
0037
 10
103.072799
 20
220.283754
 30
0.0
  0
VERTEX
  8
0037
 10
103.507845
 20
220.574443
 30
0.0
  0
VERTEX
  8
0037
 10
103.901234
 20
220.919432
 30
0.0
  0
VERTEX
  8
0037
 10
104.246223
 20
221.312821
 30
0.0
  0
VERTEX
  8
0037
 10
104.536912
 20
221.747867
 30
0.0
  0
SEQEND
  8
0037
  0
POLYLINE
  8
0038
 62
0
 70
1
 66
1
 10
0.0
 20
0.0
 30
0.0
  0
VERTEX
  8
0038
 10
185.575945
 20
223.480062
 30
0.0
  0
VERTEX
  8
0038
 10
185.11008
 20
223.541361
 30
0.0
  0
VERTEX
  8
0038
 10
185.072807
 20
223.536563
 30
0.0
  0
VERTEX
  8
0038
 10
184.644196
 20
223.480175
 30
0.0
  0
VERTEX
  8
0038
 10
184.210045
 20
223.300428
 30
0.0
  0
VERTEX
  8
0038
 10
183.837213
 20
223.014424
 30
0.0
  0
VERTEX
  8
0038
 10
183.551105
 20
222.641665
 30
0.0
  0
VERTEX
  8
0038
 10
183.371222
 20
222.207579
 30
0.0
  0
VERTEX
  8
0038
 10
183.309821
 20
221.741714
 30
0.0
  0
VERTEX
  8
0038
 10
183.371089
 20
221.275822
 30
0.0
  0
VERTEX
  8
0038
 10
183.550848
 20
220.841679
 30
0.0
  0
VERTEX
  8
0038
 10
183.836849
 20
220.468836
 30
0.0
  0
VERTEX
  8
0038
 10
184.2096
 20
220.182747
 30
0.0
  0
VERTEX
  8
0038
 10
184.6437
 20
220.002859
 30
0.0
  0
VERTEX
  8
0038
 10
185.072807
 20
219.946245
 30
0.0
  0
VERTEX
  8
0038
 10
185.109564
 20
219.941447
 30
0.0
  0
VERTEX
  8
0038
 10
185.575448
 20
220.002717
 30
0.0
  0
VERTEX
  8
0038
 10
186.009599
 20
220.182465
 30
0.0
  0
VERTEX
  8
0038
 10
186.382431
 20
220.468469
 30
0.0
  0
VERTEX
  8
0038
 10
186.66854
 20
220.841228
 30
0.0
  0
VERTEX
  8
0038
 10
186.848422
 20
221.275314
 30
0.0
  0
VERTEX
  8
0038
 10
186.909823
 20
221.741206
 30
0.0
  0
VERTEX
  8
0038
 10
186.848555
 20
222.207071
 30
0.0
  0
VERTEX
  8
0038
 10
186.668797
 20
222.641241
 30
0.0
  0
VERTEX
  8
0038
 10
186.382795
 20
223.014057
 30
0.0
  0
VERTEX
  8
0038
 10
186.010045
 20
223.300174
 30
0.0
  0
SEQEND
  8
0038
  0
POLYLINE
  8
0039
 62
0
 70
1
 66
1
 10
0.0
 20
0.0
 30
0.0
  0
VERTEX
  8
0039
 10
109.684588
 20
164.298965
 30
0.0
  0
VERTEX
  8
0039
 10
110.072813
 20
164.247855
 30
0.0
  0
VERTEX
  8
0039
 10
110.461038
 20
164.298965
 30
0.0
  0
VERTEX
  8
0039
 10
110.822819
 20
164.448825
 30
0.0
  0
VERTEX
  8
0039
 10
111.133461
 20
164.68719
 30
0.0
  0
VERTEX
  8
0039
 10
111.371854
 20
164.99786
 30
0.0
  0
VERTEX
  8
0039
 10
111.521686
 20
165.359641
 30
0.0
  0
VERTEX
  8
0039
 10
111.572824
 20
165.747866
 30
0.0
  0
VERTEX
  8
0039
 10
111.521686
 20
166.136091
 30
0.0
  0
VERTEX
  8
0039
 10
111.371854
 20
166.497871
 30
0.0
  0
VERTEX
  8
0039
 10
111.133461
 20
166.808513
 30
0.0
  0
VERTEX
  8
0039
 10
110.822819
 20
167.046907
 30
0.0
  0
VERTEX
  8
0039
 10
110.461038
 20
167.196767
 30
0.0
  0
VERTEX
  8
0039
 10
110.072813
 20
167.247877
 30
0.0
  0
VERTEX
  8
0039
 10
109.684588
 20
167.196767
 30
0.0
  0
VERTEX
  8
0039
 10
109.322808
 20
167.046907
 30
0.0
  0
VERTEX
  8
0039
 10
109.012138
 20
166.808513
 30
0.0
  0
VERTEX
  8
0039
 10
108.773773
 20
166.497871
 30
0.0
  0
VERTEX
  8
0039
 10
108.623913
 20
166.136091
 30
0.0
  0
VERTEX
  8
0039
 10
108.572802
 20
165.747866
 30
0.0
  0
VERTEX
  8
0039
 10
108.623913
 20
165.359641
 30
0.0
  0
VERTEX
  8
0039
 10
108.773773
 20
164.99786
 30
0.0
  0
VERTEX
  8
0039
 10
109.012138
 20
164.68719
 30
0.0
  0
VERTEX
  8
0039
 10
109.322808
 20
164.448825
 30
0.0
  0
SEQEND
  8
0039
  0
POLYLINE
  8
0040
 62
0
 70
1
 66
1
 10
0.0
 20
0.0
 30
0.0
  0
VERTEX
  8
0040
 10
99.072807
 20
180.740837
 30
0.0
  0
VERTEX
  8
0040
 10
98.550696
 20
180.706603
 30
0.0
  0
VERTEX
  8
0040
 10
98.037531
 20
180.604523
 30
0.0
  0
VERTEX
  8
0040
 10
97.54209
 20
180.436347
 30
0.0
  0
VERTEX
  8
0040
 10
97.072811
 20
180.204925
 30
0.0
  0
VERTEX
  8
0040
 10
96.637766
 20
179.914236
 30
0.0
  0
VERTEX
  8
0040
 10
96.244376
 20
179.569248
 30
0.0
  0
VERTEX
  8
0040
 10
95.899388
 20
179.175886
 30
0.0
  0
VERTEX
  8
0040
 10
95.608699
 20
178.740813
 30
0.0
  0
VERTEX
  8
0040
 10
95.377305
 20
178.271562
 30
0.0
  0
VERTEX
  8
0040
 10
95.2091
 20
177.776092
 30
0.0
  0
VERTEX
  8
0040
 10
95.10702
 20
177.262928
 30
0.0
  0
VERTEX
  8
0040
 10
95.072815
 20
176.740817
 30
0.0
  0
VERTEX
  8
0040
 10
95.072815
 20
153.740834
 30
0.0
  0
VERTEX
  8
0040
 10
95.10702
 20
153.218723
 30
0.0
  0
VERTEX
  8
0040
 10
95.2091
 20
152.705559
 30
0.0
  0
VERTEX
  8
0040
 10
95.377305
 20
152.210089
 30
0.0
  0
VERTEX
  8
0040
 10
95.608699
 20
151.740838
 30
0.0
  0
VERTEX
  8
0040
 10
95.899388
 20
151.305793
 30
0.0
  0
VERTEX
  8
0040
 10
96.244376
 20
150.912403
 30
0.0
  0
VERTEX
  8
0040
 10
96.637766
 20
150.567415
 30
0.0
  0
VERTEX
  8
0040
 10
97.072811
 20
150.276726
 30
0.0
  0
VERTEX
  8
0040
 10
97.54209
 20
150.045304
 30
0.0
  0
VERTEX
  8
0040
 10
98.037531
 20
149.877127
 30
0.0
  0
VERTEX
  8
0040
 10
98.550696
 20
149.775048
 30
0.0
  0
VERTEX
  8
0040
 10
99.072807
 20
149.740842
 30
0.0
  0
VERTEX
  8
0040
 10
101.072803
 20
149.740842
 30
0.0
  0
VERTEX
  8
0040
 10
101.594914
 20
149.775048
 30
0.0
  0
VERTEX
  8
0040
 10
102.108079
 20
149.877127
 30
0.0
  0
VERTEX
  8
0040
 10
102.603548
 20
150.045304
 30
0.0
  0
VERTEX
  8
0040
 10
103.072799
 20
150.276726
 30
0.0
  0
VERTEX
  8
0040
 10
103.507845
 20
150.567415
 30
0.0
  0
VERTEX
  8
0040
 10
103.901234
 20
150.912403
 30
0.0
  0
VERTEX
  8
0040
 10
104.246223
 20
151.305793
 30
0.0
  0
VERTEX
  8
0040
 10
104.536912
 20
151.740838
 30
0.0
  0
VERTEX
  8
0040
 10
104.768334
 20
152.210089
 30
0.0
  0
VERTEX
  8
0040
 10
104.93651
 20
152.705559
 30
0.0
  0
VERTEX
  8
0040
 10
105.03859
 20
153.218723
 30
0.0
  0
VERTEX
  8
0040
 10
105.072823
 20
153.740834
 30
0.0
  0
VERTEX
  8
0040
 10
105.072823
 20
176.740817
 30
0.0
  0
VERTEX
  8
0040
 10
105.03859
 20
177.262928
 30
0.0
  0
VERTEX
  8
0040
 10
104.93651
 20
177.776092
 30
0.0
  0
VERTEX
  8
0040
 10
104.768334
 20
178.271562
 30
0.0
  0
VERTEX
  8
0040
 10
104.536912
 20
178.740813
 30
0.0
  0
VERTEX
  8
0040
 10
104.246223
 20
179.175886
 30
0.0
  0
VERTEX
  8
0040
 10
103.901234
 20
179.569248
 30
0.0
  0
VERTEX
  8
0040
 10
103.507845
 20
179.914236
 30
0.0
  0
VERTEX
  8
0040
 10
103.072799
 20
180.204925
 30
0.0
  0
VERTEX
  8
0040
 10
102.603548
 20
180.436347
 30
0.0
  0
VERTEX
  8
0040
 10
102.108079
 20
180.604523
 30
0.0
  0
VERTEX
  8
0040
 10
101.594914
 20
180.706603
 30
0.0
  0
VERTEX
  8
0040
 10
101.072803
 20
180.740837
 30
0.0
  0
SEQEND
  8
0040
  0
POLYLINE
  8
0041
 62
0
 70
1
 66
1
 10
0.0
 20
0.0
 30
0.0
  0
VERTEX
  8
0041
 10
88.623924
 20
236.13612
 30
0.0
  0
VERTEX
  8
0041
 10
88.572814
 20
235.747895
 30
0.0
  0
VERTEX
  8
0041
 10
88.623924
 20
235.359642
 30
0.0
  0
VERTEX
  8
0041
 10
88.773784
 20
234.99789
 30
0.0
  0
VERTEX
  8
0041
 10
89.012149
 20
234.687219
 30
0.0
  0
VERTEX
  8
0041
 10
89.32282
 20
234.448855
 30
0.0
  0
VERTEX
  8
0041
 10
89.684572
 20
234.298995
 30
0.0
  0
VERTEX
  8
0041
 10
90.072825
 20
234.247884
 30
0.0
  0
VERTEX
  8
0041
 10
90.46105
 20
234.298995
 30
0.0
  0
VERTEX
  8
0041
 10
90.822802
 20
234.448855
 30
0.0
  0
VERTEX
  8
0041
 10
91.133473
 20
234.687219
 30
0.0
  0
VERTEX
  8
0041
 10
91.371838
 20
234.99789
 30
0.0
  0
VERTEX
  8
0041
 10
91.521698
 20
235.359642
 30
0.0
  0
VERTEX
  8
0041
 10
91.572808
 20
235.747895
 30
0.0
  0
VERTEX
  8
0041
 10
91.521698
 20
236.13612
 30
0.0
  0
VERTEX
  8
0041
 10
91.371838
 20
236.497873
 30
0.0
  0
VERTEX
  8
0041
 10
91.133473
 20
236.808543
 30
0.0
  0
VERTEX
  8
0041
 10
90.822802
 20
237.046908
 30
0.0
  0
VERTEX
  8
0041
 10
90.46105
 20
237.196768
 30
0.0
  0
VERTEX
  8
0041
 10
90.072825
 20
237.247878
 30
0.0
  0
VERTEX
  8
0041
 10
89.684572
 20
237.196768
 30
0.0
  0
VERTEX
  8
0041
 10
89.32282
 20
237.046908
 30
0.0
  0
VERTEX
  8
0041
 10
89.012149
 20
236.808543
 30
0.0
  0
VERTEX
  8
0041
 10
88.773784
 20
236.497873
 30
0.0
  0
SEQEND
  8
0041
  0
POLYLINE
  8
0042
 62
0
 70
1
 66
1
 10
0.0
 20
0.0
 30
0.0
  0
VERTEX
  8
0042
 10
78.072821
 20
90.747875
 30
0.0
  0
VERTEX
  8
0042
 10
75.072827
 20
93.747869
 30
0.0
  0
VERTEX
  8
0042
 10
75.072827
 20
307.747864
 30
0.0
  0
VERTEX
  8
0042
 10
78.072821
 20
310.747886
 30
0.0
  0
VERTEX
  8
0042
 10
292.072796
 20
310.747886
 30
0.0
  0
VERTEX
  8
0042
 10
295.072799
 20
307.747864
 30
0.0
  0
VERTEX
  8
0042
 10
295.072799
 20
93.747869
 30
0.0
  0
VERTEX
  8
0042
 10
292.072796
 20
90.747875
 30
0.0
  0
SEQEND
  8
0042
  0
CIRCLE
  8
0043
 62
0
 10
280.072792
 20
244.293248
 30
0.0
 40
1.5
  0
CIRCLE
  8
0044
 62
0
 10
280.072792
 20
174.188064
 30
0.0
 40
1.5
  0
CIRCLE
  8
0045
 62
0
 10
110.072813
 20
174.188064
 30
0.0
 40
1.5
  0
CIRCLE
  8
0046
 62
0
 10
110.072813
 20
244.293248
 30
0.0
 40
1.5
  0
CIRCLE
  8
0048
 62
0
 10
110.072813
 20
157.202484
 30
0.0
 40
1.5
  0
CIRCLE
  8
0049
 62
0
 10
260.072804
 20
157.202484
 30
0.0
 40
1.5
  0
CIRCLE
  8
0050
 62
0
 10
280.072792
 20
227.307669
 30
0.0
 40
1.5
  0
CIRCLE
  8
0052
 62
0
 10
260.072804
 20
174.188064
 30
0.0
 40
1.5
  0
ENDSEC
  0
EOF
