solid CATIA STL
  facet normal  0.000000e+000  0.000000e+000  1.000000e+000
    outer loop
      vertex  1.415780e+000 -1.028624e+000  3.500000e+000
      vertex  5.407798e-001 -1.664349e+000  3.500000e+000
      vertex  3.153391e+000 -1.518593e+000  3.500000e+000
    endloop
  endfacet
  facet normal  0.000000e+000  -0.000000e+000  9.999999e-001
    outer loop
      vertex  5.407798e-001 -1.664349e+000  3.500000e+000
      vertex  2.182214e+000 -2.736410e+000  3.500000e+000
      vertex  3.153391e+000 -1.518593e+000  3.500000e+000
    endloop
  endfacet
  facet normal  0.000000e+000  0.000000e+000  1.000000e+000
    outer loop
      vertex  7.788233e-001 -3.412248e+000  3.500000e+000
      vertex  2.182214e+000 -2.736410e+000  3.500000e+000
      vertex -7.788233e-001 -3.412248e+000  3.500000e+000
    endloop
  endfacet
  facet normal  0.000000e+000  0.000000e+000  1.000000e+000
    outer loop
      vertex -7.788233e-001 -3.412248e+000  3.500000e+000
      vertex  2.182214e+000 -2.736410e+000  3.500000e+000
      vertex  5.407798e-001 -1.664349e+000  3.500000e+000
    endloop
  endfacet
  facet normal  0.000000e+000  0.000000e+000  1.000000e+000
    outer loop
      vertex -7.788233e-001 -3.412248e+000  3.500000e+000
      vertex  5.407798e-001 -1.664349e+000  3.500000e+000
      vertex -2.182214e+000 -2.736410e+000  3.500000e+000
    endloop
  endfacet
  facet normal  0.000000e+000  0.000000e+000  1.000000e+000
    outer loop
      vertex -2.182214e+000 -2.736410e+000  3.500000e+000
      vertex  5.407798e-001 -1.664349e+000  3.500000e+000
      vertex -5.407798e-001 -1.664349e+000  3.500000e+000
    endloop
  endfacet
  facet normal  0.000000e+000  0.000000e+000  9.999999e-001
    outer loop
      vertex -2.182214e+000 -2.736410e+000  3.500000e+000
      vertex -5.407798e-001 -1.664349e+000  3.500000e+000
      vertex -3.153391e+000 -1.518593e+000  3.500000e+000
    endloop
  endfacet
  facet normal  -0.000000e+000  0.000000e+000  1.000000e+000
    outer loop
      vertex -3.153391e+000 -1.518593e+000  3.500000e+000
      vertex -5.407798e-001 -1.664349e+000  3.500000e+000
      vertex -1.415780e+000 -1.028624e+000  3.500000e+000
    endloop
  endfacet
  facet normal  0.000000e+000  0.000000e+000  1.000000e+000
    outer loop
      vertex  2.182214e+000  2.736410e+000  3.500000e+000
      vertex  7.788233e-001  3.412248e+000  3.500000e+000
      vertex  5.407798e-001  1.664349e+000  3.500000e+000
    endloop
  endfacet
  facet normal  0.000000e+000  -0.000000e+000  1.000000e+000
    outer loop
      vertex  5.407798e-001  1.664349e+000  3.500000e+000
      vertex  7.788233e-001  3.412248e+000  3.500000e+000
      vertex -7.788233e-001  3.412248e+000  3.500000e+000
    endloop
  endfacet
  facet normal  0.000000e+000  0.000000e+000  1.000000e+000
    outer loop
      vertex  5.407798e-001  1.664349e+000  3.500000e+000
      vertex -7.788233e-001  3.412248e+000  3.500000e+000
      vertex -5.407798e-001  1.664349e+000  3.500000e+000
    endloop
  endfacet
  facet normal  0.000000e+000  0.000000e+000  1.000000e+000
    outer loop
      vertex -5.407798e-001  1.664349e+000  3.500000e+000
      vertex -7.788233e-001  3.412248e+000  3.500000e+000
      vertex -2.182214e+000  2.736410e+000  3.500000e+000
    endloop
  endfacet
  facet normal  0.000000e+000  0.000000e+000  9.999999e-001
    outer loop
      vertex -5.407798e-001  1.664349e+000  3.500000e+000
      vertex -2.182214e+000  2.736410e+000  3.500000e+000
      vertex -3.153391e+000  1.518593e+000  3.500000e+000
    endloop
  endfacet
  facet normal  -0.000000e+000  0.000000e+000  1.000000e+000
    outer loop
      vertex -5.407798e-001  1.664349e+000  3.500000e+000
      vertex -3.153391e+000  1.518593e+000  3.500000e+000
      vertex -1.415780e+000  1.028624e+000  3.500000e+000
    endloop
  endfacet
  facet normal  0.000000e+000  0.000000e+000  1.000000e+000
    outer loop
      vertex -1.415780e+000  1.028624e+000  3.500000e+000
      vertex -3.153391e+000  1.518593e+000  3.500000e+000
      vertex -3.500000e+000  4.286122e-016  3.500000e+000
    endloop
  endfacet
  facet normal  -0.000000e+000  0.000000e+000  9.999999e-001
    outer loop
      vertex -1.415780e+000  1.028624e+000  3.500000e+000
      vertex -3.500000e+000  4.286122e-016  3.500000e+000
      vertex -1.750000e+000  2.143061e-016  3.500000e+000
    endloop
  endfacet
  facet normal  0.000000e+000  0.000000e+000  1.000000e+000
    outer loop
      vertex -3.153391e+000 -1.518593e+000  3.500000e+000
      vertex -1.415780e+000 -1.028624e+000  3.500000e+000
      vertex -3.500000e+000  4.286122e-016  3.500000e+000
    endloop
  endfacet
  facet normal  0.000000e+000  0.000000e+000  9.999999e-001
    outer loop
      vertex -3.500000e+000  4.286122e-016  3.500000e+000
      vertex -1.415780e+000 -1.028624e+000  3.500000e+000
      vertex -1.750000e+000  2.143061e-016  3.500000e+000
    endloop
  endfacet
  facet normal  0.000000e+000  0.000000e+000  1.000000e+000
    outer loop
      vertex  1.415780e+000  1.028624e+000  3.500000e+000
      vertex  3.500000e+000  0.000000e+000  3.500000e+000
      vertex  5.407798e-001  1.664349e+000  3.500000e+000
    endloop
  endfacet
  facet normal  0.000000e+000  0.000000e+000  1.000000e+000
    outer loop
      vertex  5.407798e-001  1.664349e+000  3.500000e+000
      vertex  3.500000e+000  0.000000e+000  3.500000e+000
      vertex  3.153391e+000  1.518593e+000  3.500000e+000
    endloop
  endfacet
  facet normal  0.000000e+000  0.000000e+000  9.999999e-001
    outer loop
      vertex  5.407798e-001  1.664349e+000  3.500000e+000
      vertex  3.153391e+000  1.518593e+000  3.500000e+000
      vertex  2.182214e+000  2.736410e+000  3.500000e+000
    endloop
  endfacet
  facet normal  0.000000e+000  0.000000e+000  9.999999e-001
    outer loop
      vertex  1.415780e+000 -1.028624e+000  3.500000e+000
      vertex  3.153391e+000 -1.518593e+000  3.500000e+000
      vertex  1.750000e+000  0.000000e+000  3.500000e+000
    endloop
  endfacet
  facet normal  -0.000000e+000  0.000000e+000  1.000000e+000
    outer loop
      vertex  1.750000e+000  0.000000e+000  3.500000e+000
      vertex  3.153391e+000 -1.518593e+000  3.500000e+000
      vertex  3.500000e+000  0.000000e+000  3.500000e+000
    endloop
  endfacet
  facet normal  0.000000e+000  0.000000e+000  9.999999e-001
    outer loop
      vertex  1.750000e+000  0.000000e+000  3.500000e+000
      vertex  3.500000e+000  0.000000e+000  3.500000e+000
      vertex  1.415780e+000  1.028624e+000  3.500000e+000
    endloop
  endfacet
  facet normal  0.000000e+000  0.000000e+000 -1.000000e+000
    outer loop
      vertex  3.153391e+000 -1.518593e+000  0.000000e+000
      vertex  5.407798e-001 -1.664349e+000  0.000000e+000
      vertex  1.415780e+000 -1.028624e+000  0.000000e+000
    endloop
  endfacet
  facet normal  0.000000e+000  0.000000e+000 -9.999999e-001
    outer loop
      vertex  3.153391e+000 -1.518593e+000  0.000000e+000
      vertex  2.182214e+000 -2.736410e+000  0.000000e+000
      vertex  5.407798e-001 -1.664349e+000  0.000000e+000
    endloop
  endfacet
  facet normal  0.000000e+000  0.000000e+000 -1.000000e+000
    outer loop
      vertex -7.788233e-001 -3.412248e+000  0.000000e+000
      vertex  2.182214e+000 -2.736410e+000  0.000000e+000
      vertex  7.788233e-001 -3.412248e+000  0.000000e+000
    endloop
  endfacet
  facet normal  0.000000e+000  0.000000e+000 -1.000000e+000
    outer loop
      vertex  2.182214e+000 -2.736410e+000  0.000000e+000
      vertex -7.788233e-001 -3.412248e+000  0.000000e+000
      vertex  5.407798e-001 -1.664349e+000  0.000000e+000
    endloop
  endfacet
  facet normal  0.000000e+000  0.000000e+000 -1.000000e+000
    outer loop
      vertex  5.407798e-001 -1.664349e+000  0.000000e+000
      vertex -7.788233e-001 -3.412248e+000  0.000000e+000
      vertex -2.182214e+000 -2.736410e+000  0.000000e+000
    endloop
  endfacet
  facet normal  0.000000e+000  0.000000e+000 -1.000000e+000
    outer loop
      vertex  5.407798e-001 -1.664349e+000  0.000000e+000
      vertex -2.182214e+000 -2.736410e+000  0.000000e+000
      vertex -5.407798e-001 -1.664349e+000  0.000000e+000
    endloop
  endfacet
  facet normal  -0.000000e+000  0.000000e+000 -9.999999e-001
    outer loop
      vertex -5.407798e-001 -1.664349e+000  0.000000e+000
      vertex -2.182214e+000 -2.736410e+000  0.000000e+000
      vertex -3.153391e+000 -1.518593e+000  0.000000e+000
    endloop
  endfacet
  facet normal  0.000000e+000  0.000000e+000 -1.000000e+000
    outer loop
      vertex -5.407798e-001 -1.664349e+000  0.000000e+000
      vertex -3.153391e+000 -1.518593e+000  0.000000e+000
      vertex -1.415780e+000 -1.028624e+000  0.000000e+000
    endloop
  endfacet
  facet normal  0.000000e+000  -0.000000e+000 -9.999999e-001
    outer loop
      vertex -3.153391e+000  1.518593e+000  0.000000e+000
      vertex -2.182214e+000  2.736410e+000  0.000000e+000
      vertex -5.407798e-001  1.664349e+000  0.000000e+000
    endloop
  endfacet
  facet normal  0.000000e+000  0.000000e+000 -1.000000e+000
    outer loop
      vertex -5.407798e-001  1.664349e+000  0.000000e+000
      vertex -2.182214e+000  2.736410e+000  0.000000e+000
      vertex -7.788233e-001  3.412248e+000  0.000000e+000
    endloop
  endfacet
  facet normal  0.000000e+000  0.000000e+000 -1.000000e+000
    outer loop
      vertex -5.407798e-001  1.664349e+000  0.000000e+000
      vertex -7.788233e-001  3.412248e+000  0.000000e+000
      vertex  5.407798e-001  1.664349e+000  0.000000e+000
    endloop
  endfacet
  facet normal  0.000000e+000  0.000000e+000 -1.000000e+000
    outer loop
      vertex  5.407798e-001  1.664349e+000  0.000000e+000
      vertex -7.788233e-001  3.412248e+000  0.000000e+000
      vertex  7.788233e-001  3.412248e+000  0.000000e+000
    endloop
  endfacet
  facet normal  0.000000e+000  -0.000000e+000 -1.000000e+000
    outer loop
      vertex  5.407798e-001  1.664349e+000  0.000000e+000
      vertex  7.788233e-001  3.412248e+000  0.000000e+000
      vertex  2.182214e+000  2.736410e+000  0.000000e+000
    endloop
  endfacet
  facet normal  0.000000e+000  0.000000e+000 -9.999999e-001
    outer loop
      vertex -1.750000e+000  2.143061e-016  0.000000e+000
      vertex -3.500000e+000  4.286122e-016  0.000000e+000
      vertex -1.415780e+000  1.028624e+000  0.000000e+000
    endloop
  endfacet
  facet normal  -0.000000e+000  0.000000e+000 -1.000000e+000
    outer loop
      vertex -1.415780e+000  1.028624e+000  0.000000e+000
      vertex -3.500000e+000  4.286122e-016  0.000000e+000
      vertex -3.153391e+000  1.518593e+000  0.000000e+000
    endloop
  endfacet
  facet normal  0.000000e+000  0.000000e+000 -1.000000e+000
    outer loop
      vertex -1.415780e+000  1.028624e+000  0.000000e+000
      vertex -3.153391e+000  1.518593e+000  0.000000e+000
      vertex -5.407798e-001  1.664349e+000  0.000000e+000
    endloop
  endfacet
  facet normal  0.000000e+000  0.000000e+000 -1.000000e+000
    outer loop
      vertex -3.153391e+000 -1.518593e+000  0.000000e+000
      vertex -3.500000e+000  4.286122e-016  0.000000e+000
      vertex -1.415780e+000 -1.028624e+000  0.000000e+000
    endloop
  endfacet
  facet normal  0.000000e+000  0.000000e+000 -1.000000e+000
    outer loop
      vertex -1.415780e+000 -1.028624e+000  0.000000e+000
      vertex -3.500000e+000  4.286122e-016  0.000000e+000
      vertex -1.750000e+000  2.143061e-016  0.000000e+000
    endloop
  endfacet
  facet normal  0.000000e+000  0.000000e+000 -9.999999e-001
    outer loop
      vertex  2.182214e+000  2.736410e+000  0.000000e+000
      vertex  3.153391e+000  1.518593e+000  0.000000e+000
      vertex  5.407798e-001  1.664349e+000  0.000000e+000
    endloop
  endfacet
  facet normal  0.000000e+000  0.000000e+000 -1.000000e+000
    outer loop
      vertex  5.407798e-001  1.664349e+000  0.000000e+000
      vertex  3.153391e+000  1.518593e+000  0.000000e+000
      vertex  3.500000e+000  0.000000e+000  0.000000e+000
    endloop
  endfacet
  facet normal  0.000000e+000  0.000000e+000 -1.000000e+000
    outer loop
      vertex  5.407798e-001  1.664349e+000  0.000000e+000
      vertex  3.500000e+000  0.000000e+000  0.000000e+000
      vertex  1.415780e+000  1.028624e+000  0.000000e+000
    endloop
  endfacet
  facet normal  0.000000e+000  0.000000e+000 -9.999999e-001
    outer loop
      vertex  1.415780e+000  1.028624e+000  0.000000e+000
      vertex  3.500000e+000  0.000000e+000  0.000000e+000
      vertex  1.750000e+000  0.000000e+000  0.000000e+000
    endloop
  endfacet
  facet normal  0.000000e+000  0.000000e+000 -1.000000e+000
    outer loop
      vertex  1.750000e+000  0.000000e+000  0.000000e+000
      vertex  3.500000e+000  0.000000e+000  0.000000e+000
      vertex  3.153391e+000 -1.518593e+000  0.000000e+000
    endloop
  endfacet
  facet normal  0.000000e+000  0.000000e+000 -9.999999e-001
    outer loop
      vertex  1.750000e+000  0.000000e+000  0.000000e+000
      vertex  3.153391e+000 -1.518593e+000  0.000000e+000
      vertex  1.415780e+000 -1.028624e+000  0.000000e+000
    endloop
  endfacet
  facet normal  5.877853e-001 -8.090170e-001  0.000000e+000
    outer loop
      vertex -5.407798e-001  1.664349e+000  0.000000e+000
      vertex -1.415780e+000  1.028624e+000  3.500000e+000
      vertex -1.415780e+000  1.028624e+000  0.000000e+000
    endloop
  endfacet
  facet normal  9.510566e-001 -3.090170e-001  0.000000e+000
    outer loop
      vertex -1.415780e+000  1.028624e+000  0.000000e+000
      vertex -1.415780e+000  1.028624e+000  3.500000e+000
      vertex -1.750000e+000  2.143061e-016  3.500000e+000
    endloop
  endfacet
  facet normal  9.510566e-001 -3.090170e-001  0.000000e+000
    outer loop
      vertex -1.415780e+000  1.028624e+000  0.000000e+000
      vertex -1.750000e+000  2.143061e-016  3.500000e+000
      vertex -1.750000e+000  2.143061e-016  0.000000e+000
    endloop
  endfacet
  facet normal  5.877853e-001 -8.090170e-001  0.000000e+000
    outer loop
      vertex -1.415780e+000  1.028624e+000  3.500000e+000
      vertex -5.407798e-001  1.664349e+000  0.000000e+000
      vertex -5.407798e-001  1.664349e+000  3.500000e+000
    endloop
  endfacet
  facet normal  0.000000e+000 -1.000000e+000  0.000000e+000
    outer loop
      vertex -5.407798e-001  1.664349e+000  3.500000e+000
      vertex -5.407798e-001  1.664349e+000  0.000000e+000
      vertex  5.407798e-001  1.664349e+000  0.000000e+000
    endloop
  endfacet
  facet normal  0.000000e+000 -1.000000e+000  0.000000e+000
    outer loop
      vertex -5.407798e-001  1.664349e+000  3.500000e+000
      vertex  5.407798e-001  1.664349e+000  0.000000e+000
      vertex  5.407798e-001  1.664349e+000  3.500000e+000
    endloop
  endfacet
  facet normal -5.877853e-001 -8.090170e-001  -0.000000e+000
    outer loop
      vertex  5.407798e-001  1.664349e+000  3.500000e+000
      vertex  5.407798e-001  1.664349e+000  0.000000e+000
      vertex  1.415780e+000  1.028624e+000  0.000000e+000
    endloop
  endfacet
  facet normal -5.877853e-001 -8.090170e-001  0.000000e+000
    outer loop
      vertex  5.407798e-001  1.664349e+000  3.500000e+000
      vertex  1.415780e+000  1.028624e+000  0.000000e+000
      vertex  1.415780e+000  1.028624e+000  3.500000e+000
    endloop
  endfacet
  facet normal -9.510566e-001 -3.090170e-001  -0.000000e+000
    outer loop
      vertex  1.415780e+000  1.028624e+000  3.500000e+000
      vertex  1.415780e+000  1.028624e+000  0.000000e+000
      vertex  1.750000e+000  0.000000e+000  0.000000e+000
    endloop
  endfacet
  facet normal -9.510566e-001 -3.090170e-001  0.000000e+000
    outer loop
      vertex  1.415780e+000  1.028624e+000  3.500000e+000
      vertex  1.750000e+000  0.000000e+000  0.000000e+000
      vertex  1.750000e+000  0.000000e+000  3.500000e+000
    endloop
  endfacet
  facet normal -5.877853e-001  8.090170e-001  0.000000e+000
    outer loop
      vertex  5.407798e-001 -1.664349e+000  0.000000e+000
      vertex  1.415780e+000 -1.028624e+000  3.500000e+000
      vertex  1.415780e+000 -1.028624e+000  0.000000e+000
    endloop
  endfacet
  facet normal -9.510566e-001  3.090170e-001  0.000000e+000
    outer loop
      vertex  1.415780e+000 -1.028624e+000  0.000000e+000
      vertex  1.415780e+000 -1.028624e+000  3.500000e+000
      vertex  1.750000e+000  0.000000e+000  3.500000e+000
    endloop
  endfacet
  facet normal -9.510566e-001  3.090170e-001  0.000000e+000
    outer loop
      vertex  1.415780e+000 -1.028624e+000  0.000000e+000
      vertex  1.750000e+000  0.000000e+000  3.500000e+000
      vertex  1.750000e+000  0.000000e+000  0.000000e+000
    endloop
  endfacet
  facet normal -5.877853e-001  8.090170e-001  0.000000e+000
    outer loop
      vertex  1.415780e+000 -1.028624e+000  3.500000e+000
      vertex  5.407798e-001 -1.664349e+000  0.000000e+000
      vertex  5.407798e-001 -1.664349e+000  3.500000e+000
    endloop
  endfacet
  facet normal  0.000000e+000  1.000000e+000  0.000000e+000
    outer loop
      vertex  5.407798e-001 -1.664349e+000  3.500000e+000
      vertex  5.407798e-001 -1.664349e+000  0.000000e+000
      vertex -5.407798e-001 -1.664349e+000  0.000000e+000
    endloop
  endfacet
  facet normal  0.000000e+000  1.000000e+000  0.000000e+000
    outer loop
      vertex  5.407798e-001 -1.664349e+000  3.500000e+000
      vertex -5.407798e-001 -1.664349e+000  0.000000e+000
      vertex -5.407798e-001 -1.664349e+000  3.500000e+000
    endloop
  endfacet
  facet normal  5.877853e-001  8.090170e-001  0.000000e+000
    outer loop
      vertex -5.407798e-001 -1.664349e+000  3.500000e+000
      vertex -5.407798e-001 -1.664349e+000  0.000000e+000
      vertex -1.415780e+000 -1.028624e+000  0.000000e+000
    endloop
  endfacet
  facet normal  5.877853e-001  8.090170e-001  -0.000000e+000
    outer loop
      vertex -5.407798e-001 -1.664349e+000  3.500000e+000
      vertex -1.415780e+000 -1.028624e+000  0.000000e+000
      vertex -1.415780e+000 -1.028624e+000  3.500000e+000
    endloop
  endfacet
  facet normal  9.510566e-001  3.090170e-001  0.000000e+000
    outer loop
      vertex -1.415780e+000 -1.028624e+000  3.500000e+000
      vertex -1.415780e+000 -1.028624e+000  0.000000e+000
      vertex -1.750000e+000  2.143061e-016  0.000000e+000
    endloop
  endfacet
  facet normal  9.510566e-001  3.090170e-001  -0.000000e+000
    outer loop
      vertex -1.415780e+000 -1.028624e+000  3.500000e+000
      vertex -1.750000e+000  2.143061e-016  0.000000e+000
      vertex -1.750000e+000  2.143061e-016  3.500000e+000
    endloop
  endfacet
  facet normal  9.749280e-001 -2.225209e-001  0.000000e+000
    outer loop
      vertex  3.500000e+000  0.000000e+000  0.000000e+000
      vertex  3.500000e+000  0.000000e+000  3.500000e+000
      vertex  3.153391e+000 -1.518593e+000  0.000000e+000
    endloop
  endfacet
  facet normal  9.749280e-001 -2.225209e-001  0.000000e+000
    outer loop
      vertex  3.153391e+000 -1.518593e+000  0.000000e+000
      vertex  3.500000e+000  0.000000e+000  3.500000e+000
      vertex  3.153391e+000 -1.518593e+000  3.500000e+000
    endloop
  endfacet
  facet normal  7.818314e-001 -6.234899e-001  0.000000e+000
    outer loop
      vertex  3.153391e+000 -1.518593e+000  0.000000e+000
      vertex  3.153391e+000 -1.518593e+000  3.500000e+000
      vertex  2.182214e+000 -2.736410e+000  0.000000e+000
    endloop
  endfacet
  facet normal  7.818314e-001 -6.234899e-001  0.000000e+000
    outer loop
      vertex  2.182214e+000 -2.736410e+000  0.000000e+000
      vertex  3.153391e+000 -1.518593e+000  3.500000e+000
      vertex  2.182214e+000 -2.736410e+000  3.500000e+000
    endloop
  endfacet
  facet normal  4.338838e-001 -9.009689e-001  0.000000e+000
    outer loop
      vertex  2.182214e+000 -2.736410e+000  0.000000e+000
      vertex  2.182214e+000 -2.736410e+000  3.500000e+000
      vertex  7.788233e-001 -3.412248e+000  0.000000e+000
    endloop
  endfacet
  facet normal  4.338838e-001 -9.009689e-001  0.000000e+000
    outer loop
      vertex  7.788233e-001 -3.412248e+000  0.000000e+000
      vertex  2.182214e+000 -2.736410e+000  3.500000e+000
      vertex  7.788233e-001 -3.412248e+000  3.500000e+000
    endloop
  endfacet
  facet normal  0.000000e+000 -1.000000e+000  -0.000000e+000
    outer loop
      vertex  7.788233e-001 -3.412248e+000  0.000000e+000
      vertex  7.788233e-001 -3.412248e+000  3.500000e+000
      vertex -7.788233e-001 -3.412248e+000  0.000000e+000
    endloop
  endfacet
  facet normal  0.000000e+000 -1.000000e+000  0.000000e+000
    outer loop
      vertex -7.788233e-001 -3.412248e+000  0.000000e+000
      vertex  7.788233e-001 -3.412248e+000  3.500000e+000
      vertex -7.788233e-001 -3.412248e+000  3.500000e+000
    endloop
  endfacet
  facet normal -4.338838e-001 -9.009689e-001  -0.000000e+000
    outer loop
      vertex -7.788233e-001 -3.412248e+000  0.000000e+000
      vertex -7.788233e-001 -3.412248e+000  3.500000e+000
      vertex -2.182214e+000 -2.736410e+000  0.000000e+000
    endloop
  endfacet
  facet normal -4.338838e-001 -9.009689e-001  0.000000e+000
    outer loop
      vertex -2.182214e+000 -2.736410e+000  0.000000e+000
      vertex -7.788233e-001 -3.412248e+000  3.500000e+000
      vertex -2.182214e+000 -2.736410e+000  3.500000e+000
    endloop
  endfacet
  facet normal -7.818314e-001 -6.234899e-001  -0.000000e+000
    outer loop
      vertex -2.182214e+000 -2.736410e+000  0.000000e+000
      vertex -2.182214e+000 -2.736410e+000  3.500000e+000
      vertex -3.153391e+000 -1.518593e+000  0.000000e+000
    endloop
  endfacet
  facet normal -7.818314e-001 -6.234899e-001  0.000000e+000
    outer loop
      vertex -3.153391e+000 -1.518593e+000  0.000000e+000
      vertex -2.182214e+000 -2.736410e+000  3.500000e+000
      vertex -3.153391e+000 -1.518593e+000  3.500000e+000
    endloop
  endfacet
  facet normal -9.749280e-001 -2.225209e-001  -0.000000e+000
    outer loop
      vertex -3.153391e+000 -1.518593e+000  0.000000e+000
      vertex -3.153391e+000 -1.518593e+000  3.500000e+000
      vertex -3.500000e+000  4.286122e-016  0.000000e+000
    endloop
  endfacet
  facet normal -9.749280e-001 -2.225209e-001  0.000000e+000
    outer loop
      vertex -3.500000e+000  4.286122e-016  0.000000e+000
      vertex -3.153391e+000 -1.518593e+000  3.500000e+000
      vertex -3.500000e+000  4.286122e-016  3.500000e+000
    endloop
  endfacet
  facet normal -9.749280e-001  2.225209e-001  0.000000e+000
    outer loop
      vertex -3.500000e+000  4.286122e-016  0.000000e+000
      vertex -3.500000e+000  4.286122e-016  3.500000e+000
      vertex -3.153391e+000  1.518593e+000  0.000000e+000
    endloop
  endfacet
  facet normal -9.749280e-001  2.225209e-001  0.000000e+000
    outer loop
      vertex -3.153391e+000  1.518593e+000  0.000000e+000
      vertex -3.500000e+000  4.286122e-016  3.500000e+000
      vertex -3.153391e+000  1.518593e+000  3.500000e+000
    endloop
  endfacet
  facet normal -7.818314e-001  6.234899e-001  0.000000e+000
    outer loop
      vertex -3.153391e+000  1.518593e+000  0.000000e+000
      vertex -3.153391e+000  1.518593e+000  3.500000e+000
      vertex -2.182214e+000  2.736410e+000  0.000000e+000
    endloop
  endfacet
  facet normal -7.818314e-001  6.234899e-001  0.000000e+000
    outer loop
      vertex -2.182214e+000  2.736410e+000  0.000000e+000
      vertex -3.153391e+000  1.518593e+000  3.500000e+000
      vertex -2.182214e+000  2.736410e+000  3.500000e+000
    endloop
  endfacet
  facet normal -4.338838e-001  9.009689e-001  0.000000e+000
    outer loop
      vertex -2.182214e+000  2.736410e+000  0.000000e+000
      vertex -2.182214e+000  2.736410e+000  3.500000e+000
      vertex -7.788233e-001  3.412248e+000  0.000000e+000
    endloop
  endfacet
  facet normal -4.338838e-001  9.009689e-001  0.000000e+000
    outer loop
      vertex -7.788233e-001  3.412248e+000  0.000000e+000
      vertex -2.182214e+000  2.736410e+000  3.500000e+000
      vertex -7.788233e-001  3.412248e+000  3.500000e+000
    endloop
  endfacet
  facet normal  0.000000e+000  1.000000e+000  0.000000e+000
    outer loop
      vertex -7.788233e-001  3.412248e+000  0.000000e+000
      vertex -7.788233e-001  3.412248e+000  3.500000e+000
      vertex  7.788233e-001  3.412248e+000  0.000000e+000
    endloop
  endfacet
  facet normal  0.000000e+000  1.000000e+000  -0.000000e+000
    outer loop
      vertex  7.788233e-001  3.412248e+000  0.000000e+000
      vertex -7.788233e-001  3.412248e+000  3.500000e+000
      vertex  7.788233e-001  3.412248e+000  3.500000e+000
    endloop
  endfacet
  facet normal  4.338838e-001  9.009689e-001  0.000000e+000
    outer loop
      vertex  7.788233e-001  3.412248e+000  0.000000e+000
      vertex  7.788233e-001  3.412248e+000  3.500000e+000
      vertex  2.182214e+000  2.736410e+000  0.000000e+000
    endloop
  endfacet
  facet normal  4.338838e-001  9.009689e-001  -0.000000e+000
    outer loop
      vertex  2.182214e+000  2.736410e+000  0.000000e+000
      vertex  7.788233e-001  3.412248e+000  3.500000e+000
      vertex  2.182214e+000  2.736410e+000  3.500000e+000
    endloop
  endfacet
  facet normal  7.818314e-001  6.234899e-001  0.000000e+000
    outer loop
      vertex  2.182214e+000  2.736410e+000  0.000000e+000
      vertex  2.182214e+000  2.736410e+000  3.500000e+000
      vertex  3.153391e+000  1.518593e+000  0.000000e+000
    endloop
  endfacet
  facet normal  7.818314e-001  6.234899e-001  -0.000000e+000
    outer loop
      vertex  3.153391e+000  1.518593e+000  0.000000e+000
      vertex  2.182214e+000  2.736410e+000  3.500000e+000
      vertex  3.153391e+000  1.518593e+000  3.500000e+000
    endloop
  endfacet
  facet normal  9.749280e-001  2.225209e-001  0.000000e+000
    outer loop
      vertex  3.153391e+000  1.518593e+000  0.000000e+000
      vertex  3.153391e+000  1.518593e+000  3.500000e+000
      vertex  3.500000e+000  0.000000e+000  0.000000e+000
    endloop
  endfacet
  facet normal  9.749280e-001  2.225209e-001  -0.000000e+000
    outer loop
      vertex  3.500000e+000  0.000000e+000  0.000000e+000
      vertex  3.153391e+000  1.518593e+000  3.500000e+000
      vertex  3.500000e+000  0.000000e+000  3.500000e+000
    endloop
  endfacet
endsolid CATIA STL
